<svg xmlns="http://www.w3.org/2000/svg" width="26.591" height="26.591" viewBox="0 0 26.591 26.591"><path id="twitter" fill="#fff" d="M13.3,0a13.3,13.3,0,1,0,13.3,13.3A13.3,13.3,0,0,0,13.3,0Zm6.071,10.367q.009.2.009.394a8.624,8.624,0,0,1-8.683,8.683h0a8.638,8.638,0,0,1-4.678-1.371,6.206,6.206,0,0,0,.728.042,6.123,6.123,0,0,0,3.79-1.306,3.055,3.055,0,0,1-2.851-2.12,3.042,3.042,0,0,0,1.378-.052,3.053,3.053,0,0,1-2.448-2.991c0-.014,0-.026,0-.039a3.031,3.031,0,0,0,1.382.382A3.054,3.054,0,0,1,7.05,7.914,8.664,8.664,0,0,0,13.34,11.1a3.053,3.053,0,0,1,5.2-2.783,6.121,6.121,0,0,0,1.938-.741,3.064,3.064,0,0,1-1.342,1.688,6.086,6.086,0,0,0,1.752-.481A6.2,6.2,0,0,1,19.366,10.367Zm0,0"/></svg>