<svg xmlns="http://www.w3.org/2000/svg" width="28" height="28" viewBox="0 0 28 28"><path id="Exclusión_1" fill="#fff" stroke="rgba(0,0,0,0)" stroke-miterlimit="10" stroke-width="1" d="M13.5,27a13.6,13.6,0,0,1-2.721-.274,13.427,13.427,0,0,1-4.827-2.031,13.539,13.539,0,0,1-4.891-5.94,13.414,13.414,0,0,1-.787-2.534,13.629,13.629,0,0,1,0-5.441A13.427,13.427,0,0,1,2.305,5.952a13.541,13.541,0,0,1,5.94-4.891A13.43,13.43,0,0,1,10.779.274a13.631,13.631,0,0,1,5.442,0,13.427,13.427,0,0,1,4.827,2.031,13.539,13.539,0,0,1,4.891,5.94,13.422,13.422,0,0,1,.787,2.534,13.623,13.623,0,0,1,0,5.441,13.431,13.431,0,0,1-2.031,4.827,13.54,13.54,0,0,1-5.94,4.891,13.429,13.429,0,0,1-2.534.787A13.6,13.6,0,0,1,13.5,27ZM8.84,5.9A2.939,2.939,0,0,0,5.9,8.84v9.32A2.939,2.939,0,0,0,8.84,21.1h9.32A2.939,2.939,0,0,0,21.1,18.16V8.84A2.939,2.939,0,0,0,18.159,5.9Zm9.135,13.527H9a1.458,1.458,0,0,1-1.456-1.455V11.809H9.65A4.815,4.815,0,0,0,9.344,13.5a4.153,4.153,0,1,0,8.307,0,4.831,4.831,0,0,0-.306-1.692h2.084v6.167h0A1.457,1.457,0,0,1,17.974,19.432ZM13.5,16.041A2.544,2.544,0,0,1,10.959,13.5a2.717,2.717,0,0,1,.161-.83,2.749,2.749,0,0,1,.632-1.039,2.373,2.373,0,0,1,1.748-.673,2.542,2.542,0,0,1,1.286.318,2.305,2.305,0,0,1,.775.742,3.035,3.035,0,0,1,.38.847,2.567,2.567,0,0,1,.1.635A2.542,2.542,0,0,1,13.5,16.041Zm3.377-5.91h0l-.009-2.521L19.084,7.6h.333v2.521Z" data-name="Exclusión 1" transform="translate(0.5 0.5)"/></svg>