<svg xmlns="http://www.w3.org/2000/svg" xmlns:xlink="http://www.w3.org/1999/xlink" viewBox="0 0 805 805"><defs><style>.cls-1{isolation:isolate;}.cls-2{fill:#c7ecf9;}.cls-3{fill:url(#linear-gradient);}.cls-4{fill:url(#linear-gradient-2);}.cls-5{fill:url(#linear-gradient-3);}.cls-6{fill:url(#linear-gradient-4);}.cls-7{fill:url(#linear-gradient-5);}.cls-8{fill:url(#linear-gradient-6);}.cls-9{fill:url(#linear-gradient-7);}.cls-10{fill:url(#linear-gradient-8);}.cls-11,.cls-19,.cls-35,.cls-51{opacity:0.3;}.cls-11,.cls-19,.cls-35,.cls-36,.cls-38,.cls-51,.cls-56{mix-blend-mode:multiply;}.cls-12{fill:url(#linear-gradient-9);}.cls-13{fill:url(#linear-gradient-10);}.cls-14{fill:url(#linear-gradient-11);}.cls-15{fill:url(#linear-gradient-12);}.cls-16{fill:url(#linear-gradient-13);}.cls-17{fill:url(#linear-gradient-14);}.cls-18{fill:url(#linear-gradient-15);}.cls-19{fill:url(#linear-gradient-16);}.cls-20{fill:url(#linear-gradient-17);}.cls-21{fill:url(#linear-gradient-18);}.cls-22{fill:url(#linear-gradient-19);}.cls-23{fill:url(#linear-gradient-20);}.cls-24{fill:url(#linear-gradient-21);}.cls-25{fill:url(#linear-gradient-22);}.cls-26{fill:url(#linear-gradient-23);}.cls-27{fill:url(#linear-gradient-24);}.cls-28{fill:url(#linear-gradient-25);}.cls-29{fill:url(#linear-gradient-26);}.cls-30{fill:url(#linear-gradient-27);}.cls-31{fill:url(#linear-gradient-28);}.cls-32{fill:url(#linear-gradient-29);}.cls-33{fill:url(#linear-gradient-30);}.cls-34{fill:url(#linear-gradient-31);}.cls-35{fill:url(#linear-gradient-32);}.cls-36,.cls-38{opacity:0.15;}.cls-36{fill:url(#linear-gradient-33);}.cls-37{fill:url(#linear-gradient-34);}.cls-39{fill:url(#linear-gradient-35);}.cls-40{fill:url(#linear-gradient-36);}.cls-41{fill:url(#linear-gradient-37);}.cls-42{fill:url(#linear-gradient-38);}.cls-43{fill:url(#linear-gradient-39);}.cls-44{fill:url(#linear-gradient-40);}.cls-45{fill:url(#linear-gradient-41);}.cls-46{fill:url(#linear-gradient-42);}.cls-47{fill:url(#linear-gradient-43);}.cls-48{fill:url(#linear-gradient-44);}.cls-49{fill:url(#linear-gradient-45);}.cls-50{fill:url(#linear-gradient-46);}.cls-51{fill:url(#linear-gradient-47);}.cls-52{fill:url(#linear-gradient-48);}.cls-53{fill:url(#linear-gradient-49);}.cls-54{fill:url(#linear-gradient-50);}.cls-55{fill:url(#linear-gradient-51);}.cls-56{opacity:0.4;}.cls-57{fill:url(#linear-gradient-52);}.cls-58{fill:url(#linear-gradient-53);}.cls-59{fill:url(#linear-gradient-54);}.cls-60{fill:url(#linear-gradient-55);}.cls-61{fill:url(#linear-gradient-56);}.cls-62{fill:url(#linear-gradient-57);}.cls-63{fill:url(#linear-gradient-58);}.cls-64{fill:url(#linear-gradient-59);}.cls-65{fill:url(#linear-gradient-60);}.cls-66{fill:#b1b8c4;}.cls-67{fill:#ebeff2;}.cls-68{fill:#bfc8d6;}.cls-69{fill:#fff;}</style><linearGradient id="linear-gradient" x1="-2938.05" y1="425.9" x2="-2853.59" y2="830.97" gradientTransform="translate(3313.42)" gradientUnits="userSpaceOnUse"><stop offset="0" stop-color="#aa80f9"/><stop offset="1" stop-color="#6165d7"/></linearGradient><linearGradient id="linear-gradient-2" x1="7413.06" y1="644.17" x2="7442.31" y2="644.17" gradientTransform="matrix(-1, 0.03, 0.03, 1, 7731.64, -63.19)" gradientUnits="userSpaceOnUse"><stop offset="0" stop-color="#444b8c"/><stop offset="1" stop-color="#26264f"/></linearGradient><linearGradient id="linear-gradient-3" x1="7124.3" y1="785.72" x2="7134.79" y2="785.72" gradientTransform="matrix(-1, 0, 0, 1, 7445.58, 0)" gradientUnits="userSpaceOnUse"><stop offset="0" stop-color="#ffc444"/><stop offset="1" stop-color="#f36f56"/></linearGradient><linearGradient id="linear-gradient-4" x1="7697.56" y1="-627.5" x2="7728.64" y2="-627.5" gradientTransform="matrix(-0.96, 0.27, 0.27, 0.96, 8023.46, -648.68)" xlink:href="#linear-gradient-2"/><linearGradient id="linear-gradient-5" x1="7030.78" y1="782.26" x2="7043.74" y2="782.26" xlink:href="#linear-gradient-3"/><linearGradient id="linear-gradient-6" x1="-2888.5" y1="736.31" x2="-2971.41" y2="549.41" gradientTransform="translate(3313.42)" gradientUnits="userSpaceOnUse"><stop offset="0" stop-color="#40447e"/><stop offset="1" stop-color="#3c3b6b"/></linearGradient><linearGradient id="linear-gradient-7" x1="-3237.18" y1="119.3" x2="-3320.09" y2="-67.6" gradientTransform="matrix(0.99, -0.12, 0.12, 0.99, 3582.49, 230.2)" xlink:href="#linear-gradient-6"/><linearGradient id="linear-gradient-8" x1="-3014.74" y1="441.89" x2="-2930.28" y2="846.96" xlink:href="#linear-gradient"/><linearGradient id="linear-gradient-9" x1="-3037.9" y1="697.89" x2="-3000.82" y2="521.78" xlink:href="#linear-gradient"/><linearGradient id="linear-gradient-10" x1="-3069.51" y1="405.37" x2="-3002.69" y2="725.79" xlink:href="#linear-gradient"/><linearGradient id="linear-gradient-11" x1="-2937.51" y1="544.85" x2="-2953.32" y2="500.06" gradientTransform="translate(3313.42)" gradientUnits="userSpaceOnUse"><stop offset="0" stop-color="#311944"/><stop offset="1" stop-color="#893976"/></linearGradient><linearGradient id="linear-gradient-12" x1="-3006.58" y1="479.95" x2="-3000.78" y2="520" xlink:href="#linear-gradient-11"/><linearGradient id="linear-gradient-13" x1="7106.25" y1="486.24" x2="7139.01" y2="486.24" xlink:href="#linear-gradient-3"/><linearGradient id="linear-gradient-14" x1="-2891.72" y1="483.46" x2="-2922.54" y2="439.69" gradientTransform="translate(3313.42)" xlink:href="#linear-gradient-2"/><linearGradient id="linear-gradient-15" x1="-2950.84" y1="555.89" x2="-2883.39" y2="418.88" xlink:href="#linear-gradient-11"/><linearGradient id="linear-gradient-16" x1="-2983.79" y1="467.95" x2="-2835.61" y2="467.95" xlink:href="#linear-gradient-11"/><linearGradient id="linear-gradient-17" x1="6965.47" y1="503" x2="6987.57" y2="503" xlink:href="#linear-gradient-3"/><linearGradient id="linear-gradient-18" x1="7132.81" y1="324.34" x2="7127.47" y2="415.11" xlink:href="#linear-gradient-3"/><linearGradient id="linear-gradient-19" x1="9044.94" y1="-599.13" x2="9024.03" y2="-652.24" gradientTransform="matrix(-0.94, 0.33, 0.33, 0.94, 9047.43, -2064.55)" gradientUnits="userSpaceOnUse"><stop offset="0" stop-color="#311944"/><stop offset="1" stop-color="#6b3976"/></linearGradient><linearGradient id="linear-gradient-20" x1="8932.17" y1="-437.29" x2="8958.97" y2="-437.29" gradientTransform="matrix(-0.94, 0.33, 0.33, 0.94, 8916.7, -2187.48)" xlink:href="#linear-gradient-3"/><linearGradient id="linear-gradient-21" x1="9038.55" y1="-596.58" x2="9017.62" y2="-649.75" xlink:href="#linear-gradient-19"/><linearGradient id="linear-gradient-22" x1="8934.75" y1="-432.69" x2="8940.64" y2="-432.69" gradientTransform="matrix(-0.94, 0.33, 0.33, 0.94, 8916.7, -2187.48)" xlink:href="#linear-gradient-3"/><linearGradient id="linear-gradient-23" x1="618.43" y1="747.8" x2="624.39" y2="855.05" gradientTransform="matrix(1, 0, 0, 1, 0, 0)" xlink:href="#linear-gradient-2"/><linearGradient id="linear-gradient-24" x1="629.68" y1="800.66" x2="626.52" y2="655.86" gradientTransform="matrix(1, 0, 0, 1, 0, 0)" xlink:href="#linear-gradient-3"/><linearGradient id="linear-gradient-25" x1="726.26" y1="741.82" x2="732.22" y2="849.06" gradientTransform="matrix(1, 0, 0, 1, 0, 0)" xlink:href="#linear-gradient-2"/><linearGradient id="linear-gradient-26" x1="724.62" y1="798.58" x2="721.46" y2="653.79" gradientTransform="matrix(1, 0, 0, 1, 0, 0)" xlink:href="#linear-gradient-3"/><linearGradient id="linear-gradient-27" x1="583.71" y1="706.55" x2="643.84" y2="625.84" gradientTransform="matrix(1, 0, 0, 1, 0, 0)" xlink:href="#linear-gradient"/><linearGradient id="linear-gradient-28" x1="50.83" y1="11.81" x2="72.66" y2="145.33" gradientTransform="translate(426.6 419.69) rotate(-11.19)" xlink:href="#linear-gradient-3"/><linearGradient id="linear-gradient-29" x1="628.38" y1="716.56" x2="769.22" y2="585.22" gradientTransform="matrix(1, 0, 0, 1, 0, 0)" xlink:href="#linear-gradient"/><linearGradient id="linear-gradient-30" x1="489.16" y1="418.66" x2="602.13" y2="418.66" gradientUnits="userSpaceOnUse"><stop offset="0" stop-color="#e38ddd"/><stop offset="1" stop-color="#9571f6"/></linearGradient><linearGradient id="linear-gradient-31" x1="726.78" y1="481.41" x2="685.07" y2="422.33" gradientTransform="matrix(1, 0, 0, 1, 0, 0)" xlink:href="#linear-gradient-2"/><linearGradient id="linear-gradient-32" x1="591.38" y1="712.26" x2="651.51" y2="631.56" gradientTransform="matrix(1, 0, 0, 1, 0, 0)" xlink:href="#linear-gradient"/><linearGradient id="linear-gradient-33" x1="489.16" y1="432.56" x2="602.13" y2="432.56" gradientTransform="matrix(1, 0, 0, 1, 0, 0)" xlink:href="#linear-gradient"/><linearGradient id="linear-gradient-34" x1="566.8" y1="487.37" x2="792.5" y2="487.37" xlink:href="#linear-gradient-30"/><linearGradient id="linear-gradient-35" x1="681.77" y1="356.26" x2="716.19" y2="566.77" gradientTransform="matrix(1, 0, 0, 1, 0, 0)" xlink:href="#linear-gradient"/><linearGradient id="linear-gradient-36" x1="643.96" y1="422.41" x2="733.98" y2="422.41" xlink:href="#linear-gradient-30"/><linearGradient id="linear-gradient-37" x1="624.55" y1="363.8" x2="661.35" y2="310.39" gradientTransform="matrix(1, 0, 0, 1, 0, 0)" xlink:href="#linear-gradient-3"/><linearGradient id="linear-gradient-38" x1="3434.22" y1="309.31" x2="3492.37" y2="274.3" gradientTransform="translate(-2285.48 -1518.46) rotate(27.35)" xlink:href="#linear-gradient-3"/><linearGradient id="linear-gradient-39" x1="637.06" y1="417.7" x2="662.96" y2="576.11" gradientTransform="matrix(1, 0, 0, 1, 0, 0)" xlink:href="#linear-gradient-3"/><linearGradient id="linear-gradient-40" x1="4584.17" y1="327.78" x2="4576.97" y2="294.8" gradientTransform="translate(-4481.2)" xlink:href="#linear-gradient-11"/><linearGradient id="linear-gradient-41" x1="-1740.02" y1="577.5" x2="-1829.34" y2="350.65" gradientTransform="matrix(-1, 0.01, 0.01, 1, -1708.64, 1.7)" xlink:href="#linear-gradient-2"/><linearGradient id="linear-gradient-42" x1="4613.59" y1="791.99" x2="4632.92" y2="791.99" gradientTransform="translate(-4416.84 24.89) rotate(-0.49)" xlink:href="#linear-gradient-2"/><linearGradient id="linear-gradient-43" x1="4620.63" y1="800.84" x2="4615.67" y2="769.09" gradientTransform="translate(-4416.84 24.89) rotate(-0.49)" xlink:href="#linear-gradient-11"/><linearGradient id="linear-gradient-44" x1="4538.22" y1="796.54" x2="4556.22" y2="796.54" gradientTransform="translate(-4416.84 24.89) rotate(-0.49)" xlink:href="#linear-gradient-2"/><linearGradient id="linear-gradient-45" x1="4541.7" y1="801.47" x2="4541.17" y2="772.21" gradientTransform="translate(-4416.84 24.89) rotate(-0.49)" xlink:href="#linear-gradient-11"/><linearGradient id="linear-gradient-46" x1="4582.93" y1="815.73" x2="4606.34" y2="627.39" gradientTransform="translate(-4416.84 24.89) rotate(-0.49)" xlink:href="#linear-gradient-6"/><linearGradient id="linear-gradient-47" x1="4582.73" y1="815.7" x2="4606.13" y2="627.37" gradientTransform="translate(-4416.84 24.89) rotate(-0.49)" xlink:href="#linear-gradient-6"/><linearGradient id="linear-gradient-48" x1="4504.05" y1="629.68" x2="4591.83" y2="685.54" gradientTransform="translate(-4416.84 24.89) rotate(-0.49)" xlink:href="#linear-gradient-6"/><linearGradient id="linear-gradient-49" x1="4725.4" y1="342.8" x2="4297.82" y2="880.61" gradientTransform="translate(-4481.2)" xlink:href="#linear-gradient-3"/><linearGradient id="linear-gradient-50" x1="4603.17" y1="359.47" x2="4573.91" y2="415.15" gradientTransform="translate(-4416.84 24.89) rotate(-0.49)" xlink:href="#linear-gradient-11"/><linearGradient id="linear-gradient-51" x1="4795.69" y1="1889.82" x2="4762.13" y2="1876.09" gradientTransform="translate(-4906.8 857.51) rotate(-27.09)" xlink:href="#linear-gradient-11"/><linearGradient id="linear-gradient-52" x1="4594.32" y1="354.96" x2="4281.5" y2="1405.12" gradientTransform="translate(-4453.77 25.2) rotate(-0.49)" xlink:href="#linear-gradient-3"/><linearGradient id="linear-gradient-53" x1="4720.56" y1="358.05" x2="4715.8" y2="336.27" gradientTransform="translate(-4481.2)" xlink:href="#linear-gradient-11"/><linearGradient id="linear-gradient-54" x1="4725.4" y1="385.26" x2="4431.41" y2="755.03" gradientTransform="translate(-4481.2)" xlink:href="#linear-gradient-3"/><linearGradient id="linear-gradient-55" x1="143.5" y1="131.64" x2="307.43" y2="131.64" gradientTransform="matrix(1, 0, 0, 1, 0, 0)" xlink:href="#linear-gradient-3"/><linearGradient id="linear-gradient-56" x1="236.61" y1="131.22" x2="307.43" y2="131.22" gradientTransform="matrix(1, 0, 0, 1, 0, 0)" xlink:href="#linear-gradient-3"/><linearGradient id="linear-gradient-57" x1="150.05" y1="130.76" x2="313.99" y2="130.76" gradientUnits="userSpaceOnUse"><stop offset="0" stop-color="#fcb148"/><stop offset="0.05" stop-color="#fdba46"/><stop offset="0.14" stop-color="#ffc244"/><stop offset="0.32" stop-color="#ffc444"/><stop offset="0.48" stop-color="#fdb946"/><stop offset="0.78" stop-color="#f99c4d"/><stop offset="0.87" stop-color="#f8924f"/><stop offset="1" stop-color="#f8924f"/></linearGradient><linearGradient id="linear-gradient-58" x1="302.76" y1="54.54" x2="397.89" y2="54.54" gradientTransform="matrix(1, 0, 0, 1, 0, 0)" xlink:href="#linear-gradient-3"/><linearGradient id="linear-gradient-59" x1="356.79" y1="54.3" x2="397.89" y2="54.3" gradientTransform="matrix(1, 0, 0, 1, 0, 0)" xlink:href="#linear-gradient-3"/><linearGradient id="linear-gradient-60" x1="306.57" y1="54.03" x2="401.69" y2="54.03" xlink:href="#linear-gradient-57"/></defs><g class="cls-1"><g id="Capa_1" data-name="Capa 1"><path class="cls-2" d="M505.68,89.71c-53-11.82-108.07-17.48-161.93-13.87C296,79,241.91,87.78,203.49,119.07c-18.3,14.91-40.14,41.71-46.12,65.35,0,0-31.52,124.43-94.56,151.09S-44,817.23,434,772.79c0,0,280.77-11.64,297.68-347.06,4.08-81,1.8-170.11-47.12-237.86-37.49-51.92-90-75-150.39-91.15Q520.08,92.93,505.68,89.71Z"/><path class="cls-3" d="M415.17,438.64c8.5-9.07-15-43.17-27.62-58.1-11-13.05-22.31-26.47-36.2-24.77-12.19,1.49-24.06,14.35-24.77,26.67C324.67,415.59,403.09,451.54,415.17,438.64Z"/><path class="cls-4" d="M313.12,789c-1.6,1.3-1.89,4.55-2.09,6.67a5.3,5.3,0,0,0,0,1.76c.77,2.44,5.51,2.7,12.94,3.46,11.74,1.2,15.24,2.12,16.16.38s-1.23-4.32-1.46-4.62c-1.26-1.59-2.81-2.17-5.8-3.15-5.54-1.83-9.29-2.82-10.42-3.13C315.35,788.45,314.17,788.12,313.12,789Z"/><path class="cls-5" d="M320.1,778.24l1.18,13.38c-.34.65-4.31,2.59-7.47.93l-3-13.16Z"/><path class="cls-6" d="M406.24,787.25c-1.91,2.12-2.35,6-.68,7.94s4.1.47,11.09.68c7.49.22,9.44,2,14.53.59,2.06-.57,5.69-2,5.62-3.42-.05-1-1.9-1.56-8.07-3.63-8.76-2.93-8.73-3.09-10.59-3.4C413.47,785.23,408.78,784.46,406.24,787.25Z"/><path class="cls-7" d="M411,775l3.76,12.49c-.29.67-4.1,2.91-7.38,1.49l-5.58-12.12Z"/><path class="cls-8" d="M377.67,501.45a1170.54,1170.54,0,0,0,37,277.23l-14.37,3.86c-12.16-11.33-27.49-29.17-34.89-54.39-4.59-15.65-3.06-23.69-6-42.94-4.64-30.65-14-46.7-23.74-71.42-8.73-22.21-19-54.8-24.57-98.37Z"/><path class="cls-9" d="M334.42,497.45q-4.4,80.09-7.17,163.13-2.06,62.29-3.05,123l-14.68,1.81a170.62,170.62,0,0,1-15.31-39.52c-5.23-21-4-33.4-6.31-55.12-2.57-24.35-6.31-29.66-12.92-60.39-13.43-62.36-20.15-93.54-5.17-112.94C274.68,511.14,289.92,495.34,334.42,497.45Z"/><path class="cls-10" d="M263.1,363.25a228,228,0,0,1,48.83-8.15c29.34-1.66,44-2.49,54.41,4.5,24,16.14,5.42,53.38,15.25,145.72,1.4,13.18,1.72,26.46,2.73,39.68,1.69,21.89,2.07,23.08.55,25.3-9.56,13.91-45.19-7.07-97.42,1.22-29.23,4.64-42.48,15.33-50.49,7.62-9.34-9-1.33-33.18,5.57-54,7.91-23.9,12.8-24.2,17.29-42.2,4.7-18.82,1.86-28.5,1.13-58.17A524.25,524.25,0,0,1,263.1,363.25Z"/><g class="cls-11"><path class="cls-12" d="M334.12,536.6c-13.65-1.07-22.51,6.65-34.29.63-16.16-8.25-21.35-33.91-20.32-52.07,1.56-27.6,17.32-34.87,14.6-52.71-1.46-9.65-8.35-22.45-33.08-35.54-.33,11-.27,20.4-.08,27.86.73,29.67,3.57,39.35-1.13,58.17-4.49,18-9.38,18.3-17.29,42.2-6.9,20.82-14.91,45-5.57,54,8,7.71,21.26-3,50.49-7.62,45-7.14,77.67,7.43,92,2.7C362.14,545.68,346.48,537.56,334.12,536.6Z"/></g><path class="cls-13" d="M281.72,365.15c-9.75-8-29.36,1.06-34.6,3.48-29.22,13.52-55.46,49.94-49,88.44,1,5.77,5.5,32.78,28.36,45.86,20.64,11.81,48.5,8.77,70.82-7.95l9.15-8.12,9-9.73a72,72,0,0,0-24-13.22c-14.84-4.79-25.65,3.8-32.53-2.73-4.76-4.51-4.77-12.47-3.59-17.3,2.36-9.73,10.94-12.46,18.1-19.37C290.29,408.29,293.39,374.74,281.72,365.15Z"/><polygon class="cls-14" points="421.83 490.82 291.15 488.87 325.9 505.64 422.17 499.34 421.83 490.82"/><path class="cls-15" d="M286.53,492.34h0a5.82,5.82,0,0,0,3.83,5.47l41.76,16.37.19-11.35-41.16-14A3.62,3.62,0,0,0,286.53,492.34Z"/><path class="cls-16" d="M306.66,484.61c-.8-.18,3.9-9.56,7.6-8.48S336,487.69,337.68,492l1.65,4.31s-7.89.62-12.78-1S313.18,486.06,306.66,484.61Z"/><path class="cls-17" d="M335.78,423.2l-9.21,83.87c-.32,2.9,3.73,7.21,6.64,7.07l135.13-8.3a4.74,4.74,0,0,0,4.45-3.93l17-81c.51-3-4.79-6-7.78-5.91l-141.62,4A4.74,4.74,0,0,0,335.78,423.2Z"/><path class="cls-18" d="M338.87,425.64l-9.22,83.88a4.75,4.75,0,0,0,4.94,5.25l136.84-6.48a4.75,4.75,0,0,0,4.45-3.93l14-81.38a4.74,4.74,0,0,0-4.8-5.54l-141.62,4A4.73,4.73,0,0,0,338.87,425.64Z"/><path class="cls-19" d="M419.22,488.64c-12-5.07-7.73-14.73-21.84-26.76-18.61-15.88-37.59-9-44.23-21.3-2.07-3.83-3.06-9.79.55-19.44l-10.26.28a4.73,4.73,0,0,0-4.57,4.22l-9.22,83.88a4.75,4.75,0,0,0,4.94,5.25l136.84-6.48a4.75,4.75,0,0,0,4.45-3.93l1.93-11.23a52,52,0,0,0-14.91-5.59C442.83,483.47,433,494.47,419.22,488.64Z"/><path class="cls-20" d="M480.05,496.56a1.07,1.07,0,0,0-1-1.41c-2.89-.15-9.6-.21-13.3,2.06-4.81,3-11,8.32-5.79,11l4.89,2.53a1,1,0,0,0,.71.1c1.74-.38,9.06-2,9.86-2.41S479,499.83,480.05,496.56Z"/><path class="cls-21" d="M314.11,324.26a96.56,96.56,0,0,1-1.71,19.2c-1,5.12-1.71,6.44-2.63,7.51-1.37,1.62-3.46,3-15.24,5.89-6.41,1.59-7.23,1.55-7.37,2.18-.69,3.1,16.78,13.68,34.84,11.13,11.05-1.56,21.1-7.86,20.49-11.17s-11.66-1.55-14.95-7.58c-2.29-4.19.28-10.14,3.31-15.07C327.91,330.85,317.05,329.77,314.11,324.26Z"/><path class="cls-22" d="M332.16,323a11.62,11.62,0,0,0-4.6-12.52c-3.53-2.26-7.52-1.37-9.92-.84-6.94,1.55-14.39,7.26-15.18,14.41-.47,4.24,5.9,10.5,7,11.66s2.59,1.41,4.11,2.19c2.11,1.07,5.42,2.79,10.86,5.7a28.59,28.59,0,0,1-.05-5.05,25.36,25.36,0,0,1,1.32-6.42C327.66,326.72,330.9,327,332.16,323Z"/><path class="cls-23" d="M317.5,342s6.89,5.67,15.42,2.07c7.64-3.23,2.7-21.16-3.59-23.14-2.09-.66-5.61,0-8.06,1.68-1.45,1-1.76,1.86-4.15,3.46-2.21,1.47-3,1.44-3.51,2.31-.65,1.09-.66,3.22,2.65,7.81-2-1-4-.95-5.07.09a2.85,2.85,0,0,0-.69,1.38C310.1,340,312.82,342,317.5,342Z"/><path class="cls-24" d="M312.89,327.46c.48.15-.19,2,.42,4,1.17,3.93,6.7,7.21,10.82,6.21,2.44-.58,2.6-2.23,6.36-4a18.82,18.82,0,0,1,5.8-1.64c2.7,3.81,3,8.44.86,11.38-2.32,3.17-6.66,3.24-8.47,3.27-1.22,0-5.11.1-8-2.47s-1.9-5.34-4.86-6.84c-1.5-.75-3.11-.75-5.29-2.46a11.88,11.88,0,0,1-1.3-1.21C310.46,330.83,312.21,327.24,312.89,327.46Z"/><path class="cls-25" d="M334,334.55a10.14,10.14,0,0,1-4.36,2.32c-.14,0-.29.14-.28.22,0,.3,2.33.89,3.89-.2,1.1-.76,1.65-2.26,1.39-2.49S334.25,334.41,334,334.55Z"/><path class="cls-26" d="M633.35,785.94s.75,5.93.25,7.91-17.74,3.43-23.59,2.74,3.49-6.67,7.21-7.79S633.35,785.94,633.35,785.94Z"/><path class="cls-27" d="M624.68,776.05l1.81,11.89s4.64,2.09,6.86,0l.25-12.45Z"/><path class="cls-28" d="M721.84,775.52s-3.65,2.71-2.68,6,9.51,16.28,15.59,20,4.18-4,2.41-8.8-6.29-15.36-8.06-17.13S721.84,775.52,721.84,775.52Z"/><path class="cls-29" d="M715.27,762.45c1.76,4.93,3.46,9,4.79,12,3,6.61,4.55,9.09,6.38,11.24,1.58,1.88,5.35,5.87,6.36,5.21s-1.73-5.54-7-19.77c-.77-2.07-3.2-8.65-3.2-8.65h-7.3Z"/><path class="cls-30" d="M588.58,556.54a308,308,0,0,0-.66,54.94c2.36,30.4,8.43,49.64,16.06,82,4.66,19.81,10.93,49,16.61,85.43a16.09,16.09,0,0,0,10.19,2,15.32,15.32,0,0,0,6.12-2.32c14.91-45.55,10.51-73.77,3.31-91.35-3.06-7.5-6.78-13.41-8.77-24.94-2.63-15.24.63-23.76,5.26-59.07,3.31-25.17,2.73-29.06.53-32.83C628.45,555.35,601.57,555.64,588.58,556.54Z"/><path class="cls-31" d="M495.89,429.09s-2.1-8.21-5.58-10.37-8.4-4.48-9.53-5.43-2.44,1.89.81,4.06l3.25,2.18a3.34,3.34,0,0,1-.14,1.4c-.51,1.54-2.27,2.59-4.44,2.79-8.33,1.75-11.59,1.83-12.86,1.46-.19-.05-.91-.29-1.22,0-.49.52.39,2.16.77,2.73,2.25,3.44,10.08,4.94,15.94,2.25,2.14-1,3-2,4.53-1.78,2.48.43,4,3.7,4.9,6.41Z"/><path class="cls-32" d="M639.88,561.83C649,609,658,633.75,664.76,647.76a235.12,235.12,0,0,1,12.52,30.58,250.23,250.23,0,0,1,7.62,29.13c3.15,14.45,10.93,35.56,31.86,63.24.26.15,3.83,2.17,7.24.37a7,7,0,0,0,2.93-3c-2.73-26.47-5.88-48.71-8.6-65.87-.58-3.6-3.09-19.35-7.05-40.16-1.54-8.14-3.81-20.07-6.52-32.33-3.38-15.26-8.57-36-16.55-60.9Z"/><path class="cls-33" d="M489.16,431.69l7.12-6.33c.87.88,13.54,13.24,31.26,9.49,12.19-2.58,19.23-12.59,23.73-19,13.54-19.21,5.44-33.3,20-46.35,4-3.62,12-8,17.17-6.67C600.83,366,608,403.23,596,432.48c-2.42,5.9-15.72,38.41-45.89,41.94C525.72,477.26,499.89,460.09,489.16,431.69Z"/><path class="cls-34" d="M632.1,375.32c-5.17-4.79-15.08-10.31-20.05-23.13-1.5-3.86-6.79-17.54,1-28,4.64-6.21,13.26-10.43,20.86-8.94,6.49,1.28,7.5,5.8,18.53,14.9,4.29,3.54,11.19,9.23,18.87,12.4,13.16,5.42,21.07.32,34.28.9,16.23.71,35.08,9.77,44.16,22.94,16.12,23.38-7.23,47.09,10.43,74.47,5.78,9,8.63,7,22.34,24.33s20.58,26.09,19.36,36.74c-1.69,14.79-17.62,28.92-32.62,29.88-14.65.93-24-10.59-31.42-5.55-5.31,3.59-2.28,10.57-7.92,19-7.27,10.82-21.55,13-23.86,13.32-21.42,3.23-50.29-21.88-62.56-51.63C621.41,453.24,660.26,401.34,632.1,375.32Z"/><path class="cls-35" d="M640.21,687.28c-3.06-7.5-6.78-13.41-8.77-24.94-2.63-15.24.63-23.76,5.26-59.07,3.31-25.17,2.73-29.06.53-32.83-4.77-8.2-14.89-11.84-25.22-13.33.14.53.28,1.06.39,1.57,5.42,24.75-15.27,39.85-5.94,67.06,4.6,13.41,11.94,16.49,13.65,32,1.6,14.57-4.21,17.61-3,30.85,1.85,19.81,15.92,24.6,19.58,39.76,2.38,9.86.37,24.27-17,45.12.29,1.8.58,3.6.86,5.44a16.09,16.09,0,0,0,10.19,2,15.32,15.32,0,0,0,6.12-2.32C651.81,733.08,647.41,704.86,640.21,687.28Z"/><path class="cls-36" d="M585.69,398.46c-22.3,17.61-19.82,51.4-33.53,53.11-4.18.52-3.95-2.69-13.94-5.93-14.61-4.75-21.47,0-31.75-3.57-4.25-1.49-9.79-4.68-15.24-12.21l-2.07,1.83c10.73,28.4,36.56,45.57,60.93,42.73,30.17-3.53,43.47-36,45.89-41.94,5.62-13.72,7-29.2,5.67-42.09A46.71,46.71,0,0,0,585.69,398.46Z"/><path class="cls-37" d="M569.52,371.75c1.36-2.12,5.71-8,24.15-12.34,9.24-2.17,26.32-5.89,48.31-1.23,30.2,6.4,49,24.52,56.08,32.13a75.67,75.67,0,0,0-29.71,37.14c-2.47,6.8-9.75,30,.66,51.8,6,12.54,16.62,22,24.68,29.11,12.09,10.73,18.35,12.38,22.41,22,4.41,10.46,0,15.56,5.44,22.73,5.89,7.69,12.79,4.11,22.77,11.9,10.22,8,6.58,14.52,15.89,23.33,13.51,12.8,31.43,8.64,32.27,14.4.72,4.95-12,11.67-22.84,14.4-21.43,5.39-40.12-3.67-45.68-6.46-15.38-7.73-12.73-12.73-24.46-18.63-19.64-9.86-33.07,1.12-77.81,2.25-24.23.61-36.48.75-43.2-7.45-6.13-7.49-2.9-15.7.78-51.1h0c1.18-11.82,3.65-36.58,3.67-50.68,0-8.34-2.88-22-8.67-49.2-.34-1.6-3.47-16.32-6-36C566,382.16,566.32,376.72,569.52,371.75Z"/><g class="cls-38"><path class="cls-39" d="M760.2,588.31c-9.31-8.81-5.67-15.37-15.89-23.33-10-7.79-16.88-4.21-22.77-11.9-5.48-7.17-1-12.27-5.44-22.73-4.06-9.61-10.32-11.26-22.41-22-8.06-7.15-18.68-16.57-24.68-29.11-10.41-21.77-3.13-45-.66-51.8a75.67,75.67,0,0,1,29.71-37.14c-.56-.6-1.22-1.28-1.92-2-38.19,5.25-60.45,27.32-63.21,33.85-6.36,15.11,3.71,20.66,4,64.22.13,20.82-2.12,29,4.64,37.73,7.72,9.94,16.63,6.86,27.8,19.86,8.59,10,7.21,16.31,15.23,20.52,8.62,4.52,14.11-.75,23.83,1.32,16.24,3.47,19.71,22.19,30.45,32.44C747,606,762,611.4,791.59,605.59a4.16,4.16,0,0,0,.88-2.88C791.63,597,773.71,601.11,760.2,588.31Z"/></g><path class="cls-40" d="M644.52,433.9c-4.06,8.62,14.59,28.7,35.32,38.24,4.23,1.94,34.57,15.89,48.09,2.48,11.17-11.09,4-34,1.38-42.19-12.64-40.18-51.45-60.61-67.72-68-12.14,30.35-5,43.88-2.18,48.1,2.94,4.42,11.15,13.69,19.86,21.85,6.13,5.74,10,8.54,9.43,9.43-.64,1.12-7.82-1-35.73-14.57C649.74,429.78,645.9,431,644.52,433.9Z"/><path class="cls-41" d="M629.58,334.57s1.93,15.4,7.61,18.93,14.87,8.13,15.88,9.38S617.87,368,599.92,359h0c5.92-1.24,7.53-1.69,7.53-1.69a33.37,33.37,0,0,0,7.6-3,25.74,25.74,0,0,0,8.35-7.73l-.06-8.52Z"/><path class="cls-42" d="M629.34,341.47s-5.63,2.82-9.81-1.73c-3.75-4.08,5.18-14.59,9.55-14.05a7.28,7.28,0,0,1,4.62,3.25c.71,1.2,1.72,6.16-1.93,9.25,1.34.27,2.21,1.11,2.17,1.82-.05.9-1.56,1.39-1.9,1.5A4.36,4.36,0,0,1,629.34,341.47Z"/><path class="cls-43" d="M651.56,431.89s-17-17.41-23.93-20-2.77,1.19,0,3.36,4.61,2.89,3.2,6.19-4,6.24.06,8.83,5.64,3.58,8.81,4l3.16.4,4.16,2.21S652.36,436.24,651.56,431.89Z"/><path class="cls-44" d="M83.46,294.52A15.05,15.05,0,0,0,86.78,286c.31-5.13-.42-15.39,7.12-13.4s11.52.52,9.63,6.39c0,0,2.31,6-4.81,8.86s-8.07,10.3-8.07,10.3Z"/><path class="cls-45" d="M2,396.79c.88-19.35,13.18-31.74,16.25-34.74,18.34-17.91,44.23-17.22,52.52-17,29.4.79,36,15.39,56.55,9.95,17.36-4.59,18.7-16.67,33.65-17.48,15.63-.86,32,11.36,38.58,25.24,12.65,26.77-7.09,68.48-35.26,81.07-29.27,13.08-45.1-15.35-98.76-7-19.57,3.06-31,9-43.72,1.8C7.92,430.82,1.31,412.22,2,396.79Z"/><path class="cls-46" d="M205,770.93a5.84,5.84,0,0,0-1.53,4.07,2.52,2.52,0,0,0,1,2,39.42,39.42,0,0,0,9.17,5.1c6.7,2.72,9,2.46,9.23,1.34s-3.19-4.12-6.16-6.75S205,770.93,205,770.93Z"/><path class="cls-47" d="M202.78,760.55s2.2,10.11,2.05,13.8c0,0,2.7,2.35,6.48-.05,0,0-2-9.23-1.1-13.07Z"/><path class="cls-48" d="M130.22,775a5.84,5.84,0,0,0-2.08,3.82,2.54,2.54,0,0,0,.71,2.11,40,40,0,0,0,8.37,6.32c6.26,3.62,8.53,3.67,9,2.6s-2.59-4.52-5.16-7.54S130.22,775,130.22,775Z"/><path class="cls-49" d="M127,765.73s2.2,10.1,2,13.8c0,0,2.69,2.34,6.48-.06,0,0-2-9.22-1.1-13.07Z"/><path class="cls-50" d="M227.32,548.83c.9,30.39.75,63-.95,97.55C224.25,689.55,220,729.56,214.62,766a29.23,29.23,0,0,1-14.18.48c-1-4.29-2.46-10.83-4.42-18.77-3.54-14.38-4.39-16.29-5.5-21.23-4.61-20.5,1.17-26.36-1.82-47.52-.66-4.64-.92-4.23-7.32-26.54-8-27.82-12-41.72-13.93-52.37-5.11-28.6-7.67-42.9.27-51.79C178.09,536.66,202.46,538.25,227.32,548.83Z"/><path class="cls-51" d="M207.74,748.7c-3.41-9.41,2.39-14.26,2.22-30.53-.15-14-4.51-15.75-6-31.51-1.31-14.46,1.85-18.6,2.57-31.95,1.35-25.15-8.65-33.5-10.74-52.76-1.43-13.26.81-32.58,18.28-57.9-19.92-5.95-37.88-5.32-46.4,4.23-7.94,8.89-5.38,23.19-.27,51.79,1.91,10.65,5.94,24.55,13.93,52.37,6.4,22.31,6.66,21.9,7.32,26.54,3,21.16-2.79,27,1.82,47.52,1.11,4.94,2,6.85,5.5,21.23,2,7.94,3.46,14.48,4.42,18.77a29.23,29.23,0,0,0,14.18-.48q.49-3.35,1-6.72A24.58,24.58,0,0,1,207.74,748.7Z"/><path class="cls-52" d="M194.67,547c-11.92,33.22-23.51,70.13-33.74,110.49-10,39.24-17.23,76.21-22.55,110.26a19.3,19.3,0,0,1-16,.24,181.41,181.41,0,0,1-10.8-38.35c-1.64-9.94-3.43-20.77-2.23-34.71,1.6-18.52,6.67-21.49,8.88-39.8,1.66-13.69-.65-16.37-1.37-36.17-1.11-30.7-1.69-46.52,5.9-57.51C139.08,537.82,186.77,545.6,194.67,547Z"/><path class="cls-53" d="M235.44,551.75c-3.58-20.23-.66-19.23-4-42.59-4.4-30.59-9.89-35.65-12.51-57.14-1.55-12.7-5.75-43.49.06-67.85-12.47-2.91-25.8-3.85-55.93.88a90.15,90.15,0,0,0-10.83,2.38c-3.11-1.89-7.42.4-15.56.41-18.51,0-34.56-11.8-41.81-20.25-15-17.51-15.46-47.59-.22-73.76l-12.81-.44c-2.76,2.83-39.08,41-27.3,77.12C61.19,391,82,406.74,83.45,407.81c13.34,9.9,21.33,9.32,34.75,22.89,3.79,3.83,9,9.75,12.22,10.92,12.36,21.61,12.2,34.76,8.18,43.18s-11.66,11.37-19.73,28.09-4.6,22.21-11.84,29.5c-13,13.08-32.77,4-37,12.91-4.18,8.8,10.74,26.39,25.88,35.18,12,7,23.53,8.06,31.66,8.76,14.77,1.26,17.18-1.91,41.95-4,18.55-1.57,29-2.45,43-.48,19.35,2.74,25.5,8.15,30.12,4.26C248.71,593.89,240.59,580.87,235.44,551.75Z"/><path class="cls-54" d="M165.42,363.58c1,2.58,2.25,8.27-.49,13.45-2.4,4.52-6.91,6.54-8.72,7.37-4.36,2-7,1.44-7.11,2.26-.24,1.84,12.28,7.64,25.17,4.93,7.57-1.58,14.72-6,14.22-8.43-.56-2.73-10.29-.75-13.69-6-2.17-3.37-.8-8.22.92-12.11C173.2,363,168,365.67,165.42,363.58Z"/><path class="cls-55" d="M166.06,369.66s6.44,2.87,11.56-1.83c4.59-4.21-3.73-17-8.74-17.16a7.12,7.12,0,0,0-5.3,3.09c-.77,1.1-.76,1.83-2.05,3.61-1.18,1.63-1.75,1.78-1.89,2.57-.17,1,.38,2.65,4,5.48-1.71-.32-3.12.16-3.6,1.2a2.28,2.28,0,0,0-.13,1.23C160.24,369.79,162.7,370.68,166.06,369.66Z"/><g class="cls-56"><path class="cls-57" d="M139.77,568.9c10.73-21.63,37.93-23.75,39.15-41,.89-12.6-13.47-14.31-19.17-32.46-8.57-27.3,17.16-44.85,8-63.61-6.22-12.81-19.73-7.74-51.15-24.18C102,400,78.71,387.82,65.32,363.46a83.67,83.67,0,0,1-9.43-28.81c-3.85,11.22-5.36,23.65-1.38,35.86C61.19,391,82,406.74,83.45,407.81c13.34,9.9,21.33,9.32,34.75,22.89,3.79,3.83,9,9.75,12.22,10.92,12.36,21.61,12.2,34.76,8.18,43.18s-11.66,11.37-19.73,28.09-4.6,22.21-11.84,29.5c-13,13.08-32.77,4-37,12.91-4.18,8.8,10.74,26.39,25.88,35.18,12,7,23.53,8.06,31.66,8.76a65,65,0,0,0,9.38.19C134.23,585.71,136.27,576,139.77,568.9Z"/></g><path class="cls-58" d="M226.92,326.75s6.46-8.21,8.42-4.95,7,12.55,2.14,15.1S227.28,335.07,226.92,326.75Z"/><path class="cls-59" d="M183.47,381.23s38.38-1.24,54.84,9.5c20.9,13.64,7.26-31.4-9.15-48.73,8.88-10.42,11.41-10.59,11.41-10.59s79.35,72.69,28.84,96.65-74.15-2.3-74.15-2.3Z"/><path class="cls-60" d="M293.49,152.19c7,.59,13.25-5.09,13.89-12.7s-4.54-14.26-11.57-14.85c-.36,0-.72,0-1.08,0a79.25,79.25,0,0,0-1.83-11.52c.34-.14.67-.28,1-.45,6.4-3.29,9.2-11.54,6.24-18.42s-10.55-9.8-17-6.51c-.33.17-.65.37-1,.56a74.28,74.28,0,0,0-6.93-8.89c.23-.3.46-.61.67-.94,4.07-6.29,2.69-14.9-3.07-19.21s-13.74-2.72-17.8,3.58c-.21.32-.4.65-.58,1a63.87,63.87,0,0,0-10.17-3.88c.07-.39.12-.77.16-1.17.64-7.61,2-16.19-5-16.68C223.22,41,219.69,49,219.05,56.6c0,.39,0,.78,0,1.17a65.78,65.78,0,0,0-10.68,2.13c-.12-.35-.25-.71-.4-1.07-3-6.88-2.42-11.47-9.14-8.89-14.67,5.62-17,13.93-14,20.81a11.15,11.15,0,0,0,.51,1,73,73,0,0,0-8.32,7.62c-.28-.25-.56-.5-.86-.72-5.77-4.32-13.74-2.72-17.81,3.58s-2.69,14.89,3.07,19.21c.3.22.6.41.91.6a79.84,79.84,0,0,0-3.73,11.06,9.5,9.5,0,0,0-1.07-.15c-7-.6-13.25,5.09-13.89,12.7s4.54,14.26,11.57,14.85c.36,0,.72,0,1.08,0A79.25,79.25,0,0,0,158,152.09c-.33.14-.67.28-1,.45-6.4,3.29-9.2,11.54-6.24,18.42s10.55,9.8,17,6.51c.33-.17.65-.37,1-.57a72.53,72.53,0,0,0,6.92,8.9c-.23.3-.46.61-.67.94C170.9,193,172.28,201.63,178,206s18.24,2.34,22.31-3.95c.21-.32-4.11-.28-3.93-.62a63.91,63.91,0,0,0,10.17,3.89c-.07.39-.12.77-.16,1.17-.64,7.6,4.54,14.25,11.57,14.84s13.24-5.09,13.88-12.7c0-.4,0-.79,0-1.17a64.74,64.74,0,0,0,10.68-2.14c.12.36.25.72.4,1.07,3,6.89,10.55,9.8,16.95,6.51s9.2-11.54,6.24-18.43c-.15-.36-.33-.7-.5-1a72.7,72.7,0,0,0,8.31-7.61c.28.25.56.49.86.72,5.77,4.32,13.74,2.71,17.81-3.58s2.69-14.89-3.07-19.21c-.3-.22-.6-.42-.91-.61A79.26,79.26,0,0,0,292.42,152C292.77,152.1,293.13,152.16,293.49,152.19ZM221.25,182.6c-25.51-2.14-44.3-26.28-42-53.9s24.9-48.28,50.41-46.13,44.3,26.29,42,53.91S246.76,184.75,221.25,182.6Z"/><path class="cls-61" d="M293.9,112.64c6.4-3.29,9.2-11.54,6.24-18.42s-10.55-9.8-17-6.51c-.33.17-.65.37-1,.56a74.28,74.28,0,0,0-6.93-8.89c.23-.3.46-.61.67-.94,4.07-6.29,7.2-18.78,1-22.48-11.72-7-17.83.55-21.89,6.85-.21.32-.4.65-.58,1a63.87,63.87,0,0,0-10.17-3.88c.07-.39.12-.77.16-1.17A14.33,14.33,0,0,0,241,48q-2.35,17.85-4.4,35.73c21.89,5.51,37.16,27.69,35.05,52.75-1.79,21.23-15.54,38.33-33.39,44.14,0,2.32.1,4.65.08,7-.06,6.31-.47,12.63-.89,18.94q2.61-.53,5.14-1.26c.12.36.25.72.4,1.07,3,6.89,9.57,11.07,21.35,5.54,6.52-3.06,4.8-10.57,1.84-17.46-.15-.36-.33-.7-.5-1a72.7,72.7,0,0,0,8.31-7.61c.28.25.56.49.86.72,5.77,4.32,18.7,1.89,22.77-4.4s-2.27-14.07-8-18.39c-.3-.22-.6-.42-.91-.61A79.26,79.26,0,0,0,292.42,152c.35.06.71.12,1.07.15,7,.59,13.25-5.09,13.89-12.7s-4.54-14.26-11.57-14.85c-.36,0-.72,0-1.08,0a79.25,79.25,0,0,0-1.83-11.52C293.24,113,293.57,112.81,293.9,112.64Z"/><path class="cls-62" d="M300.05,150.36c7,.59,13.24-5.1,13.88-12.7s-4.53-14.26-11.56-14.85a9.74,9.74,0,0,0-1.08,0,80.64,80.64,0,0,0-1.83-11.52c.33-.14.66-.28,1-.45,6.41-3.29,9.2-11.54,6.24-18.42s-10.55-9.8-16.95-6.51a10.21,10.21,0,0,0-1,.56,72.5,72.5,0,0,0-6.93-8.89c.23-.31.46-.62.68-.94,4.06-6.3,2.69-14.9-3.08-19.21s-13.73-2.72-17.8,3.57c-.21.33-.39.66-.57,1a65.26,65.26,0,0,0-10.17-3.89c.06-.38.12-.77.15-1.16.64-7.61-4.53-14.25-11.56-14.85s-13.24,5.1-13.88,12.71c0,.39,0,.78-.05,1.17a64.82,64.82,0,0,0-10.67,2.13c-.12-.36-.25-.71-.4-1.07-3-6.88-10.55-9.79-17-6.5s-9.2,11.54-6.24,18.42c.16.36.33.7.51,1a73.81,73.81,0,0,0-8.32,7.61c-.28-.24-.56-.49-.86-.71-5.76-4.32-13.73-2.72-17.8,3.58s-2.7,14.89,3.07,19.21c.29.22.6.41.9.6a81.05,81.05,0,0,0-3.73,11c-.35-.06-.71-.12-1.07-.15-7-.59-13.24,5.1-13.88,12.71s4.53,14.25,11.56,14.85c.36,0,.72,0,1.08,0a80.64,80.64,0,0,0,1.83,11.52c-.33.13-.66.28-1,.44-6.41,3.3-9.2,11.54-6.24,18.43s10.55,9.8,17,6.51c.34-.18.66-.37,1-.57a73.37,73.37,0,0,0,6.93,8.9c-.24.3-.46.61-.68.94-4.06,6.29-2.69,14.89,3.07,19.21s13.74,2.71,17.81-3.58c.21-.32.39-.65.57-1a65.26,65.26,0,0,0,10.17,3.89c-.06.38-.12.77-.15,1.16-.64,7.61,4.53,14.26,11.56,14.85s13.24-5.1,13.88-12.7c0-.4,0-.79,0-1.18a63.79,63.79,0,0,0,10.67-2.13c.12.36.25.72.4,1.07,3,6.89,10.55,9.8,17,6.51s9.2-11.54,6.24-18.43c-.16-.36-.33-.7-.51-1a72.87,72.87,0,0,0,8.32-7.61c.28.25.56.49.86.72,5.76,4.31,13.73,2.71,17.8-3.58s2.7-14.89-3.07-19.21c-.29-.22-.6-.42-.91-.61a79.29,79.29,0,0,0,3.74-11C299.33,150.27,299.68,150.33,300.05,150.36Zm-72.24,30.41c-25.51-2.15-44.31-26.28-42-53.9s24.89-48.28,50.4-46.13,44.31,26.28,42,53.91S253.32,182.92,227.81,180.77Z"/><path class="cls-63" d="M389.8,66.46c4.08.35,7.68-2.95,8.06-7.37s-2.64-8.27-6.71-8.61c-.22,0-.42,0-.63,0a47.35,47.35,0,0,0-1.06-6.69c.19-.08.38-.16.57-.26a8.38,8.38,0,0,0,3.62-10.69,7.1,7.1,0,0,0-9.83-3.77c-.2.1-.38.21-.57.32a42,42,0,0,0-4-5.16c.14-.17.27-.35.4-.54a8.39,8.39,0,0,0-1.79-11.15,7.11,7.11,0,0,0-10.33,2.08,6.48,6.48,0,0,0-.33.57,37.81,37.81,0,0,0-5.9-2.26c0-.22.07-.44.09-.67.37-4.42,1.17-9.4-2.91-9.68C349,1.91,347,6.58,346.6,11c0,.22,0,.45,0,.68a38,38,0,0,0-6.2,1.23c-.07-.21-.14-.41-.23-.62-1.72-4-1.41-6.66-5.31-5.16-8.5,3.26-9.86,8.08-8.15,12.08a5.59,5.59,0,0,0,.3.6,42.9,42.9,0,0,0-4.83,4.42c-.16-.14-.33-.29-.5-.42a7.11,7.11,0,0,0-10.33,2.08A8.4,8.4,0,0,0,313.11,37l.53.35a46.89,46.89,0,0,0-2.17,6.41,6.17,6.17,0,0,0-.62-.09c-4.08-.34-7.68,3-8.06,7.38s2.64,8.27,6.71,8.61c.21,0,.42,0,.63,0a47.21,47.21,0,0,0,1.06,6.68l-.57.26A8.41,8.41,0,0,0,307,77.36a7.11,7.11,0,0,0,9.84,3.77,5.15,5.15,0,0,0,.56-.33,43.3,43.3,0,0,0,4,5.17q-.2.25-.39.54a8.4,8.4,0,0,0,1.79,11.15c3.34,2.5,10.58,1.36,12.94-2.29.12-.19-2.39-.17-2.28-.36a37.78,37.78,0,0,0,5.9,2.25c0,.23-.07.45-.09.68-.37,4.41,2.63,8.27,6.71,8.61s7.68-3,8.06-7.37c0-.23,0-.45,0-.68a38,38,0,0,0,6.2-1.23c.07.2.14.41.23.62a7.11,7.11,0,0,0,9.84,3.77A8.41,8.41,0,0,0,374,91a5.59,5.59,0,0,0-.3-.6A42.9,42.9,0,0,0,378.49,86c.16.14.32.28.5.42a7.11,7.11,0,0,0,10.33-2.08,8.4,8.4,0,0,0-1.78-11.15,6.06,6.06,0,0,0-.53-.35,46.89,46.89,0,0,0,2.17-6.41A6.17,6.17,0,0,0,389.8,66.46ZM347.88,84.11c-14.8-1.25-25.71-15.25-24.36-31.28s14.45-28,29.25-26.76,25.71,15.25,24.36,31.28S362.68,85.36,347.88,84.11Z"/><path class="cls-64" d="M390,43.51a8.38,8.38,0,0,0,3.62-10.69,7.1,7.1,0,0,0-9.83-3.77c-.2.1-.38.21-.57.32a42,42,0,0,0-4-5.16c.14-.17.27-.35.4-.54,2.36-3.65,4.17-10.9.59-13.05-6.81-4.07-10.35.33-12.71,4a6.48,6.48,0,0,0-.33.57,37.81,37.81,0,0,0-5.9-2.26c0-.22.07-.44.09-.67a8.28,8.28,0,0,0-2-6.23Q358,16.36,356.79,26.74c12.7,3.2,21.56,16.07,20.34,30.61-1,12.32-9,22.24-19.38,25.61,0,1.35.06,2.7.05,4,0,3.66-.27,7.33-.51,11,1-.2,2-.44,3-.72.07.2.14.41.23.62,1.71,4,5.55,6.42,12.39,3.21C376.67,99.33,375.67,95,374,91a5.59,5.59,0,0,0-.3-.6A42.9,42.9,0,0,0,378.49,86c.16.14.32.28.5.42,3.34,2.5,10.85,1.09,13.21-2.56s-1.32-8.16-4.66-10.67a6.06,6.06,0,0,0-.53-.35,46.89,46.89,0,0,0,2.17-6.41,6.17,6.17,0,0,0,.62.08c4.08.35,7.68-2.95,8.06-7.37s-2.64-8.27-6.71-8.61c-.22,0-.42,0-.63,0a47.35,47.35,0,0,0-1.06-6.69C389.65,43.69,389.84,43.61,390,43.51Z"/><path class="cls-65" d="M393.6,65.4c4.08.34,7.69-3,8.06-7.37S399,49.76,395,49.41c-.21,0-.42,0-.63,0a46,46,0,0,0-1.06-6.69c.19-.08.39-.16.58-.26a8.4,8.4,0,0,0,3.62-10.69A7.12,7.12,0,0,0,387.62,28c-.19.1-.38.22-.56.33a43.19,43.19,0,0,0-4-5.16c.13-.18.27-.36.39-.55a8.39,8.39,0,0,0-1.78-11.14,7.1,7.1,0,0,0-10.33,2.07c-.12.19-.23.38-.34.58a37.44,37.44,0,0,0-5.9-2.26c0-.22.07-.45.09-.67.37-4.42-2.63-8.28-6.71-8.62s-7.68,3-8,7.37c0,.23,0,.46,0,.68a37.7,37.7,0,0,0-6.19,1.24,6.62,6.62,0,0,0-.24-.62,7.1,7.1,0,0,0-9.83-3.78,8.41,8.41,0,0,0-3.63,10.7c.09.2.2.4.3.6A42.82,42.82,0,0,0,326,23.17a5,5,0,0,0-.5-.42,7.1,7.1,0,0,0-10.33,2.08A8.38,8.38,0,0,0,316.92,36c.17.13.34.24.52.36a45.11,45.11,0,0,0-2.16,6.41q-.31-.06-.63-.09c-4.07-.34-7.68,3-8,7.37s2.63,8.27,6.71,8.62c.21,0,.42,0,.63,0A45.81,45.81,0,0,0,315,65.34a6,6,0,0,0-.58.26,8.39,8.39,0,0,0-3.62,10.69,7.11,7.11,0,0,0,9.84,3.78,6.32,6.32,0,0,0,.56-.33,42.19,42.19,0,0,0,4,5.16c-.14.18-.27.36-.39.55a8.39,8.39,0,0,0,1.78,11.15,7.11,7.11,0,0,0,10.33-2.08q.18-.28.33-.57a37.78,37.78,0,0,0,5.9,2.25c0,.22-.07.45-.09.68-.37,4.41,2.64,8.27,6.71,8.61s7.69-3,8.06-7.37c0-.23,0-.45,0-.68a36.6,36.6,0,0,0,6.2-1.24,6.56,6.56,0,0,0,.23.62,7.11,7.11,0,0,0,9.84,3.78,8.39,8.39,0,0,0,3.62-10.69c-.09-.21-.19-.41-.29-.61a41.79,41.79,0,0,0,4.82-4.41l.5.41a7.1,7.1,0,0,0,10.33-2.07,8.39,8.39,0,0,0-1.78-11.15c-.17-.13-.35-.24-.52-.35A47,47,0,0,0,393,65.31C393.19,65.35,393.39,65.38,393.6,65.4ZM351.68,83.05C336.88,81.8,326,67.8,327.32,51.77s14.45-28,29.25-26.77,25.71,15.25,24.36,31.28S366.49,84.3,351.68,83.05Z"/><path class="cls-66" d="M678.13,129.52,401,128.86a8.26,8.26,0,0,0-8.46,8.07V280.58A8.05,8.05,0,0,0,401,288.5l1.67,0,1.92-3.1L679,279c4.28-.09,7,0,7-4.23V137.28A7.83,7.83,0,0,0,678.13,129.52Z"/><path class="cls-67" d="M395.21,145.93V280.58a8.07,8.07,0,0,0,8.45,7.92l277.09-5.86a8,8,0,0,0,7.75-7.91V145.89Z"/><path class="cls-68" d="M680.75,129.52l-277.09-.66a8.24,8.24,0,0,0-8.45,8.07v13.8l293.29-.25v-13.2A7.77,7.77,0,0,0,680.75,129.52Z"/><path class="cls-69" d="M414.59,139.65a3.75,3.75,0,1,1-3.74-3.6A3.66,3.66,0,0,1,414.59,139.65Z"/><polygon class="cls-69" points="453.47 269.9 432.15 270.3 432.15 169.78 453.47 169.71 453.47 269.9"/><polygon class="cls-68" points="453.47 269.9 432.15 270.3 432.15 222.58 453.47 222.33 453.47 269.9"/><polygon class="cls-69" points="482.92 269.36 461.78 269.75 461.78 169.68 482.92 169.6 482.92 269.36"/><polygon class="cls-68" points="482.92 269.36 461.78 269.75 461.78 245.99 482.92 245.68 482.92 269.36"/><polygon class="cls-69" points="512.11 268.81 491.15 269.2 491.15 169.57 512.11 169.49 512.11 268.81"/><polygon class="cls-68" points="512.11 268.81 491.15 269.2 491.15 256.79 512.11 256.44 512.11 268.81"/><polygon class="cls-69" points="541.04 268.28 520.27 268.66 520.27 169.46 541.04 169.39 541.04 268.28"/><polygon class="cls-68" points="541.04 268.28 520.27 268.66 520.27 190.95 541.04 190.81 541.04 268.28"/><polygon class="cls-69" points="569.73 267.75 549.13 268.13 549.13 169.36 569.73 169.28 569.73 267.75"/><polygon class="cls-68" points="569.73 267.75 549.13 268.13 549.13 199.54 569.73 199.38 569.73 267.75"/><polygon class="cls-69" points="598.17 267.22 577.75 267.6 577.75 169.25 598.17 169.18 598.17 267.22"/><polygon class="cls-68" points="598.17 267.22 577.75 267.6 577.75 183.55 598.17 183.43 598.17 267.22"/><polygon class="cls-69" points="626.36 266.69 606.12 267.07 606.12 169.15 626.36 169.07 626.36 266.69"/><polygon class="cls-68" points="626.36 266.69 606.12 267.07 606.12 206.92 626.36 206.73 626.36 266.69"/><polygon class="cls-69" points="654.32 266.18 634.25 266.55 634.25 169.04 654.32 168.97 654.32 266.18"/><polygon class="cls-68" points="654.32 266.18 634.25 266.55 634.25 232.7 654.32 232.43 654.32 266.18"/></g></g></svg>