<svg id="Capa_1" data-name="Capa 1" xmlns="http://www.w3.org/2000/svg" xmlns:xlink="http://www.w3.org/1999/xlink" viewBox="0 0 805 805"><defs><style>.cls-1,.cls-14,.cls-15,.cls-16,.cls-18,.cls-19,.cls-4,.cls-5,.cls-9{fill:none;}.cls-2{clip-path:url(#clip-path);}.cls-3{fill:#ffefd7;}.cls-15,.cls-4,.cls-9{stroke:#471c54;}.cls-14,.cls-15,.cls-16,.cls-18,.cls-19,.cls-4,.cls-9{stroke-linecap:round;stroke-linejoin:round;}.cls-16,.cls-18,.cls-19,.cls-4{stroke-width:6px;}.cls-5{stroke:#e1e4e5;stroke-miterlimit:10;stroke-width:4px;}.cls-6{fill:#29141d;}.cls-7{fill:#a94db2;}.cls-8{fill:#471c54;}.cls-10{fill:url(#linear-gradient);}.cls-11{fill:#7e89fd;}.cls-12{fill:#5b3d71;}.cls-13{fill:#e3706d;}.cls-14{stroke:#a94db2;}.cls-15{stroke-width:2px;}.cls-16{stroke:url(#linear-gradient-2);}.cls-17{fill:#d8dee8;}.cls-18{stroke:url(#linear-gradient-3);}.cls-19{stroke:url(#linear-gradient-4);}.cls-20{fill:url(#linear-gradient-5);}.cls-21{fill:#816aa0;}.cls-22{fill:#481b52;}</style><clipPath id="clip-path"><path class="cls-1" d="M511.5,97.5c55.61,41.34,89.59,56.77,131.55,120.42,23,34.9,38.23,77.94,61.65,112.36,21.63,31.79,49.8,55.52,68.8,90.15,20.44,37.27,28.54,84.44,29,130.52s-12.91,91.22-12.91,136.94c0,65.61-64,82.75-78.07,88.61-106.23,44.16-198.36-23-308.22.84-78.56,17.06-153.35,33.73-232,17.42C95.46,779,37.25,689.84,15.54,592.22,1.21,527.8-3.23,457.12,12.08,393.09c21.46-89.75,53.68-151.63,78.57-247.95C127.5,2.5,293.22-64.76,511.5,97.5Z"/></clipPath><linearGradient id="linear-gradient" x1="95.15" y1="410.12" x2="454.37" y2="410.12" gradientUnits="userSpaceOnUse"><stop offset="0" stop-color="#aa80f9"/><stop offset="1" stop-color="#6165d7"/></linearGradient><linearGradient id="linear-gradient-2" x1="616.5" y1="686.72" x2="763.5" y2="686.72" gradientUnits="userSpaceOnUse"><stop offset="0" stop-color="#444b8c"/><stop offset="1" stop-color="#26264f"/></linearGradient><linearGradient id="linear-gradient-3" x1="468.4" y1="619.89" y2="619.89" xlink:href="#linear-gradient-2"/><linearGradient id="linear-gradient-4" x1="217.5" y1="692.72" x2="474.4" y2="692.72" xlink:href="#linear-gradient-2"/><linearGradient id="linear-gradient-5" x1="-2757.93" y1="538.33" x2="-2623.27" y2="264.79" gradientTransform="translate(3313.42)" gradientUnits="userSpaceOnUse"><stop offset="0" stop-color="#311944"/><stop offset="1" stop-color="#893976"/></linearGradient></defs><g class="cls-2"><path class="cls-3" d="M511.5,97.5c55.61,41.34,89.59,56.77,131.55,120.42,23,34.9,38.23,77.94,61.65,112.36,21.63,31.79,49.8,55.52,68.8,90.15,20.44,37.27,28.54,84.44,29,130.52s-12.91,91.22-12.91,136.94c0,65.61-64,82.75-78.07,88.61-106.23,44.16-198.36-23-308.22.84-78.56,17.06-153.35,33.73-232,17.42C95.46,779,37.25,689.84,15.54,592.22,1.21,527.8-3.23,457.12,12.08,393.09c21.46-89.75,53.68-151.63,78.57-247.95C127.5,2.5,293.22-64.76,511.5,97.5Z"/><line class="cls-4" x1="217.95" y1="726.17" x2="217.95" y2="806.5"/><path class="cls-4" d="M256.44,656.25,227.21,397.16a58.4,58.4,0,0,0-58.4-58.4H76.24a58.4,58.4,0,0,0-58.4,58.4L51.89,698.91H185.5"/><path class="cls-4" d="M170.41,313.49H88.26a38.2,38.2,0,0,1-38.08-38.08h0a38.2,38.2,0,0,1,38.08-38.08h82.15a38.2,38.2,0,0,1,38.08,38.08h0A38.2,38.2,0,0,1,170.41,313.49Z"/><path class="cls-5" d="M244.23,568.82h74.18a19.93,19.93,0,0,1,19.87,19.87h0a19.92,19.92,0,0,1-19.87,19.86H251.06"/><path class="cls-4" d="M346.14,698.91h-258V676.53a20.28,20.28,0,0,1,20.28-20.28H325.86a20.28,20.28,0,0,1,20.28,20.28Z"/><rect class="cls-4" x="185.61" y="698.91" width="64.68" height="27.27"/><path class="cls-6" d="M349.83,566.33S610.5,568.5,684.5,789.5l-48,5-45-7L339,685.14Z"/><path class="cls-7" d="M606,487.58c-4-15.51.93-36.93-12.87-48.13-7.58-6.15-20.79-6.75-30.21-5.1-7.2,1.26-49,20.11-58.24,27.41,0,0-27.72,1.95-78.08-62l-59.85,63S436.78,558,505.44,543.85c31.56-6.52,50.53-23.57,60.41-41.09.18,3.11.79,6,2.57,6.94,8.86,4.52,11.86-18.73,14.49-22.44-.08,4.94-3,25.15.79,27,7.08,3.49,11.78-23.31,12-27.57,2.53,5,1.73,18,7.22,21.14,3.89,2.23,7.46-1.73,7.6-5.77C610.73,497.27,607.19,492.24,606,487.58Z"/><path class="cls-8" d="M426.57,399.73l-59.85,63a290.6,290.6,0,0,0,25.79,29.41c23.29-27.71,61.86-61,61.86-61h0A322.53,322.53,0,0,1,426.57,399.73Z"/><path class="cls-9" d="M561.9,448.67c-5.22,1.14-9.22,9.51-10.36,14.35-1,4.37-4.43,7.11-6.82,10.88-1.7,2.69-3.45,7.9.37,9.53,3.21,1.36,6.59-1.49,8.86-3.33s7.08-8.67,8.09-10.65c.2,8.2-9,20.57-9.82,29-.22,2.3-.39,6.41,2.58,6.81,2.76.37,5.63-3.59,7-5.4a69.12,69.12,0,0,0,8.77-18.29c-.65,4.1-3.51,18.9-4.43,23.71"/><path class="cls-9" d="M504.65,461.76s-12.8,4.08-16,8.76"/><path class="cls-10" d="M334.57,256.75S260.32,228.8,166.13,301c-82.5,63.24-70.35,267.81-70.35,267.81H348.84s5.66-85.91,12.48-105.54l17.59,19.86s36.31-55,75.46-55c0,0-15.46-11.34-25-37.44S419,288,334.57,256.75Z"/><path class="cls-11" d="M429.34,390.66c-8.39-22.87-10-84.47-67-120.37l-1.18-.37c-87.27-28.25-130.81,30.88-130.81,30.88-53.82,1.77-38.19,145.13-38.19,145.13L188,568.82h160.8s5.66-85.91,12.48-105.54l17.59,19.86s36.31-55,75.46-55C454.37,428.1,438.91,416.76,429.34,390.66Z"/><path class="cls-9" d="M288.69,251.25s-.26,80,46.46,87.2c37,5.68,30.28-69.66,30.28-69.66"/><path class="cls-9" d="M372.11,376.35c-7.21,33.77-10.79,74.45-10.79,74.45"/><path class="cls-9" d="M225.43,298.59s44.17,16.86,39.57,51.5c-5.53,41.7,7.24,82,7.24,82"/><path class="cls-9" d="M253.51,300.8s14.76,13.82,15.32,25.17"/><path class="cls-8" d="M106,568.82s-2.27,83.41,61.28,98.16,182.56,30.64,182.56,30.64l4.67,95.88,117-11s70.28-160.91-17.12-197.23S106,568.82,106,568.82Z"/><path class="cls-12" d="M498.15,652.51c-.56-27.53-11.22-53.71-43.77-67.24-55-22.83-178.57-23.45-262.76-20.77,1.41,5.73,10.37,32.57,55.51,40.92,50.64,9.36,153.62-11.92,190.22,24.68C459.63,652.38,482.16,656.11,498.15,652.51Z"/><path class="cls-8" d="M434.37,188.8c21.28-3.83,15.75-36.17,5.11-26.38s-40.43-9.79-57-11.92-21.28,11.92-21.28,11.92-12.34-5.11-21,10.64,4,28.51,2.69,41.28-8.51,11.49-7.66,21.7a9.26,9.26,0,0,0,6.47,8.42h0l.18.07.06,0c2.66,1,27.75,10.17,46.27,1.92,15.11-6.74,30.21-34.6,36.32-47,13,4.37,26.14-4.39,27.3-9.43C453.1,184.55,434.37,188.8,434.37,188.8Z"/><path class="cls-13" d="M382.46,272.21l-23-36.17L326.3,254.47a135,135,0,0,0-25.58-3c.83,11,6.88,74.83,34.43,78.46,15.29,2,20.2-17.51,21.33-37.24Z"/><path class="cls-7" d="M369.34,282.55l13.12-10.34-23-36.17S352.65,261.36,369.34,282.55Z"/><path class="cls-13" d="M420.75,197.85c-14-7.77-28.27-2.66-28.27-2.66S387.4,209,375.91,216.54A16.55,16.55,0,0,0,368.7,227l-.43,2.09-6.95-1.42S363,212.31,351.24,212c-4.22.23-7.29,1.18-9.86,4.51-6.54,8.46.94,23.06,13.15,24.32,8,23.86,33.52,43.57,52.61,39.43,13-2.84,30-48.29,22.21-79.74A22.63,22.63,0,0,1,420.75,197.85Z"/><path class="cls-14" d="M354.79,228.8s2.55-12.86-6.8-12.12a5.31,5.31,0,0,0-4.69,3.86"/><path class="cls-9" d="M422,223.41s3.41,21.88-.71,26.47S408.27,246,408.27,246"/><path class="cls-9" d="M405,257.21s-6.81.28-9.36-5.54"/><path class="cls-15" d="M398.77,209.51s16.17,8.8,19.15,8.09,2.41-5.25,2.41-5.25"/><line class="cls-15" x1="425.15" y1="219.58" x2="433.52" y2="219.58"/><path class="cls-8" d="M272.24,432.08s-111.92,7.86-132.35,48.47,132.84-36.49,132.84-36.49Z"/><path class="cls-13" d="M162.73,459.31s61.85-34,109.51-27.23c0,0-2.27,28.37,13.62,27.23s112.34-55.6,153.76-18.16A25.54,25.54,0,0,0,462,449.67s10.64-1.71,8.51,7.23-16.17,7.66-16.17,7.66,31.49,13.19,28.09,31.49S468,483.28,448,480.73c0,0,18.72,17.87,6.38,29.79s-8.51-19.15-24.25-25.11c0,0,7.23,25-5.11,27.81s-1.7-19.72-11.49-25.68c0,0,1.7,14-8.09,14.47s.43-15.75-8.08-23.41c0,0-11.91,5.59-20.64,1.95,0,0-77.66,95.5-149.16,75.5S162.73,459.31,162.73,459.31Z"/><path class="cls-7" d="M272.73,444.06a58.58,58.58,0,0,1-.49-12c-47.66-6.81-109.51,27.23-109.51,27.23s-2.22,25.54,9.63,51c27.91-38.81,100.37-66.24,100.37-66.24Z"/><path class="cls-9" d="M376.71,480.55s-10-3.37-11.28-12"/><path class="cls-9" d="M282.88,457.62s-31.49,8.22-35.75,26.51"/><rect class="cls-12" x="366.68" y="536.76" width="311.91" height="13.92"/><rect class="cls-6" x="457.95" y="536.76" width="220.64" height="13.92"/><polyline class="cls-16" points="619.5 794.5 683.6 578.93 760.5 578.93 760.5 760.5"/><rect class="cls-17" x="205.37" y="550.5" width="574.13" height="25"/><line class="cls-18" x1="471.4" y1="619.89" x2="760.5" y2="619.89"/><polyline class="cls-19" points="220.5 806.5 288.69 578.93 471.39 578.93 471.39 774.5"/><path class="cls-4" d="M141.68,608.55H27.37A19.92,19.92,0,0,1,7.5,588.69h0a19.93,19.93,0,0,1,19.87-19.87H141.68a19.93,19.93,0,0,1,19.87,19.87h0A19.92,19.92,0,0,1,141.68,608.55Z"/></g><polygon class="cls-12" points="776.52 457.09 490.7 457.09 506.08 256.46 791.9 256.46 776.52 457.09"/><polygon class="cls-7" points="497.72 457.09 490.7 457.09 506.08 256.46 513.1 256.46 497.72 457.09"/><path class="cls-20" d="M497.5,456.5s277.72,1,279,0c0,0,14.57-199.57,15-200h-278Z"/><polygon class="cls-21" points="694.72 538.2 643.26 538.2 627.88 442.8 679.34 442.8 694.72 538.2"/><rect class="cls-21" x="560.19" y="538.2" width="169.99" height="13.57"/><rect class="cls-12" x="627.3" y="538.2" width="102.88" height="13.57"/><polygon class="cls-22" points="685.76 432.55 608.07 432.55 612.11 387.7 689.79 387.7 685.76 432.55"/><polygon class="cls-6" points="685.76 432.55 679.34 432.55 679.34 387.7 689.79 387.7 685.76 432.55"/></svg>