<svg xmlns="http://www.w3.org/2000/svg" xmlns:xlink="http://www.w3.org/1999/xlink" viewBox="0 0 305 260"><defs><style>.cls-1{isolation:isolate;}.cls-2{fill:#e2f9d2;}.cls-3{fill:#bfc8d6;}.cls-4,.cls-6{fill:#fff;}.cls-5{fill:#d8dee8;}.cls-6{opacity:0.48;mix-blend-mode:soft-light;}.cls-7{fill:url(#linear-gradient);}.cls-8{fill:url(#linear-gradient-2);}.cls-9{fill:url(#linear-gradient-3);}.cls-10{fill:url(#linear-gradient-4);}.cls-11{fill:url(#linear-gradient-5);}.cls-12{fill:url(#linear-gradient-6);}.cls-13{fill:url(#linear-gradient-7);}.cls-14{opacity:0.37;mix-blend-mode:multiply;fill:url(#linear-gradient-8);}.cls-15{fill:url(#linear-gradient-9);}</style><linearGradient id="linear-gradient" x1="33.02" y1="207.91" x2="302.5" y2="207.91" gradientUnits="userSpaceOnUse"><stop offset="0.49" stop-color="#ebeff2"/><stop offset="1" stop-color="#fff"/></linearGradient><linearGradient id="linear-gradient-2" x1="162.7" y1="710.16" x2="231.62" y2="603.17" gradientTransform="matrix(1, 0, 0, -1, 0, 784.54)" gradientUnits="userSpaceOnUse"><stop offset="0" stop-color="#ffc444"/><stop offset="1" stop-color="#f36f56"/></linearGradient><linearGradient id="linear-gradient-3" x1="174.2" y1="122.88" x2="178.47" y2="29.5" gradientTransform="matrix(1, 0, 0, 1, 0, 0)" xlink:href="#linear-gradient-2"/><linearGradient id="linear-gradient-4" x1="164.13" y1="110.62" x2="206.14" y2="203.65" gradientTransform="matrix(1, 0, 0, 1, 0, 0)" xlink:href="#linear-gradient-2"/><linearGradient id="linear-gradient-5" x1="140.04" y1="132.26" x2="93.31" y2="137.22" gradientTransform="matrix(1, 0, 0, 1, 0, 0)" xlink:href="#linear-gradient-2"/><linearGradient id="linear-gradient-6" x1="195.83" y1="52.61" x2="131.93" y2="184.75" gradientUnits="userSpaceOnUse"><stop offset="0" stop-color="#fff"/><stop offset="1" stop-color="#ebeff2"/></linearGradient><linearGradient id="linear-gradient-7" x1="164.23" y1="110.69" x2="206.18" y2="203.6" gradientTransform="matrix(1, 0, 0, 1, 0, 0)" xlink:href="#linear-gradient-2"/><linearGradient id="linear-gradient-8" x1="176.47" y1="105.05" x2="218.47" y2="198.08" gradientTransform="matrix(1, 0, 0, 1, 0, 0)" xlink:href="#linear-gradient-2"/><linearGradient id="linear-gradient-9" x1="140.9" y1="80.76" x2="212.54" y2="80.76" gradientUnits="userSpaceOnUse"><stop offset="0" stop-color="#aa80f9"/><stop offset="1" stop-color="#6165d7"/></linearGradient></defs><g class="cls-1"><g id="Capa_1" data-name="Capa 1"><path class="cls-2" d="M22.5,248C-7.93,221.72,8,192.68,14.5,141c4.37-34.45-44.19-56.47,27-113,68-54,187-10,201,70,9.68,55.33,83.33,116.64,7,137.2-21.51,5.79-39,3.54-82,7.8C133.5,246.37,44.5,267,22.5,248Z"/><path class="cls-3" d="M302.5,205.92,33,203.59v6.89a3.66,3.66,0,0,0,2.77,3.75L112,227.8a10.86,10.86,0,0,0,2.73.13l184.85-15.48a3.48,3.48,0,0,0,2.93-3.65Z"/><path class="cls-3" d="M203.33,194.88,32.06,207.49a5.2,5.2,0,0,1-5.56-5.36V74.59a5.67,5.67,0,0,1,5.56-5.77H203.33c2.53,0,4.57,2.34,4.57,5.21v115.3C207.9,192.21,205.86,194.69,203.33,194.88Z"/><path class="cls-4" d="M206.06,194.88,34.79,207.49a5.2,5.2,0,0,1-5.56-5.36V74.59a5.67,5.67,0,0,1,5.56-5.77H206.06c2.53,0,4.57,2.34,4.57,5.21v115.3C210.63,192.21,208.59,194.69,206.06,194.88Z"/><path class="cls-5" d="M200.73,186.75,41.2,197.7a4.26,4.26,0,0,1-4.52-4.39V81.64a4.64,4.64,0,0,1,4.52-4.72l159.53-.69a4,4,0,0,1,3.76,4.27V182.2A4.4,4.4,0,0,1,200.73,186.75Z"/><path class="cls-4" d="M126.47,72.31a2,2,0,1,1-2-2.14A2.06,2.06,0,0,1,126.47,72.31Z"/><path class="cls-6" d="M34.79,207.49,205.2,194.94l.86-.06a4.63,4.63,0,0,0,3-1.53c-12.26-.67-19.88-5-24.79-9.52-9.87-9-8.16-17.93-18.8-23.87-13.27-7.41-23.71,2-33.78-7.28-6.1-5.61-3.1-9.8-10.62-18.19-8.32-9.29-13.74-6.17-22.1-14.53-10.57-10.57-5.28-18.79-14.39-26.39-11-9.2-23-.68-33.48-9.51-4.54-3.81-7-9.35-8.33-15.24h-8a5.67,5.67,0,0,0-5.56,5.77V202.13A5.2,5.2,0,0,0,34.79,207.49Z"/><path class="cls-7" d="M214.13,194.18,33,207.45l79,14.06a10.41,10.41,0,0,0,2.73.13L302.5,205.92,217,194.27A13.86,13.86,0,0,0,214.13,194.18Z"/><polygon class="cls-5" points="59.45 207.56 210.23 196.35 256.89 202.66 107.41 214.65 59.45 207.56"/><path class="cls-8" d="M186,51.71l44.43,45.95c-.7.79-1.83.8-2.95.73l-104.87-7a4,4,0,0,1-2.59-1.28l58.38-39.53A5.91,5.91,0,0,1,186,51.71Z"/><path class="cls-9" d="M186.82,137.35l43.83-39.48a3.84,3.84,0,0,0-2.76-1.5L123,90a3.62,3.62,0,0,0-2.65.94l58.9,46.58A5.76,5.76,0,0,0,186.82,137.35Z"/><path class="cls-10" d="M186.82,137.35a5.76,5.76,0,0,1-7.58.2L120.34,91a4.47,4.47,0,0,0-1.43,3.34v75.52a4.22,4.22,0,0,0,4.24,4.44l104.9-6.8a4.09,4.09,0,0,0,3.61-4.27V100.81a4.71,4.71,0,0,0-1-2.94Z"/><path class="cls-11" d="M226.1,96.33,121.18,90a4,4,0,0,0-4.08,4.28V169.8a4.23,4.23,0,0,0,4.23,4.44l104.93-6.8a4.11,4.11,0,0,0,3.61-4.28V100.77A4.29,4.29,0,0,0,226.1,96.33Z"/><path class="cls-5" d="M226.73,166.82V48.17a21.47,21.47,0,0,0-3.24-11.3L120.36,27.79l-1.54,1.47a21.23,21.23,0,0,1,3.5,11.47V169.12Z"/><path class="cls-12" d="M228.73,165.45V46.71c0-7.07-1.34-7.89-3.45-11.31L120.36,27.79a21.07,21.07,0,0,1,3.38,11.49V167.74Z"/><path class="cls-13" d="M231.65,100.81V163.2a4.08,4.08,0,0,1-3.6,4.27l-6.58.43-98.25,6.38a4.17,4.17,0,0,1-4.15-4.45V94.32c0-.09-.07-.18-.07-.26s0-.21,0-.32a.86.86,0,0,1,0-.16,0,0,0,0,0,0,0,2.23,2.23,0,0,0,0-.23c0-.07,0-.14,0-.2a1.68,1.68,0,0,1,.09-.32,4.12,4.12,0,0,1,.23-.58l.14-.25a1.4,1.4,0,0,1,.1-.16l.12-.19.14-.18s.09-.11.14-.17l.18-.18.14-.13,58.89,46.59a5.78,5.78,0,0,0,7.58-.21l43.83-39.48a4.43,4.43,0,0,1,.74,1.35,2.38,2.38,0,0,1,.11.38,1.05,1.05,0,0,1,.05.19l0,.17a1.18,1.18,0,0,1,0,.2c0,.07,0,.14,0,.21A3.24,3.24,0,0,1,231.65,100.81Z"/><path class="cls-14" d="M231.65,100.81V163.2a4.08,4.08,0,0,1-3.6,4.27l-6.58.43a15.15,15.15,0,0,0-5.13-7.65c-8.28-6-18.24,4.85-28-1.12-7-4.25-4.26-11.21-12.72-17.32-8-5.79-12.85-1.29-18.47-7.32-5.39-5.8-2.69-11.86-8.85-17.28-3.19-2.82-4-1.22-11.2-5.17-7.76-4.23-8.65-7.06-12.7-7.52a9.41,9.41,0,0,0-5.33.93V94.32c0-.09-.07-.18-.07-.26s0-.21,0-.32a.86.86,0,0,1,0-.16,0,0,0,0,0,0,0,2.23,2.23,0,0,0,0-.23c0-.07,0-.14,0-.2a1.68,1.68,0,0,1,.09-.32,4.12,4.12,0,0,1,.23-.58l.14-.25a1.4,1.4,0,0,1,.1-.16l.12-.19.14-.18s.09-.11.14-.17l.18-.18.14-.13,58.89,46.59a5.78,5.78,0,0,0,7.58-.21l43.83-39.48a4.43,4.43,0,0,1,.74,1.35c0,.12.08.25.11.38a1.05,1.05,0,0,1,.05.19l0,.17a1.18,1.18,0,0,1,0,.2c0,.07,0,.14,0,.21A3.24,3.24,0,0,1,231.65,100.81Z"/><path class="cls-15" d="M212.54,78a32.69,32.69,0,0,1-1.92,11.46,18.44,18.44,0,0,1-5.48,8.07,12.24,12.24,0,0,1-8.28,2.82,10.32,10.32,0,0,1-5.62-1.68,9.24,9.24,0,0,1-3.54-4.23H187a14.55,14.55,0,0,1-12,5.49q-7.81-.17-12.37-5.06t-4.58-13.3q0-9.56,6-15.15c4-3.7,9.14-5.4,15.46-5.11a53.52,53.52,0,0,1,8.24,1.11,44.16,44.16,0,0,1,7.34,2.08l-1,21.57q0,6.15,3.25,6.23c1.82,0,3.27-1.29,4.34-4a29.43,29.43,0,0,0,1.61-10.7A27.21,27.21,0,0,0,200.48,65a21.17,21.17,0,0,0-8.06-8.7,25.55,25.55,0,0,0-12-3.49,30,30,0,0,0-15.5,2.94,23.42,23.42,0,0,0-10.25,10.37,35,35,0,0,0-3.6,16.29q0,12.56,6.66,19.39t19,7a55.45,55.45,0,0,0,10.16-.9A64.12,64.12,0,0,0,197.63,105v8.47a50.53,50.53,0,0,1-20.56,3.84c-11.2-.09-20-3.19-26.46-9.32s-9.71-14.73-9.71-25.6a41.31,41.31,0,0,1,5-20.31,33.27,33.27,0,0,1,14-13.68,38.6,38.6,0,0,1,20.44-4,36.79,36.79,0,0,1,17,4.94A29.58,29.58,0,0,1,208.6,61.1,35.51,35.51,0,0,1,212.54,78Zm-44.12,4.07c0,6.32,2.54,9.55,7.59,9.68a6.75,6.75,0,0,0,6-2.68q2-2.77,2.48-9.12l.56-9.81a22.94,22.94,0,0,0-5-.69q-5.49-.23-8.55,3.15T168.42,82.07Z"/></g></g></svg>