<svg xmlns="http://www.w3.org/2000/svg" xmlns:xlink="http://www.w3.org/1999/xlink" viewBox="0 0 305 260"><defs><style>.cls-1{fill:none}.cls-2{isolation:isolate}.cls-3{fill:#c7ecf9}.cls-4{fill:url(#linear-gradient)}.cls-5{fill:url(#linear-gradient-2)}.cls-6{fill:url(#linear-gradient-3)}.cls-7{fill:#d8dee8}.cls-8,.cls-9{fill:#fff}.cls-9{opacity:.48;mix-blend-mode:soft-light}.cls-10{fill:url(#linear-gradient-4)}.cls-11,.cls-13,.cls-16,.cls-21{opacity:.3;mix-blend-mode:multiply}.cls-11{fill:url(#linear-gradient-5)}.cls-12{fill:url(#linear-gradient-6)}.cls-13{fill:url(#linear-gradient-7)}.cls-14{fill:url(#linear-gradient-8)}.cls-15{fill:url(#linear-gradient-9)}.cls-16{fill:url(#linear-gradient-10)}.cls-17{fill:url(#linear-gradient-11)}.cls-18{fill:url(#linear-gradient-12)}.cls-19{clip-path:url(#clip-path)}.cls-20{fill:url(#linear-gradient-13)}.cls-21{fill:url(#linear-gradient-14)}</style><linearGradient id="linear-gradient" x1="144.9" x2="125.74" y1="212.24" y2="220.29" gradientUnits="userSpaceOnUse"><stop offset="0" stop-color="#40447e"/><stop offset="1" stop-color="#3c3b6b"/></linearGradient><linearGradient id="linear-gradient-2" x1="113.72" x2="93.84" y1="127.03" y2="135.37" xlink:href="#linear-gradient"/><linearGradient id="linear-gradient-3" x1="29.66" x2="210.77" y1="131.84" y2="131.84" xlink:href="#linear-gradient"/><linearGradient id="linear-gradient-4" x1="29.66" x2="302.5" y1="203.78" y2="203.78" xlink:href="#linear-gradient"/><linearGradient id="linear-gradient-5" x1="56.42" x2="256.33" y1="201.52" y2="201.52" xlink:href="#linear-gradient"/><linearGradient id="linear-gradient-6" x1="-2522.5" x2="-2558.15" y1="762.05" y2="804.1" gradientTransform="translate(2771.72 281.33) rotate(20.31)" gradientUnits="userSpaceOnUse"><stop offset="0" stop-color="#311944"/><stop offset="1" stop-color="#893976"/></linearGradient><linearGradient id="linear-gradient-7" x1="-2526.89" x2="-2562.55" y1="758.33" y2="800.38" xlink:href="#linear-gradient-6"/><linearGradient id="linear-gradient-8" x1="-947.61" x2="-976.39" y1="-252.06" y2="-218.11" gradientTransform="matrix(-0.98, 0.18, 0.18, 0.98, -811.56, 506.19)" gradientUnits="userSpaceOnUse"><stop offset="0" stop-color="#e38ddd"/><stop offset="1" stop-color="#9571f6"/></linearGradient><linearGradient id="linear-gradient-9" x1="-2304.81" x2="-2271.91" y1="-299.36" y2="-117.35" gradientTransform="translate(2460.93 -103.19) rotate(-10.55)" gradientUnits="userSpaceOnUse"><stop offset="0" stop-color="#aa80f9"/><stop offset="1" stop-color="#6165d7"/></linearGradient><linearGradient id="linear-gradient-10" x1="-2316.07" x2="-2282.76" y1="-299.03" y2="-114.76" xlink:href="#linear-gradient-9"/><linearGradient id="linear-gradient-11" x1="-1066.04" x2="-1131.58" y1="-273.7" y2="-196.4" gradientTransform="matrix(-1, 0, 0, 1, -873.16, 309.01)" xlink:href="#linear-gradient-8"/><linearGradient id="linear-gradient-12" x1="-1061.45" x2="-1124.64" y1="-236" y2="-234.39" gradientTransform="matrix(-0.98, 0.18, 0.18, 0.98, -811.56, 506.19)" xlink:href="#linear-gradient-6"/><clipPath id="clip-path"><path d="M236.53,132.4c3.4-.64,6.48-2.69,9.15-6.09a39.19,39.19,0,0,0,6.43-13.94c3.27-12.15,3.45-27.58.49-43.43s-8.67-30.19-16.09-40.35a38.88,38.88,0,0,0-11-10.68c-3.71-2.22-7.32-3-10.72-2.4s-6.48,2.69-9.15,6.09a39.19,39.19,0,0,0-6.43,13.94c-3.27,12.15-3.45,27.58-.49,43.43s8.67,30.19,16.09,40.35a38.88,38.88,0,0,0,11,10.68C229.52,132.22,233.13,133,236.53,132.4Z" class="cls-1"/></clipPath><linearGradient id="linear-gradient-13" x1="-2260.76" x2="-2239.28" y1="-293.61" y2="-174.78" gradientTransform="translate(2460.93 -103.19) rotate(-10.55)" gradientUnits="userSpaceOnUse"><stop offset="0" stop-color="#ffc444"/><stop offset="1" stop-color="#f36f56"/></linearGradient><linearGradient id="linear-gradient-14" x1="-2248.37" x2="-2232.52" y1="-278.3" y2="-190.62" xlink:href="#linear-gradient-13"/></defs><g class="cls-2"><g id="Capa_1" data-name="Capa 1"><path d="M152.5,22C94.91,24.22,9.52-34.95,4.2,47.59S9.6,250.31,69.5,255s185-2.83,205-52S308.5,16,152.5,22Z" class="cls-3"/><path d="M302.5,201.73l-272.84-2.4v7.1a3.75,3.75,0,0,0,2.81,3.85l77.15,14a10.64,10.64,0,0,0,2.76.14l187.16-15.93a3.58,3.58,0,0,0,3-3.77Z" class="cls-4"/><path d="M203.49,190.23l-171,13a5.26,5.26,0,0,1-5.55-5.51V66.39a5.76,5.76,0,0,1,5.55-5.94h171c2.52,0,4.56,2.4,4.56,5.37v118.7C208.05,187.48,206,190,203.49,190.23Z" class="cls-5"/><path d="M206.22,190.23l-171,13a5.26,5.26,0,0,1-5.55-5.51V66.39a5.76,5.76,0,0,1,5.55-5.94h171c2.52,0,4.55,2.4,4.55,5.37v118.7C210.77,187.48,208.74,190,206.22,190.23Z" class="cls-6"/><path d="M200.89,181.86,41.62,193.13a4.31,4.31,0,0,1-4.52-4.52v-115a4.73,4.73,0,0,1,4.52-4.87l159.27-.7c2.08,0,3.76,2,3.76,4.39V177.18C204.65,179.62,203,181.71,200.89,181.86Z" class="cls-7"/><path d="M126.75,64a2,2,0,1,1-2-2.2A2.11,2.11,0,0,1,126.75,64Z" class="cls-8"/><path d="M165,154.21c-13.19-7.61-23.55,2-33.56-7.49-6.06-5.77-3.08-10.08-10.55-18.71-8.26-9.55-13.64-6.34-22-14.94-10.5-10.88-5.25-19.34-14.3-27.15-11-9.48-22.81-.71-33.26-9.79-4.5-3.92-7-9.62-8.27-15.68H32.91a3.38,3.38,0,0,0-3.25,3.49V200.05a3.08,3.08,0,0,0,3.25,3.23L207.19,190a2.82,2.82,0,0,0,2.1-1.38c-12.76-.5-20.59-5.1-25.6-9.85C173.88,169.48,175.58,160.32,165,154.21Z" class="cls-9"/><path d="M213,189.64,29.66,203.3l80,14.48a10.22,10.22,0,0,0,2.76.13L302.5,201.73l-86.55-12A14.27,14.27,0,0,0,213,189.64Z" class="cls-10"/><polygon points="56.42 203.65 209.08 192.1 256.32 198.6 104.98 210.94 56.42 203.65" class="cls-11"/><path d="M113.84,178.77a12.68,12.68,0,0,1-7.48-11l-2.75-68.57a11.08,11.08,0,0,1,10.77-11.6c6.27-.17,13.82,5.55,14.1,11.88L131.64,169a10.84,10.84,0,0,1-11.11,11.59A26.31,26.31,0,0,1,113.84,178.77Z" class="cls-12"/><path d="M114.38,87.62c6.27-.17,13.82,5.55,14.1,11.88l2.89,63.5c-3.52-2.43-8.15-4-11.13-9.54-5-9.17,1.71-16.08-1.4-25.59-1.41-4.35-5-9.71-14.66-14.48l-.57-14.17A11.08,11.08,0,0,1,114.38,87.62Z" class="cls-13"/><path d="M80,79.41a5.25,5.25,0,0,1,.68-.08l16-3.16,7.77,41.68L89,120.52a4.59,4.59,0,0,1-1.19.38c-5.49,1-11.68-7.43-13.81-18.89S74.54,80.43,80,79.41Z" class="cls-14"/><path d="M96.7,76.17c-3.48,15-.91,28.84,7.77,41.68L230.85,134,210.29,16.77Z" class="cls-15"/><path d="M192.25,105.59c-12.13-2.18-18.72-18-32-16.08-10.4,1.49-11.65,12.1-22,12.9-10.56.83-14.38-10-26.72-11.8-5.61-.8-11.06.55-16.14,3.07a51.8,51.8,0,0,0,9,24.17L230.85,134,216.4,95.58C205.92,104.63,198.14,106.65,192.25,105.59Z" class="cls-16"/><ellipse cx="225.65" cy="73.95" class="cls-17" rx="29.5" ry="61.53" transform="translate(-9.73 42.56) rotate(-10.55)"/><path d="M236.53,132.4c3.4-.64,6.48-2.69,9.15-6.09a39.19,39.19,0,0,0,6.43-13.94c3.27-12.15,3.45-27.58.49-43.43s-8.67-30.19-16.09-40.35a38.88,38.88,0,0,0-11-10.68c-3.71-2.22-7.32-3-10.72-2.4s-6.48,2.69-9.15,6.09a39.19,39.19,0,0,0-6.43,13.94,79.38,79.38,0,0,0-2.48,16.75c-.39,8.38,6.62,15.74,8.34,25,1.83,9.81-1.64,20.76,2,28.78a78.55,78.55,0,0,0,7.69,13.29,38.88,38.88,0,0,0,11,10.68C229.52,132.22,233.13,133,236.53,132.4Z" class="cls-18"/><g class="cls-19"><path d="M228.18,74.3c2.86,15.33-5,29.39-17.42,31.38-12.21,1.95-24.22-8.56-27-23.46s4.67-28.88,16.8-31.26C212.89,48.54,225.33,59,228.18,74.3Z" class="cls-20"/><path d="M226.19,74.42c2.12,11.38-1.14,21.34-7.2,22.22s-12.4-7.39-14.46-18.45,1-21,6.89-22.18S224.07,63,226.19,74.42Z" class="cls-21"/></g></g></g></svg>