<svg xmlns="http://www.w3.org/2000/svg" xmlns:xlink="http://www.w3.org/1999/xlink" viewBox="0 0 805 805"><defs><style>.cls-1{isolation:isolate}.cls-2{fill:#c7ecf9}.cls-3{fill:#bfc8d6}.cls-12,.cls-4,.cls-6,.cls-8{fill:#fff}.cls-5{fill:#d8dee8}.cls-6{opacity:.48}.cls-11,.cls-12,.cls-6{mix-blend-mode:soft-light}.cls-7{fill:url(#linear-gradient)}.cls-8{opacity:.6}.cls-9{fill:url(#linear-gradient-2)}.cls-10{fill:url(#linear-gradient-3)}.cls-11{opacity:.5}.cls-12,.cls-19,.cls-22,.cls-31,.cls-48{opacity:.3}.cls-13{opacity:.4;fill:url(#linear-gradient-4)}.cls-13,.cls-19,.cls-22,.cls-24,.cls-48{mix-blend-mode:multiply}.cls-14{fill:url(#linear-gradient-5)}.cls-15{fill:url(#linear-gradient-6)}.cls-16{fill:url(#linear-gradient-7)}.cls-17{fill:url(#linear-gradient-8)}.cls-18{fill:url(#linear-gradient-9)}.cls-20{fill:url(#linear-gradient-10)}.cls-21{fill:url(#linear-gradient-11)}.cls-22{fill:url(#linear-gradient-12)}.cls-23{fill:url(#linear-gradient-13)}.cls-24{fill:url(#linear-gradient-14)}.cls-25{fill:url(#linear-gradient-15)}.cls-26{fill:url(#linear-gradient-16)}.cls-27{fill:url(#linear-gradient-17)}.cls-28{fill:url(#linear-gradient-18)}.cls-29{fill:url(#linear-gradient-19)}.cls-30{fill:url(#linear-gradient-20)}.cls-31{mix-blend-mode:color-burn}.cls-32{fill:url(#linear-gradient-21)}.cls-33{fill:url(#linear-gradient-22)}.cls-34{fill:url(#linear-gradient-23)}.cls-35{fill:url(#linear-gradient-24)}.cls-36{fill:url(#linear-gradient-25)}.cls-37{fill:url(#linear-gradient-26)}.cls-38{fill:url(#linear-gradient-27)}.cls-39{fill:url(#linear-gradient-28)}.cls-40{fill:url(#linear-gradient-29)}.cls-41{fill:url(#linear-gradient-30)}.cls-42{fill:url(#linear-gradient-31)}.cls-43{fill:url(#linear-gradient-32)}.cls-44{fill:url(#linear-gradient-33)}.cls-45{fill:url(#linear-gradient-34)}.cls-46{fill:url(#linear-gradient-35)}.cls-47{fill:url(#linear-gradient-36)}.cls-48{fill:url(#linear-gradient-37)}.cls-49{fill:url(#linear-gradient-38)}.cls-50{fill:url(#linear-gradient-39)}.cls-51{fill:url(#linear-gradient-40)}.cls-52{fill:url(#linear-gradient-41)}.cls-53{fill:url(#linear-gradient-42)}</style><linearGradient id="linear-gradient" x1="57.53" x2="802.5" y1="599.18" y2="599.18" gradientUnits="userSpaceOnUse"><stop offset=".49" stop-color="#ebeff2"/><stop offset="1" stop-color="#fff"/></linearGradient><linearGradient id="linear-gradient-2" x1="1084.07" x2="993.63" y1="14760.32" y2="14919.13" gradientTransform="translate(-9565.52 11367.38) rotate(-135)" gradientUnits="userSpaceOnUse"><stop offset="0" stop-color="#311944"/><stop offset="1" stop-color="#a03976"/></linearGradient><linearGradient id="linear-gradient-3" x1="-2420.29" x2="-2471.02" y1="8981.19" y2="8895.65" gradientTransform="translate(-9565.52 11367.38) rotate(-135)" gradientUnits="userSpaceOnUse"><stop offset="0" stop-color="#ffc444"/><stop offset="1" stop-color="#f36f56"/></linearGradient><linearGradient id="linear-gradient-4" x1="301.56" x2="530.81" y1="588.52" y2="77.31" gradientUnits="userSpaceOnUse"><stop offset="0" stop-color="#e38ddd"/><stop offset="1" stop-color="#9571f6"/></linearGradient><linearGradient id="linear-gradient-5" x1="-3473.18" x2="-3408.29" y1="-967.85" y2="-967.85" gradientTransform="matrix(-0.78, -0.62, -0.62, 0.78, -2659.63, -1127.97)" gradientUnits="userSpaceOnUse"><stop offset="0" stop-color="#444b8c"/><stop offset="1" stop-color="#26264f"/></linearGradient><linearGradient id="linear-gradient-6" x1="-3344.88" x2="-3279.99" y1="-967.86" y2="-967.86" xlink:href="#linear-gradient-5"/><linearGradient id="linear-gradient-7" x1="583.17" x2="624.67" y1="352.66" y2="274.1" gradientTransform="matrix(1, 0, 0, 1, 0, 0)" xlink:href="#linear-gradient-3"/><linearGradient id="linear-gradient-8" x1="471.55" x2="513.05" y1="293.69" y2="215.13" gradientTransform="matrix(1, 0, 0, 1, 0, 0)" xlink:href="#linear-gradient-3"/><linearGradient id="linear-gradient-9" x1="-3414.44" x2="-3275.79" y1="-1015.36" y2="-1161.28" gradientTransform="matrix(-0.78, -0.62, -0.62, 0.78, -2659.63, -1127.97)" xlink:href="#linear-gradient-3"/><linearGradient id="linear-gradient-10" x1="-3425.68" x2="-3287.04" y1="-1026.04" y2="-1171.96" gradientTransform="matrix(-0.78, -0.62, -0.62, 0.78, -2659.63, -1127.97)" xlink:href="#linear-gradient-3"/><linearGradient id="linear-gradient-11" x1="663.09" x2="681.87" y1="169.9" y2="98.75" gradientTransform="matrix(1, 0, 0, 1, 0, 0)" xlink:href="#linear-gradient-3"/><linearGradient id="linear-gradient-12" x1="-3418.26" x2="-3366.31" y1="-1128.95" y2="-1183.63" gradientTransform="matrix(-0.78, -0.62, -0.62, 0.78, -2659.63, -1127.97)" xlink:href="#linear-gradient-3"/><linearGradient id="linear-gradient-13" x1="-3422.73" x2="-3330.45" y1="-1072.47" y2="-1072.47" gradientTransform="matrix(0, -1, -1, 0, -419.71, -3248.21)" gradientUnits="userSpaceOnUse"><stop offset="0" stop-color="#ebeff2"/><stop offset="1" stop-color="#fff"/></linearGradient><linearGradient id="linear-gradient-14" x1="-3422.73" x2="-3330.45" y1="-1070.95" y2="-1070.95" gradientTransform="matrix(-0.78, -0.62, -0.62, 0.78, -2659.63, -1127.97)" xlink:href="#linear-gradient-13"/><linearGradient id="linear-gradient-15" x1="-3362.25" x2="-3384.93" y1="-1101.96" y2="-1055.31" gradientTransform="matrix(0, -1, -1, 0, -419.73, -3248.2)" xlink:href="#linear-gradient-13"/><linearGradient id="linear-gradient-16" x1="-3416.78" x2="-3348.08" y1="-1013.81" y2="-1114.08" gradientTransform="matrix(0, -1, -1, 0, -419.72, -3248.2)" xlink:href="#linear-gradient-5"/><linearGradient id="linear-gradient-17" x1="-3379.08" x2="-3376.22" y1="-926.58" y2="-963.81" gradientTransform="matrix(0, -1, -1, 0, -377.62, -3160.86)" xlink:href="#linear-gradient-3"/><linearGradient id="linear-gradient-18" x1="-3408.21" x2="-3344.96" y1="-953.1" y2="-953.1" gradientTransform="matrix(-0.78, -0.62, -0.62, 0.78, -2659.63, -1127.97)" gradientUnits="userSpaceOnUse"><stop offset="0" stop-color="#aa80f9"/><stop offset="1" stop-color="#6165d7"/></linearGradient><linearGradient id="linear-gradient-19" x1="-3372.38" x2="-3387.93" y1="-954.38" y2="-907.59" gradientTransform="matrix(0, -1, -1, 0, -370.19, -3145.76)" xlink:href="#linear-gradient-18"/><linearGradient id="linear-gradient-20" x1="-3373.39" x2="-3385.21" y1="-951.35" y2="-915.79" xlink:href="#linear-gradient-5"/><linearGradient id="linear-gradient-21" x1="-3421.06" x2="-3352.35" y1="-1016.74" y2="-1117" xlink:href="#linear-gradient-5"/><linearGradient id="linear-gradient-22" x1="4866.79" x2="4755.7" y1="234.41" y2="767.02" gradientTransform="translate(-4609.88)" gradientUnits="userSpaceOnUse"><stop offset="0" stop-color="#ff9085"/><stop offset="1" stop-color="#fb6fbb"/></linearGradient><linearGradient id="linear-gradient-23" x1="-7489.63" x2="-7456.37" y1="969.29" y2="969.29" gradientTransform="matrix(-1, 0.03, 0.03, 1, -7318.24, 39.81)" xlink:href="#linear-gradient-5"/><linearGradient id="linear-gradient-24" x1="-4425.22" x2="-4413.29" y1="781.76" y2="781.76" gradientTransform="matrix(-1, 0, 0, 1, -4250.28, 0)" xlink:href="#linear-gradient-3"/><linearGradient id="linear-gradient-25" x1="-6817.9" x2="-6782.55" y1="2379.58" y2="2379.58" gradientTransform="matrix(-0.96, 0.27, 0.27, 0.96, -6900.25, 296.13)" xlink:href="#linear-gradient-5"/><linearGradient id="linear-gradient-26" x1="-4531.55" x2="-4516.82" y1="777.82" y2="777.82" gradientTransform="matrix(-1, 0, 0, 1, -4250.28, 0)" xlink:href="#linear-gradient-3"/><linearGradient id="linear-gradient-27" x1="4902.67" x2="4808.4" y1="725.57" y2="513.06" gradientTransform="translate(-4609.88)" xlink:href="#linear-gradient-18"/><linearGradient id="linear-gradient-28" x1="4463.74" x2="4369.47" y1="1500.08" y2="1287.57" gradientTransform="matrix(0.99, -0.12, 0.12, 0.99, -4367.54, -206.39)" xlink:href="#linear-gradient-18"/><linearGradient id="linear-gradient-29" x1="4828.33" x2="4717.24" y1="226.39" y2="758.99" xlink:href="#linear-gradient-22"/><linearGradient id="linear-gradient-30" x1="4732.79" x2="4774.95" y1="681.89" y2="481.63" xlink:href="#linear-gradient-22"/><linearGradient id="linear-gradient-31" x1="4752.23" x2="4641.14" y1="210.52" y2="743.12" xlink:href="#linear-gradient-22"/><linearGradient id="linear-gradient-32" x1="4846.93" x2="4828.96" y1="507.87" y2="456.94" gradientTransform="translate(-4609.88)" gradientUnits="userSpaceOnUse"><stop offset="0" stop-color="#311944"/><stop offset="1" stop-color="#893976"/></linearGradient><linearGradient id="linear-gradient-33" x1="4768.41" x2="4775" y1="434.08" y2="479.62" xlink:href="#linear-gradient-32"/><linearGradient id="linear-gradient-34" x1="-4445.74" x2="-4408.49" y1="441.23" y2="441.23" gradientTransform="matrix(-1, 0, 0, 1, -4250.28, 0)" xlink:href="#linear-gradient-3"/><linearGradient id="linear-gradient-35" x1="4899.01" x2="4863.96" y1="438.07" y2="388.3" gradientTransform="translate(-4609.88)" xlink:href="#linear-gradient-5"/><linearGradient id="linear-gradient-36" x1="4831.78" x2="4908.48" y1="520.43" y2="364.64" xlink:href="#linear-gradient-32"/><linearGradient id="linear-gradient-37" x1="4794.32" x2="4962.81" y1="420.44" y2="420.44" xlink:href="#linear-gradient-32"/><linearGradient id="linear-gradient-38" x1="-4603.59" x2="-4580.69" y1="461.08" y2="461.08" gradientTransform="matrix(-1, 0, 0, 1, -4250.28, 0)" xlink:href="#linear-gradient-3"/><linearGradient id="linear-gradient-39" x1="-4451.26" x2="-4384.62" y1="283.52" y2="283.52" gradientTransform="matrix(-1, 0, 0, 1, -4250.28, 0)" xlink:href="#linear-gradient-3"/><linearGradient id="linear-gradient-40" x1="-7676.38" x2="-7701.53" y1="162.25" y2="98.36" gradientTransform="matrix(-1, 0, 0, 1, -7522.48, 172.09)" gradientUnits="userSpaceOnUse"><stop offset="0" stop-color="#311944"/><stop offset="1" stop-color="#6b3976"/></linearGradient><linearGradient id="linear-gradient-41" x1="-4426.75" x2="-4429.76" y1="259.34" y2="334.99" gradientTransform="matrix(-1, 0, 0, 1, -4250.28, 0)" xlink:href="#linear-gradient-3"/><linearGradient id="linear-gradient-42" x1="-7684.06" x2="-7709.25" y1="165.31" y2="101.35" xlink:href="#linear-gradient-40"/></defs><g class="cls-1"><g id="Capa_1" data-name="Capa 1"><path d="M178.5,43.5c161-85,246.63-11,353-11C740.26,32.5,743.83,176,778,248.89,832.28,364.78,815.5,550.5,685.5,657.5c-52,42.83-59,137-190,143-32.75,1.5-198.66-32-230-50-40-23-4.91-18.84-82-31C-30.82,685.7-60.39,169.62,178.5,43.5Z" class="cls-2"/><path d="M802.5,593.69l-745-6.44v19c0,5.17,3.25,9.57,7.65,10.35l210.66,37.52a29,29,0,0,0,7.55.35l511-42.77c4.57-.39,8.1-4.8,8.1-10.11Z" class="cls-3"/><path d="M528.35,563.15,54.86,598c-8.47.62-15.36-6-15.36-14.81V230.61c0-8.8,6.89-15.93,15.36-15.93H528.35c7,0,12.62,6.44,12.62,14.4V547.82C541,555.77,535.33,562.64,528.35,563.15Z" class="cls-3"/><path d="M535.9,563.15,62.41,598c-8.47.62-15.36-6-15.36-14.81V230.61c0-8.8,6.89-15.93,15.36-15.93H535.9c7,0,12.62,6.44,12.62,14.4V547.82C548.52,555.77,542.88,562.64,535.9,563.15Z" class="cls-4"/><path d="M521.15,540.68,80.14,571c-6.89.47-12.49-5-12.49-12.15V250.11a12.83,12.83,0,0,1,12.49-13.06l441-1.9c5.76,0,10.42,5.26,10.42,11.8V528.12C531.57,534.66,526.91,540.29,521.15,540.68Z" class="cls-5"/><path d="M315.88,224.32a5.47,5.47,0,1,1-5.45-5.93A5.73,5.73,0,0,1,315.88,224.32Z" class="cls-4"/><path d="M62.41,598,533.5,563.33l2.4-.18a12.71,12.71,0,0,0,8.34-4.22c-33.9-1.85-55-13.88-68.54-26.31-27.28-25-22.55-49.59-52-66-36.69-20.47-65.54,5.47-93.38-20.12C313.48,431,321.77,419.41,301,396.22c-23-25.68-38-17.05-61.1-40.17-29.23-29.22-14.61-52-39.79-72.95-30.54-25.45-63.48-1.89-92.56-26.31C95,246.26,88.13,231,84.53,214.68H62.41c-8.47,0-15.36,7.13-15.36,15.93V583.2C47.05,592,53.94,598.63,62.41,598Z" class="cls-6"/><path d="M558.21,561.22,57.53,597.91l218.31,38.88a29.41,29.41,0,0,0,7.55.35L802.5,593.69,566.17,561.47A37.85,37.85,0,0,0,558.21,561.22Z" class="cls-7"/><polygon points="130.59 598.22 547.42 567.22 676.42 584.67 263.18 617.81 130.59 598.22" class="cls-5"/><path d="M388.84,500.66a11.15,11.15,0,0,1-10.44,11.09l-144.95,8c-6.91.38-12.66-4.46-12.66-10.82v-24c0-6.36,5.82-11.69,12.72-11.9l144.8-4.41a10.12,10.12,0,0,1,10.53,10.18Z" class="cls-8"/><path d="M139.68,107.36c21.34-18.56,54.85-16.58,74.88,3.58,19.57,19.68,19.57,50.09,0,68.7-20,19.07-53.54,19.22-74.88-.5C117.81,158.92,117.81,126.39,139.68,107.36Z" class="cls-9"/><path d="M141.94,104.86c21.34-18.56,54.85-16.58,74.89,3.57,19.56,19.69,19.56,50.09,0,68.71-20,19.07-53.55,19.22-74.89-.51C120.07,156.42,120.07,123.88,141.94,104.86Z" class="cls-10"/><g class="cls-11"><path d="M147.29,110.26c18.22-15.85,46.83-14.16,63.93,3,16.71,16.8,16.71,42.76,0,58.66-17.1,16.27-45.71,16.4-63.93-.44C128.62,154.27,128.62,126.5,147.29,110.26Z" class="cls-4"/></g><path d="M145,114C163.25,98.12,191.86,99.8,209,117c13.49,13.58,16.08,33.12,7.78,48.51,10.92-15.84,9.08-37.52-5.52-52.21-17.1-17.21-45.71-18.9-63.93-3A41.27,41.27,0,0,0,138,121.83,41.53,41.53,0,0,1,145,114Z" class="cls-12"/><rect width="15.27" height="4.27" x="170" y="164.28" class="cls-4" rx="1.93"/><path d="M184.05,170.69a1.54,1.54,0,0,1-1.53,1.53h-9.77a1.53,1.53,0,0,1-1.52-1.53h0a1.52,1.52,0,0,1,1.52-1.52h9.77a1.53,1.53,0,0,1,1.53,1.52Z" class="cls-4"/><path d="M174.61,152.29c2.11,8.76,2.11,8.94,2.11,8.94h3.87s0-.27,2.14-9.16A10.44,10.44,0,0,1,174.61,152.29Z" class="cls-4"/><path d="M178.65,125.69a14.06,14.06,0,0,0-12.19,21.08,29.9,29.9,0,0,1,3.69,10.36c.07.43.14,1.05.21,1.48a3.06,3.06,0,0,0,2.85,2.62h2.09c-.14-.61-1.51-6.35-2.43-10.16a.59.59,0,0,1,.3-.68.71.71,0,0,1,.82.09c.15.11,3.82,2.9,9.44,0a.7.7,0,0,1,.76.07c.21.17.31.29.25.56-.92,3.81-2.3,9.56-2.44,10.17h2.1a3.06,3.06,0,0,0,2.85-2.62c.07-.43.14-1,.2-1.38a30.41,30.41,0,0,1,3.69-10.42,14.09,14.09,0,0,0-12.19-21.12Z" class="cls-4"/><path d="M179.77,120.32a1.22,1.22,0,0,1-1.22,1.22h0a1.22,1.22,0,0,1-1.22-1.22v-8.55a1.22,1.22,0,0,1,1.22-1.22h0a1.21,1.21,0,0,1,1.22,1.22Z" class="cls-4"/><path d="M161.86,129.58,154.75,125a1.41,1.41,0,0,0-1.51,2.38l7.11,4.54a1.41,1.41,0,0,0,1.51-2.38Z" class="cls-4"/><path d="M159.71,138.5l-8.44-.3a1.41,1.41,0,0,0-.1,2.81l8.44.3a1.41,1.41,0,0,0,.1-2.81Z" class="cls-4"/><path d="M197.6,138.5l8.43-.3a1.41,1.41,0,0,1,.11,2.81l-8.44.3a1.41,1.41,0,1,1-.1-2.81Z" class="cls-4"/><path d="M204.5,125.47a1.42,1.42,0,0,0-1.94-.43l-7.12,4.54A1.41,1.41,0,1,0,197,132l7.11-4.54A1.41,1.41,0,0,0,204.5,125.47Z" class="cls-4"/><path d="M165.73,115a1.41,1.41,0,1,0-2.52,1.25l3.75,7.56a1.41,1.41,0,1,0,2.52-1.25Z" class="cls-4"/><path d="M193.46,114.31a1.4,1.4,0,0,0-1.88.64l-3.75,7.56a1.41,1.41,0,1,0,2.52,1.25l3.75-7.56A1.42,1.42,0,0,0,193.46,114.31Z" class="cls-4"/><path d="M554.5,214.5s-69.83,115.44-115,117c-15.94.55-35.84,0-51,6-23.12,9.17-30.5,32.9-39.69,52.53-16.23,34.7-49.58,76.23-91.85,75.58-35.27-.54-76.93,25.95-81.94,98L470.2,543.26s5.27-45.73-4-64c-26.73-52.79-4.86-75.47,19.27-100.79,81-85,92-119,105-133C590.5,245.5,581.22,224.51,554.5,214.5Z" class="cls-13"/><path d="M642.3,207.56s28.68,32.26,4.22,84.08a6.9,6.9,0,0,1-11.95.9l-19.08-28.15a19.3,19.3,0,0,1-2.78-15.4l6.6-27.2Z" class="cls-14"/><path d="M578.21,156.78s-38-20.55-82.81,15.11a6.9,6.9,0,0,0,1.85,11.84L529,195.87a19.32,19.32,0,0,0,15.63-.82l25-12.64Z" class="cls-15"/><path d="M645.13,204s28.69,32.25,4.22,84.07a6.9,6.9,0,0,1-12,.91l-19.07-28.16a19.34,19.34,0,0,1-2.79-15.4l6.61-27.2Z" class="cls-16"/><path d="M581,153.2s-37.95-20.55-82.81,15.11a6.91,6.91,0,0,0,1.85,11.85l31.77,12.13a19.36,19.36,0,0,0,15.63-.81l25-12.65Z" class="cls-17"/><path d="M611,72c40.27-40.65,107-26,107-25.88s29.64,61.59-.73,110.09c-27.54,44-88.78,75.94-100.54,81.79-1.27.63-3.32,1.49-4.07.29-14.62-23.27-34.21-38-57.74-45.72-1.3-.43-.89-2.59-.58-3.92C557.33,176.06,574.43,109,611,72Z" class="cls-18"/><g class="cls-19"><path d="M637,133.52c22.54-22.56,43.67-13.3,65.43-33,8-7.18,16.65-18.82,21.54-38.92,6.74,21.39,14.34,61.11-6.63,94.6-27.54,44-88.78,75.94-100.54,81.79-1.27.63-3.32,1.49-4.07.29a110.81,110.81,0,0,0-25.83-28.92,73.24,73.24,0,0,0,19.06-16C624.06,171.69,616.43,154.08,637,133.52Z" class="cls-20"/></g><path d="M691.46,79.69C676,67.41,656.85,56.28,639.77,52.78c32.27-13.68,67.5-8.65,76.23-7a3.92,3.92,0,0,1,2.9,2.3c3.56,8.13,16.51,41.28,10.57,75.82C723.36,109.7,707,92,691.46,79.69Z" class="cls-21"/><path d="M723.93,61.64l.09.3c.06.18.11.35.16.52s.11.35.16.52.11.33.16.5.11.37.16.56l.15.48c.06.2.11.4.17.6s.09.32.14.47l.18.64c0,.15.09.3.13.46s.12.45.19.67l.12.44c.06.24.12.47.19.71s.07.29.11.44.13.49.2.74.07.28.11.42.13.51.19.77.07.27.1.41.14.54.2.81.07.26.1.4.13.56.2.84l.09.38c.06.29.13.58.2.87,0,.13.05.26.08.38.07.3.13.6.2.9,0,.12,0,.25.08.37.07.31.13.62.2.93,0,.12,0,.24.07.36.06.31.13.63.19,1,0,.12,0,.23.07.35.07.33.13.65.19,1,0,.12,0,.23.07.34l.18,1,.06.33.18,1,.06.32c.06.35.12.71.17,1.07,0,.1,0,.2,0,.3.06.36.12.73.17,1.09,0,.1,0,.2,0,.3,0,.37.11.74.16,1.12,0,.09,0,.19,0,.29,0,.38.11.76.16,1.14l0,.28L730,89.6l0,.27c0,.4.09.79.14,1.19,0,.08,0,.17,0,.25,0,.41.09.81.13,1.22a2,2,0,0,1,0,.25L730.5,94c0,.08,0,.16,0,.23,0,.42.07.85.1,1.27a1.5,1.5,0,0,1,0,.22l.09,1.29c0,.06,0,.13,0,.2,0,.44,0,.87.07,1.31a1.34,1.34,0,0,1,0,.2c0,.44,0,.89.07,1.33v.18c0,.45,0,.91.05,1.36,0,.06,0,.11,0,.16l0,1.39v.14c0,.47,0,.95,0,1.42v.12c0,.48,0,1,0,1.44v.1c0,.49,0,1,0,1.48v.07c0,.5,0,1,0,1.51v0a106.83,106.83,0,0,1-1.46,14.39c-3.91-9-12-19.55-21.41-29.16C714.22,87.44,720.19,77,723.93,61.64Z" class="cls-22"/><ellipse cx="652.94" cy="128.3" class="cls-23" rx="41.55" ry="46.14" transform="translate(146.88 560.37) rotate(-51.61)"/><path d="M637,133.52c18.39-18.41,35.85-15.64,53.47-24.67,9.43,15.33,9.5,34.43-1.32,48.1-14.26,18-42,19.74-62,3.91a48.9,48.9,0,0,1-4.59-4.1A57.73,57.73,0,0,1,637,133.52Z" class="cls-24"/><ellipse cx="652.94" cy="128.3" class="cls-25" rx="38.09" ry="42.29" transform="translate(146.88 560.37) rotate(-51.61)"/><ellipse cx="652.94" cy="128.3" class="cls-26" rx="33.18" ry="36.84" transform="translate(146.88 560.37) rotate(-51.61)"/><ellipse cx="583.65" cy="215.49" class="cls-27" rx="11.34" ry="38.37" transform="matrix(0.62, -0.78, 0.78, 0.62, 52.28, 539.11)"/><path d="M580.77,206.12l12.9,10.23A21.53,21.53,0,0,1,601,239.27l-2.33,8a4.32,4.32,0,0,1-6.82,2.17L549,215.5a4.32,4.32,0,0,1,.56-7.14l7.23-4.09A21.53,21.53,0,0,1,580.77,206.12Z" class="cls-28"/><ellipse cx="571.76" cy="230.74" class="cls-29" rx="10.7" ry="31.67" transform="translate(35.82 535.56) rotate(-51.61)"/><path d="M552.9,215.79c-2.79,3.52,3.39,13.06,13.81,21.32s21.12,12.09,23.91,8.57-3.39-13.06-13.81-21.32S555.68,212.27,552.9,215.79Z" class="cls-30"/><g class="cls-31"><path d="M637,133.52c15.64-15.66,30.61-16,45.57-21.3,7.87,12.33,8.06,27.88-.71,39-11.38,14.36-33.54,15.76-49.48,3.12a41.06,41.06,0,0,1-6.2-6.08A57.15,57.15,0,0,1,637,133.52Z" class="cls-32"/></g><path d="M281.7,387.11c9.67-10.32-17.09-49.09-31.41-66.07-12.51-14.84-25.37-30.1-41.16-28.17-13.86,1.7-27.35,16.32-28.16,30.33C178.8,360.9,268,401.77,281.7,387.11Z" class="cls-33"/><path d="M165.66,785.45c-1.82,1.48-2.15,5.18-2.37,7.59a6,6,0,0,0,0,2c.88,2.78,6.27,3.07,14.72,3.93,13.35,1.37,17.33,2.42,18.37.43s-1.39-4.91-1.66-5.25c-1.43-1.8-3.19-2.46-6.6-3.58-6.3-2.08-10.55-3.21-11.84-3.55C168.2,784.87,166.86,784.48,165.66,785.45Z" class="cls-34"/><path d="M173.6,773.26l1.34,15.21c-.38.74-4.9,2.94-8.49,1l-3.44-15Z" class="cls-35"/><path d="M271.55,783.5c-2.18,2.41-2.68,6.84-.78,9s4.67.54,12.61.78c8.52.25,10.74,2.26,16.53.67,2.33-.65,6.46-2.22,6.38-3.88-.05-1.18-2.15-1.78-9.17-4.14-10-3.33-9.92-3.52-12-3.87C279.77,781.2,274.43,780.32,271.55,783.5Z" class="cls-36"/><path d="M277,769.61l4.27,14.21c-.33.76-4.67,3.3-8.39,1.69l-6.34-13.79Z" class="cls-37"/><path d="M239.07,458.53a1330.24,1330.24,0,0,0,42,315.22l-16.34,4.39C250.94,765.26,233.51,745,225.1,716.3c-5.23-17.8-3.49-26.94-6.8-48.83-5.27-34.85-16-53.1-27-81.21C181.38,561,169.65,524,163.37,474.41Z" class="cls-38"/><path d="M189.89,454q-5,91.06-8.16,185.49-2.34,70.85-3.46,139.87l-16.7,2.07a194.35,194.35,0,0,1-17.41-44.94c-5.94-23.83-4.57-38-7.17-62.67-2.93-27.7-7.17-33.74-14.7-68.68-15.27-70.9-22.9-106.36-5.87-128.42C122,469.54,139.28,451.57,189.89,454Z" class="cls-39"/><path d="M108.78,301.38a259.36,259.36,0,0,1,55.53-9.27c33.36-1.89,50-2.83,61.86,5.12,27.31,18.35,6.17,60.7,17.34,165.69,1.6,15,2,30.09,3.11,45.13,1.92,24.89,2.35,26.24.62,28.76-10.86,15.82-51.38-8-110.77,1.39-33.23,5.28-48.3,17.43-57.4,8.67-10.62-10.23-1.51-37.73,6.33-61.41,9-27.17,14.55-27.52,19.66-48,5.34-21.39,2.11-32.41,1.28-66.14A598.35,598.35,0,0,1,108.78,301.38Z" class="cls-40"/><g class="cls-19"><path d="M189.54,498.49c-15.52-1.22-25.59,7.56-39,.72-18.37-9.38-24.28-38.56-23.11-59.21,1.78-31.38,19.7-39.65,16.61-59.93-1.67-11-9.5-25.54-37.62-40.42-.37,12.53-.3,23.2-.09,31.68.83,33.73,4.06,44.75-1.28,66.14-5.11,20.47-10.67,20.82-19.66,48-7.84,23.68-17,51.18-6.33,61.41,9.1,8.76,24.17-3.39,57.4-8.67,51.18-8.13,88.32,8.44,104.57,3.07C221.4,508.82,203.59,499.58,189.54,498.49Z" class="cls-41"/></g><path d="M130,303.54c-11.09-9.11-33.38,1.2-39.34,4C57.39,322.87,27.55,364.29,35,408.06c1.1,6.56,6.25,37.27,32.25,52.15,23.46,13.42,55.14,10,80.52-9l10.4-9.24,10.24-11.06a82,82,0,0,0-27.28-15c-16.88-5.45-29.16,4.32-37-3.11-5.41-5.12-5.42-14.18-4.08-19.67,2.69-11.06,12.44-14.17,20.58-22C139.71,352.59,143.23,314.45,130,303.54Z" class="cls-42"/><polygon points="289.27 446.44 140.68 444.22 180.19 463.29 289.65 456.12 289.27 446.44" class="cls-43"/><path d="M135.43,448.17h0a6.6,6.6,0,0,0,4.36,6.21L187.27,473l.22-12.91-46.81-15.87A4.11,4.11,0,0,0,135.43,448.17Z" class="cls-44"/><path d="M158.31,439.37c-.91-.2,4.45-10.87,8.65-9.64s24.77,13.15,26.63,18l1.87,4.91s-9,.7-14.53-1.17S165.73,441,158.31,439.37Z" class="cls-45"/><path d="M191.43,369.54,181,464.91c-.36,3.29,4.25,8.2,7.56,8l153.65-9.43a5.39,5.39,0,0,0,5.06-4.47l19.28-92.11c.58-3.35-5.45-6.82-8.85-6.72l-161,4.53A5.37,5.37,0,0,0,191.43,369.54Z" class="cls-46"/><path d="M194.94,372.33,184.46,467.7a5.38,5.38,0,0,0,5.61,6l155.61-7.36a5.39,5.39,0,0,0,5.05-4.47l15.9-92.53a5.39,5.39,0,0,0-5.46-6.3l-161,4.53A5.37,5.37,0,0,0,194.94,372.33Z" class="cls-47"/><path d="M286.31,444c-13.59-5.76-8.79-16.74-24.84-30.42-21.16-18-42.74-10.22-50.29-24.22-2.35-4.35-3.47-11.13.62-22.11l-11.66.33a5.37,5.37,0,0,0-5.2,4.8L184.46,467.7a5.38,5.38,0,0,0,5.61,6l155.61-7.36a5.39,5.39,0,0,0,5.05-4.47l2.19-12.77A58.52,58.52,0,0,0,336,442.71C313.15,438.08,302,450.58,286.31,444Z" class="cls-48"/><path d="M353.25,454.41a1.1,1.1,0,0,0-1-1.46c-3-.15-9.95-.22-13.79,2.13-5,3.06-11.43,8.63-6,11.44l5.07,2.62a1.12,1.12,0,0,0,.74.11c1.8-.4,9.38-2.08,10.21-2.5S352.14,457.8,353.25,454.41Z" class="cls-49"/><path d="M166.8,255.66a115.39,115.39,0,0,1-2.07,23.11c-1.19,6.15-2,7.74-3.15,9-1.66,1.94-4.17,3.57-18.34,7.09-7.71,1.91-8.71,1.86-8.88,2.62-.83,3.74,20.2,16.46,41.93,13.4,13.3-1.88,25.4-9.47,24.66-13.45s-14-1.86-18-9.11c-2.76-5.05.33-12.21,4-18.15C183.41,263.58,170.33,262.28,166.8,255.66Z" class="cls-50"/><path d="M191.48,259.57c3.14-4.17,3.33-11.45-.28-16-3.12-4-8-4.52-10.94-4.86-8.5-1-19.22,2.57-22.95,10.38-2.21,4.64,2.57,14.27,3.32,16,.85,1.95,2.38,2.63,3.8,4.11,2,2.05,5.06,5.31,10.09,10.77a35.35,35.35,0,0,1,1.93-5.77,31.25,31.25,0,0,1,4-6.77C184.91,262,188.51,263.52,191.48,259.57Z" class="cls-51"/><path d="M167.34,275.33s5.59,9.16,16.71,8.44c9.95-.65,11.41-23,5-27.71-2.12-1.58-6.37-2.24-9.82-1.27-2,.57-2.73,1.42-6.09,2.29-3.09.8-4,.46-4.9,1.24-1.16,1-2,3.39-.07,9.92-1.9-1.92-4.18-2.66-5.79-1.9a3.37,3.37,0,0,0-1.33,1.29C159.71,270.18,162,273.44,167.34,275.33Z" class="cls-52"/><path d="M167.84,257c.48.35-1,2.14-1.09,4.68-.22,4.92,4.77,10.83,9.85,11.33,3,.3,3.83-1.51,8.79-2a23,23,0,0,1,7.25.42c1.56,5.4.09,10.78-3.52,13.27-3.88,2.69-8.84,1.06-10.92.38-1.38-.46-5.83-1.91-8.16-6-2.42-4.25,0-6.81-2.82-9.68-1.4-1.45-3.24-2.08-5-4.89a13.14,13.14,0,0,1-1-1.89C163.75,259.86,167.15,256.47,167.84,257Z" class="cls-53"/><path d="M189,273.38a12.19,12.19,0,0,1-5.87.91c-.18,0-.38,0-.4.14-.09.35,2.29,1.93,4.49,1.32,1.56-.44,2.77-1.92,2.56-2.3C189.72,273.3,189.37,273.32,189,273.38Z" class="cls-4"/></g></g></svg>