<svg xmlns="http://www.w3.org/2000/svg" xmlns:xlink="http://www.w3.org/1999/xlink" viewBox="0 0 805 805"><defs><style>.cls-1{isolation:isolate}.cls-2{fill:#ffefd7}.cls-3{fill:url(#linear-gradient)}.cls-4{fill:url(#linear-gradient-2)}.cls-5{fill:url(#linear-gradient-3)}.cls-46,.cls-47,.cls-6,.cls-64{opacity:.3;mix-blend-mode:multiply}.cls-7{fill:url(#linear-gradient-4)}.cls-8{fill:#d8dee8}.cls-9{fill:url(#linear-gradient-5)}.cls-10{fill:url(#linear-gradient-6)}.cls-11{fill:url(#linear-gradient-7)}.cls-12{fill:url(#linear-gradient-8)}.cls-13{fill:url(#linear-gradient-9)}.cls-14{fill:url(#linear-gradient-10)}.cls-15{fill:url(#linear-gradient-11)}.cls-16{fill:url(#linear-gradient-12)}.cls-17{fill:url(#linear-gradient-13)}.cls-18{fill:url(#linear-gradient-14)}.cls-19{fill:url(#linear-gradient-15)}.cls-20{fill:url(#linear-gradient-16)}.cls-21{fill:url(#linear-gradient-17)}.cls-22{fill:#fff}.cls-23{fill:url(#linear-gradient-18)}.cls-24{fill:url(#linear-gradient-19)}.cls-25{fill:url(#linear-gradient-20)}.cls-26{fill:url(#linear-gradient-21)}.cls-27{fill:url(#linear-gradient-22)}.cls-28{fill:url(#linear-gradient-23)}.cls-29{fill:url(#linear-gradient-24)}.cls-30{fill:url(#linear-gradient-25)}.cls-31{fill:url(#linear-gradient-26)}.cls-32{fill:url(#linear-gradient-27)}.cls-33{fill:url(#linear-gradient-28)}.cls-34{fill:#26264f}.cls-35{fill:url(#linear-gradient-29)}.cls-36{fill:#9b305e}.cls-37{fill:url(#linear-gradient-30)}.cls-38{fill:url(#linear-gradient-31)}.cls-39{fill:url(#linear-gradient-32)}.cls-40{fill:url(#linear-gradient-33)}.cls-41{fill:url(#linear-gradient-34)}.cls-42{fill:url(#linear-gradient-35)}.cls-43{fill:url(#linear-gradient-36)}.cls-44{fill:url(#linear-gradient-37)}.cls-45{fill:url(#linear-gradient-38)}.cls-46{fill:url(#linear-gradient-39)}.cls-47{fill:url(#linear-gradient-40)}.cls-48{fill:url(#linear-gradient-41)}.cls-49{fill:url(#linear-gradient-42)}.cls-50{fill:url(#linear-gradient-43)}.cls-51{fill:url(#linear-gradient-44)}.cls-52{fill:url(#linear-gradient-45)}.cls-53{fill:url(#linear-gradient-46)}.cls-54{fill:url(#linear-gradient-47)}.cls-55{fill:url(#linear-gradient-48)}.cls-56{fill:url(#linear-gradient-49)}.cls-57{fill:url(#linear-gradient-50)}.cls-58{fill:url(#linear-gradient-51)}.cls-59{fill:url(#linear-gradient-52)}.cls-60{fill:url(#linear-gradient-53)}.cls-61{fill:url(#linear-gradient-54)}.cls-62{fill:url(#linear-gradient-55)}.cls-63{fill:url(#linear-gradient-56)}.cls-64{fill:url(#linear-gradient-57)}</style><linearGradient id="linear-gradient" x1="-83.18" x2="36.42" y1="521.49" y2="460.3" gradientUnits="userSpaceOnUse"><stop offset="0" stop-color="#ff9085"/><stop offset="1" stop-color="#fb6fbb"/></linearGradient><linearGradient id="linear-gradient-2" x1="79.71" x2="766.61" y1="402.65" y2="402.65" xlink:href="#linear-gradient"/><linearGradient id="linear-gradient-3" x1="1037.87" x2="1434.3" y1="220.22" y2="950.62" gradientTransform="matrix(1, 0, 0.22, 1, -800.8, 0)" xlink:href="#linear-gradient"/><linearGradient id="linear-gradient-4" x1="917.19" x2="1319.64" y1="288.23" y2="1029.73" gradientTransform="matrix(1, 0, 0.22, 1, -800.8, 0)" xlink:href="#linear-gradient"/><linearGradient id="linear-gradient-5" x1="1104.1" x2="1184.4" y1="675.97" y2="97.85" gradientTransform="matrix(1, 0, 0.22, 1, -800.8, 0)" gradientUnits="userSpaceOnUse"><stop offset="0" stop-color="#ebeff2"/><stop offset="1" stop-color="#fff"/></linearGradient><linearGradient id="linear-gradient-6" x1="331.33" x2="405.66" y1="370.87" y2="370.87" xlink:href="#linear-gradient"/><linearGradient id="linear-gradient-7" x1="925.52" x2="947.43" y1="211.03" y2="515.44" gradientTransform="matrix(1, 0, 0.22, 1, -800.8, 0)" gradientUnits="userSpaceOnUse"><stop offset="0" stop-color="#e38ddd"/><stop offset="1" stop-color="#9571f6"/></linearGradient><linearGradient id="linear-gradient-8" x1="1006.2" x2="1027.65" y1="207.05" y2="504.93" xlink:href="#linear-gradient-7"/><linearGradient id="linear-gradient-9" x1="1084.22" x2="1105.21" y1="203.25" y2="494.86" xlink:href="#linear-gradient-7"/><linearGradient id="linear-gradient-10" x1="1159.68" x2="1180.25" y1="199.61" y2="485.2" xlink:href="#linear-gradient-7"/><linearGradient id="linear-gradient-11" x1="1232.73" x2="1252.88" y1="196.12" y2="475.93" xlink:href="#linear-gradient-7"/><linearGradient id="linear-gradient-12" x1="1303.47" x2="1323.21" y1="192.78" y2="467.03" xlink:href="#linear-gradient-7"/><linearGradient id="linear-gradient-13" x1="1372.01" x2="1391.37" y1="189.58" y2="458.48" xlink:href="#linear-gradient-7"/><linearGradient id="linear-gradient-14" x1="341.53" x2="396.03" y1="366.76" y2="366.76" gradientUnits="userSpaceOnUse"><stop offset="0" stop-color="#ab316d"/><stop offset="1" stop-color="#792d3d"/></linearGradient><linearGradient id="linear-gradient-15" x1="2657.37" x2="2608.74" y1="-21.14" y2="57.52" gradientTransform="matrix(0.99, 0.12, -0.12, 0.99, -2360.06, 86.51)" gradientUnits="userSpaceOnUse"><stop offset="0" stop-color="#444b8c"/><stop offset="1" stop-color="#26264f"/></linearGradient><linearGradient id="linear-gradient-16" x1="2695.12" x2="2653.12" y1="23.77" y2="102.63" gradientTransform="matrix(0.99, 0.1, -0.1, 0.99, -2401.89, 75.84)" gradientUnits="userSpaceOnUse"><stop offset="0" stop-color="#ffc444"/><stop offset="1" stop-color="#f36f56"/></linearGradient><linearGradient id="linear-gradient-17" x1="2652.4" x2="2663.98" y1="-26.19" y2="-50.19" gradientTransform="matrix(0.99, 0.12, -0.12, 0.99, -2360.06, 86.51)" gradientUnits="userSpaceOnUse"><stop offset="0" stop-color="#aa80f9"/><stop offset="1" stop-color="#6165d7"/></linearGradient><linearGradient id="linear-gradient-18" x1="283.67" x2="301.67" y1="403.36" y2="426" gradientTransform="matrix(1, 0, 0, 1, 0, 0)" xlink:href="#linear-gradient-16"/><linearGradient id="linear-gradient-19" x1="38.56" x2="130.87" y1="542.91" y2="362.05" gradientUnits="userSpaceOnUse"><stop offset="0" stop-color="#311944"/><stop offset="1" stop-color="#893976"/></linearGradient><linearGradient id="linear-gradient-20" x1="-1440.68" x2="-1425.46" y1="611.96" y2="625.5" gradientTransform="matrix(-0.99, -0.14, -0.14, 0.99, -1266.56, -28.99)" xlink:href="#linear-gradient-15"/><linearGradient id="linear-gradient-21" x1="-2351.28" x2="-2351.28" y1="625.51" y2="598.98" gradientTransform="matrix(-0.99, -0.14, -0.14, 0.99, -2182.76, -158.5)" xlink:href="#linear-gradient-16"/><linearGradient id="linear-gradient-22" x1="-1439.15" x2="-1423.93" y1="610.24" y2="623.78" gradientTransform="matrix(-0.99, -0.14, -0.14, 0.99, -1266.56, -28.99)" xlink:href="#linear-gradient-15"/><linearGradient id="linear-gradient-23" x1="-1363.67" x2="-1348.44" y1="787.09" y2="800.63" gradientTransform="matrix(-1, 0, 0, 1, -1181.57, 0)" xlink:href="#linear-gradient-15"/><linearGradient id="linear-gradient-24" x1="-2274.31" x2="-2274.31" y1="800.66" y2="774.13" gradientTransform="matrix(-1, 0, 0, 1, -2106.88, 0)" xlink:href="#linear-gradient-16"/><linearGradient id="linear-gradient-25" x1="459" x2="359.71" y1="812.82" y2="411.95" gradientTransform="translate(-290.31)" xlink:href="#linear-gradient-15"/><linearGradient id="linear-gradient-26" x1="62.45" x2="116.49" y1="597.8" y2="474.72" xlink:href="#linear-gradient-19"/><linearGradient id="linear-gradient-27" x1="-1362.14" x2="-1346.91" y1="785.37" y2="798.91" gradientTransform="matrix(-1, 0, 0, 1, -1181.57, 0)" xlink:href="#linear-gradient-15"/><linearGradient id="linear-gradient-28" x1="124.69" x2="134.52" y1="311.3" y2="422.98" gradientTransform="matrix(1, 0, 0, 1, 0, 0)" xlink:href="#linear-gradient-16"/><linearGradient id="linear-gradient-29" x1="141.31" x2="151.13" y1="309.84" y2="421.52" gradientTransform="matrix(1, 0, 0, 1, 0, 0)" xlink:href="#linear-gradient-16"/><linearGradient id="linear-gradient-30" x1="169.29" x2="213.57" y1="504.16" y2="408.85" xlink:href="#linear-gradient-19"/><linearGradient id="linear-gradient-31" x1="-1656.02" x2="-1650.07" y1="735.83" y2="842.87" gradientTransform="translate(2275.47)" gradientUnits="userSpaceOnUse"><stop offset="0" stop-color="#311944"/><stop offset="1" stop-color="#a03976"/></linearGradient><linearGradient id="linear-gradient-32" x1="-1644.79" x2="-1647.95" y1="788.58" y2="644.05" gradientTransform="translate(2275.47)" xlink:href="#linear-gradient-16"/><linearGradient id="linear-gradient-33" x1="-1548.38" x2="-1542.44" y1="729.85" y2="836.89" xlink:href="#linear-gradient-31"/><linearGradient id="linear-gradient-34" x1="-1550.02" x2="-1553.18" y1="786.51" y2="641.98" gradientTransform="translate(2275.47)" xlink:href="#linear-gradient-16"/><linearGradient id="linear-gradient-35" x1="-1525.7" x2="-1713.24" y1="569.35" y2="688.49" xlink:href="#linear-gradient-31"/><linearGradient id="linear-gradient-36" x1="-1646.09" x2="-1505.51" y1="704.64" y2="573.53" xlink:href="#linear-gradient-31"/><linearGradient id="linear-gradient-37" x1="-1764.3" x2="-1609.06" y1="417.07" y2="403.08" gradientTransform="translate(2275.47)" xlink:href="#linear-gradient-17"/><linearGradient id="linear-gradient-38" x1="-1469.87" x2="-1607.61" y1="524.81" y2="405.76" gradientTransform="translate(2275.47)" gradientUnits="userSpaceOnUse"><stop offset="0" stop-color="#444b8c"/><stop offset="1" stop-color="#3e4177"/></linearGradient><linearGradient id="linear-gradient-39" x1="-1683.02" x2="-1623" y1="700.35" y2="619.79" gradientTransform="translate(2275.47)" gradientUnits="userSpaceOnUse"><stop offset="0" stop-color="#311944"/><stop offset="1" stop-color="#6b3976"/></linearGradient><linearGradient id="linear-gradient-40" x1="-1409.14" x2="-1296.38" y1="380.73" y2="380.73" gradientTransform="translate(1839.62 -134.61) rotate(-7.89)" xlink:href="#linear-gradient-17"/><linearGradient id="linear-gradient-41" x1="-1757.62" x2="-1602.38" y1="491.22" y2="477.23" gradientTransform="translate(2275.47)" xlink:href="#linear-gradient-17"/><linearGradient id="linear-gradient-42" x1="-1592.37" x2="-1558.35" y1="347.61" y2="555.62" gradientTransform="translate(2275.47)" xlink:href="#linear-gradient-17"/><linearGradient id="linear-gradient-43" x1="-1649.91" x2="-1613.18" y1="352.52" y2="299.21" gradientTransform="translate(2275.47)" xlink:href="#linear-gradient-16"/><linearGradient id="linear-gradient-44" x1="-1653.24" x2="-1595.19" y1="325.48" y2="290.54" gradientTransform="translate(2275.47)" xlink:href="#linear-gradient-16"/><linearGradient id="linear-gradient-45" x1="697.59" x2="757.55" y1="798.06" y2="835.9" gradientTransform="translate(-411.62 847.32) rotate(-68.93)" xlink:href="#linear-gradient-14"/><linearGradient id="linear-gradient-46" x1="744.1" x2="702.85" y1="801.96" y2="807.91" gradientTransform="translate(-411.62 847.32) rotate(-68.93)" xlink:href="#linear-gradient-14"/><linearGradient id="linear-gradient-47" x1="717.63" x2="697.27" y1="554.99" y2="758" gradientTransform="translate(-411.62 847.32) rotate(-68.93)" xlink:href="#linear-gradient-16"/><linearGradient id="linear-gradient-48" x1="710.89" x2="709.18" y1="537.24" y2="610.38" gradientTransform="translate(-411.62 847.32) rotate(-68.93)" xlink:href="#linear-gradient-14"/><linearGradient id="linear-gradient-49" x1="-2066.45" x2="-2048.15" y1="183.1" y2="295" gradientTransform="translate(2466.87 -206.51) rotate(-13.21)" xlink:href="#linear-gradient-16"/><linearGradient id="linear-gradient-50" x1="-1590.54" x2="-1593.6" y1="486.98" y2="362.35" gradientTransform="translate(2275.47)" xlink:href="#linear-gradient-17"/><linearGradient id="linear-gradient-51" x1="-1607.89" x2="-1576.07" y1="496.41" y2="519.7" gradientTransform="translate(2275.47)" xlink:href="#linear-gradient-16"/><linearGradient id="linear-gradient-52" x1="254.52" x2="195.57" y1="182.57" y2="201.49" gradientUnits="userSpaceOnUse"><stop offset="0" stop-color="#fcb148"/><stop offset=".05" stop-color="#fdba46"/><stop offset=".14" stop-color="#ffc244"/><stop offset=".32" stop-color="#ffc444"/><stop offset=".48" stop-color="#fdb946"/><stop offset=".78" stop-color="#f99c4d"/><stop offset=".87" stop-color="#f8924f"/><stop offset="1" stop-color="#f8924f"/></linearGradient><linearGradient id="linear-gradient-53" x1="302.21" x2="249.58" y1="123.88" y2="240" gradientUnits="userSpaceOnUse"><stop offset="0" stop-color="#ffdb44"/><stop offset="1" stop-color="#feef06"/></linearGradient><linearGradient id="linear-gradient-54" x1="292.53" x2="282.38" y1="246.49" y2="191.01" xlink:href="#linear-gradient-52"/><linearGradient id="linear-gradient-55" x1="271" x2="312.85" y1="156.69" y2="245.53" xlink:href="#linear-gradient-52"/><linearGradient id="linear-gradient-56" x1="269.33" x2="290.38" y1="137.57" y2="216.44" xlink:href="#linear-gradient-53"/><linearGradient id="linear-gradient-57" x1="258.69" x2="300.46" y1="162.44" y2="251.1" xlink:href="#linear-gradient-52"/></defs><g class="cls-1"><g id="Capa_1" data-name="Capa 1"><path d="M155.5,47.5c120-33,137-36,217.75-4.24C395.75,52.1,431,80.69,451.5,92.5c47.72,27.5,82.33,12,134.82,9.49,62.39-2.95,131.36,10.63,172.11,70,18.64,27.13,29.48,61.46,36,96.32a472,472,0,0,1,7.39,111.26c-3,57-17.83,115.87-52,153.61-50.64,55.92-133.46,55.66-174.72,122.61-11.16,18.12-18.33,40-31.07,56.43-18.25,23.5-45.24,32.38-71.11,37.2-80.65,15-164.75-.4-238.6-43.75C189,679,182.48,676,132.67,669.87c-145.12-17.78-141.51-167-117.6-210.22,28.36-51.25,42.38-90.46,44.87-120.74C69.28,225.37,13.56,86.53,155.5,47.5Z" class="cls-2"/><path d="M79.92,162.56,15.49,575.89c-1.22,8,4.47,15.17,11.72,14.83L349.68,575.5Z" class="cls-3"/><path d="M669.75,171.18,92.31,153.32c-8.43-.26-14,6.19-12.31,14.4l93.67,470.43A17.54,17.54,0,0,0,191.59,652l565.75-40.88c6.4-.47,10.41-6.68,9-13.89L684.17,184.59C682.73,177.39,676.29,171.38,669.75,171.18Z" class="cls-4"/><path d="M672.87,171.18,95.42,153.32c-8.42-.26-13.94,6.19-12.3,14.4l93.66,470.43A17.55,17.55,0,0,0,194.71,652l565.75-40.88c6.4-.47,10.41-6.68,9-13.89L687.28,184.59C685.85,177.39,679.4,171.38,672.87,171.18Z" class="cls-5"/><g class="cls-6"><path d="M522.17,420.45c-113.65-61.76-221.36-13.75-298.91-93-47.75-48.78-56.52-117.84-55.09-171.92l-72.75-2.25c-8.42-.26-13.94,6.19-12.3,14.4l93.66,470.43A17.55,17.55,0,0,0,194.7,652l490.88-35.47C631.93,500,571.44,447.22,522.17,420.45Z" class="cls-7"/></g><path d="M741.13,595.4,205.21,632c-8.9.6-17.58-6.11-19.35-15L102.41,197.9c-1.77-8.89,4.18-15.91,13.25-15.68L661.6,195.94c7.13.18,14.16,6.68,15.72,14.53L751,580.33C752.52,588.17,748.13,594.92,741.13,595.4Z" class="cls-8"/><path d="M743.54,595.23,208.26,631.77c-8.9.61-17.56-6.1-19.33-15L105.54,198c-1.77-8.89,4.16-15.9,13.22-15.67L664.05,196c7.12.18,14.14,6.68,15.7,14.52l73.6,369.66C754.91,588,750.53,594.76,743.54,595.23Z" class="cls-9"/><path d="M390.4,333.43l-58.43.36a4.1,4.1,0,0,1-3.82-3.23L318.48,282a2.55,2.55,0,0,1,2.54-3.23l58.57.32a4.06,4.06,0,0,1,3.73,3.22l9.53,47.87A2.53,2.53,0,0,1,390.4,333.43Zm-56.55-6.15L386,327l-8.27-41.52-52.27-.22Z" class="cls-8"/><path d="M464.24,333l-56.56.35a4,4,0,0,1-3.71-3.18l-9.51-47.75a2.48,2.48,0,0,1,2.44-3.18l56.7.32a4,4,0,0,1,3.63,3.17l9.37,47.1A2.47,2.47,0,0,1,464.24,333Zm-54.76-6.05,50.5-.24-8.13-40.86-50.6-.21Z" class="cls-8"/><path d="M535.75,332.53l-54.78.34a3.9,3.9,0,0,1-3.6-3.13l-9.36-47a2.43,2.43,0,0,1,2.36-3.13l54.9.31a3.88,3.88,0,0,1,3.53,3.12L538,329.41A2.42,2.42,0,0,1,535.75,332.53Zm-53.06-6,48.92-.24-8-40.2-49-.21Z" class="cls-8"/><path d="M605,332.1l-53.08.33a3.81,3.81,0,0,1-3.49-3.08l-9.21-46.25a2.37,2.37,0,0,1,2.27-3.08l53.2.3a3.79,3.79,0,0,1,3.43,3.07L607.24,329A2.37,2.37,0,0,1,605,332.1Zm-51.43-5.87L601,326l-7.88-39.58-47.49-.2Z" class="cls-8"/><path d="M672.2,331.68l-51.46.32a3.73,3.73,0,0,1-3.4-3l-9.06-45.53a2.32,2.32,0,0,1,2.19-3l51.58.29a3.72,3.72,0,0,1,3.33,3l9,44.94A2.31,2.31,0,0,1,672.2,331.68Zm-49.88-5.78,45.95-.22-7.76-39-46-.19Z" class="cls-8"/><path d="M248.44,400.55l-62.29,1.26a4.22,4.22,0,0,1-4.05-3.3l-10-50.2a2.71,2.71,0,0,1,2.73-3.38l62.43-.52a4.18,4.18,0,0,1,4,3.28l9.85,49.48A2.69,2.69,0,0,1,248.44,400.55ZM188.2,395l55.62-1-8.55-42.91-55.72.54Z" class="cls-8"/><path d="M327.07,399l-60.22,1.21a4.1,4.1,0,0,1-3.93-3.24l-9.83-49.35a2.65,2.65,0,0,1,2.62-3.34l60.37-.5a4.11,4.11,0,0,1,3.84,3.23l9.69,48.67A2.63,2.63,0,0,1,327.07,399Zm-58.27-5.45,53.78-1-8.4-42.21-53.88.53Z" class="cls-8"/><path d="M403.15,397.44l-58.27,1.17a4,4,0,0,1-3.82-3.19l-9.66-48.54a2.58,2.58,0,0,1,2.53-3.27l58.4-.49a4,4,0,0,1,3.73,3.18l9.53,47.87A2.57,2.57,0,0,1,403.15,397.44Zm-56.4-5.38,52-1-8.27-41.52-52.12.51Z" class="cls-10"/><path d="M476.78,396l-56.4,1.14a3.92,3.92,0,0,1-3.7-3.14l-9.51-47.75A2.52,2.52,0,0,1,409.6,343l56.54-.47a3.91,3.91,0,0,1,3.62,3.13l9.38,47.1A2.51,2.51,0,0,1,476.78,396Zm-54.62-5.31,50.37-.94-8.13-40.85-50.46.49Z" class="cls-8"/><path d="M548.09,394.52l-54.63,1.1a3.83,3.83,0,0,1-3.59-3.09l-9.36-47a2.47,2.47,0,0,1,2.35-3.17l54.76-.45a3.8,3.8,0,0,1,3.51,3.07l9.23,46.37A2.45,2.45,0,0,1,548.09,394.52Zm-52.92-5.25,48.79-.91-8-40.21-48.87.48Z" class="cls-8"/><path d="M617.19,393.13l-52.94,1.06a3.74,3.74,0,0,1-3.49-3l-9.21-46.25a2.42,2.42,0,0,1,2.27-3.12l53-.44a3.73,3.73,0,0,1,3.42,3L619.38,390A2.41,2.41,0,0,1,617.19,393.13ZM565.89,388l47.27-.89-7.88-39.58-47.36.46Z" class="cls-8"/><path d="M684.17,391.78l-51.32,1a3.66,3.66,0,0,1-3.39-3l-9.07-45.54a2.36,2.36,0,0,1,2.19-3.07l51.43-.43a3.66,3.66,0,0,1,3.33,3l8.95,44.94A2.36,2.36,0,0,1,684.17,391.78Zm-49.75-5.11,45.83-.86-7.76-39-45.91.45Z" class="cls-8"/><path d="M261.61,466.72l-62.11,2.12a4.15,4.15,0,0,1-4.05-3.25l-10-50.2a2.75,2.75,0,0,1,2.71-3.43l62.26-1.39a4.11,4.11,0,0,1,3.95,3.24l9.86,49.48A2.75,2.75,0,0,1,261.61,466.72ZM201.53,462,257,460.19l-8.54-42.91-55.57,1.31Z" class="cls-8"/><path d="M340,464l-60.06,2a4,4,0,0,1-3.92-3.19l-9.83-49.36a2.69,2.69,0,0,1,2.61-3.38l60.2-1.34a4,4,0,0,1,3.84,3.19l9.69,48.66A2.68,2.68,0,0,1,340,464Zm-58.12-4.66,53.64-1.76-8.4-42.2-53.74,1.27Z" class="cls-8"/><path d="M415.89,461.44l-58.11,2a4,4,0,0,1-3.8-3.14l-9.67-48.54a2.62,2.62,0,0,1,2.52-3.32l58.25-1.3a3.92,3.92,0,0,1,3.71,3.13l9.54,47.87A2.61,2.61,0,0,1,415.89,461.44Zm-56.25-4.61,51.89-1.7-8.26-41.52-52,1.23Z" class="cls-8"/><path d="M489.32,458.94l-56.25,1.92a3.86,3.86,0,0,1-3.69-3.1L419.87,410a2.56,2.56,0,0,1,2.43-3.26l56.38-1.26a3.84,3.84,0,0,1,3.61,3.09l9.38,47.1A2.56,2.56,0,0,1,489.32,458.94Zm-54.47-4.57,50.23-1.65L477,411.87l-50.32,1.19Z" class="cls-8"/><path d="M560.43,456.51,506,458.37a3.77,3.77,0,0,1-3.59-3.05l-9.35-47a2.5,2.5,0,0,1,2.33-3.21L550,403.9a3.76,3.76,0,0,1,3.51,3l9.23,46.36A2.5,2.5,0,0,1,560.43,456.51ZM507.66,452l48.65-1.59-8-40.21-48.73,1.16Z" class="cls-8"/><path d="M629.34,454.15,576.55,456a3.66,3.66,0,0,1-3.48-3l-9.21-46.26a2.45,2.45,0,0,1,2.25-3.16L619,402.37a3.65,3.65,0,0,1,3.4,3L631.52,451A2.43,2.43,0,0,1,629.34,454.15Zm-51.16-4.48,47.14-1.54-7.88-39.58-47.23,1.11Z" class="cls-8"/><path d="M696.13,451.87,645,453.62a3.6,3.6,0,0,1-3.39-3l-9.06-45.53a2.39,2.39,0,0,1,2.17-3.11l51.3-1.14a3.57,3.57,0,0,1,3.31,2.94l9,44.95A2.39,2.39,0,0,1,696.13,451.87Zm-49.61-4.44,45.7-1.49-7.76-39L638.68,408Z" class="cls-8"/><path d="M274.79,532.88l-61.94,3a4.07,4.07,0,0,1-4-3.2l-10-50.2a2.81,2.81,0,0,1,2.71-3.48l62.09-2.26a4.05,4.05,0,0,1,3.94,3.2l9.85,49.48A2.78,2.78,0,0,1,274.79,532.88ZM214.87,529l55.32-2.6-8.55-42.91-55.41,2.09Z" class="cls-8"/><path d="M353,529.1,293.09,532a4,4,0,0,1-3.91-3.15l-9.83-49.36a2.73,2.73,0,0,1,2.61-3.42l60-2.18a3.94,3.94,0,0,1,3.82,3.14l9.69,48.66A2.71,2.71,0,0,1,353,529.1Zm-58-3.86,53.48-2.51-8.4-42.2-53.58,2Z" class="cls-8"/><path d="M428.63,525.45l-57.94,2.8a3.88,3.88,0,0,1-3.8-3.1l-9.66-48.54a2.66,2.66,0,0,1,2.51-3.36l58.08-2.11a3.85,3.85,0,0,1,3.71,3.09l9.53,47.87A2.65,2.65,0,0,1,428.63,525.45Zm-56.09-3.84,51.75-2.43L416,477.67l-51.84,1.95Z" class="cls-8"/><path d="M501.86,521.92l-56.09,2.71a3.78,3.78,0,0,1-3.68-3l-9.51-47.76a2.61,2.61,0,0,1,2.41-3.31l56.23-2a3.77,3.77,0,0,1,3.6,3l9.38,47.1A2.59,2.59,0,0,1,501.86,521.92Zm-54.32-3.83,50.09-2.34L489.5,474.9l-50.18,1.89Z" class="cls-8"/><path d="M572.77,518.49l-54.32,2.63a3.7,3.7,0,0,1-3.58-3l-9.35-47a2.54,2.54,0,0,1,2.33-3.25l54.45-2a3.69,3.69,0,0,1,3.5,3L575,515.25A2.53,2.53,0,0,1,572.77,518.49Zm-52.62-3.8,48.51-2.27-8-40.21L512.05,474Z" class="cls-8"/><path d="M641.49,515.18l-52.64,2.54a3.62,3.62,0,0,1-3.48-3l-9.21-46.25a2.49,2.49,0,0,1,2.25-3.2l52.77-1.92a3.62,3.62,0,0,1,3.4,3L643.67,512A2.49,2.49,0,0,1,641.49,515.18Zm-51-3.78,47-2.21-7.88-39.58-47.1,1.78Z" class="cls-8"/><path d="M708.1,512l-51,2.46a3.52,3.52,0,0,1-3.37-2.91L644.62,466a2.43,2.43,0,0,1,2.17-3.14L697.94,461a3.52,3.52,0,0,1,3.31,2.91l9,44.94A2.43,2.43,0,0,1,708.1,512Zm-49.48-3.76,45.57-2.13-7.76-39-45.65,1.72Z" class="cls-8"/><path d="M288,599l-61.77,3.86a4,4,0,0,1-4-3.15l-10-50.2a2.85,2.85,0,0,1,2.7-3.53l61.91-3.12a4,4,0,0,1,3.93,3.15l9.86,49.48A2.83,2.83,0,0,1,288,599ZM228.21,596l55.16-3.37-8.55-42.91-55.26,2.86Z" class="cls-8"/><path d="M365.94,594.17l-59.73,3.73a3.89,3.89,0,0,1-3.9-3.1l-9.83-49.36a2.78,2.78,0,0,1,2.6-3.46L355,539a3.87,3.87,0,0,1,3.81,3.1l9.69,48.66A2.76,2.76,0,0,1,365.94,594.17Zm-57.8-3.07,53.34-3.25-8.41-42.21-53.43,2.77Z" class="cls-8"/><path d="M441.38,589.46l-57.78,3.61a3.8,3.8,0,0,1-3.79-3.05l-9.67-48.55a2.71,2.71,0,0,1,2.5-3.4l57.92-2.92a3.79,3.79,0,0,1,3.71,3.05l9.53,47.87A2.7,2.7,0,0,1,441.38,589.46Zm-55.94-3.08,51.6-3.15-8.27-41.51-51.69,2.68Z" class="cls-8"/><path d="M514.4,584.9l-55.93,3.49a3.71,3.71,0,0,1-3.68-3l-9.51-47.76a2.65,2.65,0,0,1,2.41-3.35l56.07-2.83a3.7,3.7,0,0,1,3.59,3l9.38,47.1A2.63,2.63,0,0,1,514.4,584.9Zm-54.17-3.08,49.95-3.05-8.13-40.85L452,540.51Z" class="cls-8"/><polygon points="219.91 270.11 156.44 269.65 153.73 256.05 217.24 256.69 219.91 270.11" class="cls-11"/><polygon points="300 270.69 238.66 270.25 236 256.88 297.38 257.5 300 270.69" class="cls-12"/><polygon points="377.46 271.26 318.13 270.83 315.52 257.69 374.88 258.28 377.46 271.26" class="cls-13"/><polygon points="452.4 271.81 395 271.39 392.42 258.46 449.86 259.04 452.4 271.81" class="cls-14"/><polygon points="524.95 272.33 469.38 271.93 466.84 259.21 522.45 259.77 524.95 272.33" class="cls-15"/><polygon points="595.22 272.85 541.39 272.45 538.9 259.94 592.76 260.48 595.22 272.85" class="cls-16"/><polygon points="663.31 273.34 611.15 272.96 608.69 260.64 660.89 261.17 663.31 273.34" class="cls-17"/><polygon points="657.6 244.63 150.05 237.58 144.94 211.88 653.02 221.62 657.6 244.63" class="cls-8"/><g class="cls-6"><path d="M522.17,420.45c-113.65-61.76-221.36-13.75-298.91-93-39.77-40.62-52.52-95.46-54.82-143.94l-50-1.26c-8.89-.22-14.71,6.66-13,15.37L189,617.1c1.73,8.71,10.23,15.28,19,14.69l469.66-32.06C626,494.9,569,445.9,522.17,420.45Z" class="cls-8"/></g><path d="M358.05,388.81a2.84,2.84,0,0,1-1.66-.54l-13.69-9.92a2.84,2.84,0,0,1,3.33-4.59l11.64,8.44,33.44-36.58a2.83,2.83,0,1,1,4.18,3.83l-35.15,38.44A2.81,2.81,0,0,1,358.05,388.81Z" class="cls-18"/><path d="M219.85,424.12l36.29-62.59a2,2,0,0,1,2.22-1l50.77,11.86a2,2,0,0,1,1.26,3.05l-42.11,67.34a2,2,0,0,1-2.41.83l-44.62-16.12Z" class="cls-19"/><path d="M228.78,417l29.38-50.69a1.65,1.65,0,0,1,1.8-.77l41.11,9.6a1.65,1.65,0,0,1,1,2.48L268,432.15a1.64,1.64,0,0,1-1.95.68l-36.13-13.05Z" class="cls-20"/><path d="M266.84,366.91l2.33-4.06a1.48,1.48,0,0,1,1.61-.71l21.15,4.76a1.48,1.48,0,0,1,.95,2.2l-2.59,4.42a1.5,1.5,0,0,1-1.63.69l-20.89-5.11A1.49,1.49,0,0,1,266.84,366.91Z" class="cls-21"/><path d="M294.53,384.34h-.09l-37.23-8.79a.86.86,0,0,1-.64-1,.88.88,0,0,1,1-.64l37.23,8.79a.87.87,0,0,1,.64,1A.86.86,0,0,1,294.53,384.34Z" class="cls-22"/><path d="M292.2,388l-.11,0-37-9.13a.85.85,0,0,1-.62-1,.84.84,0,0,1,1-.62l37,9.13a.85.85,0,0,1-.3,1.68Z" class="cls-22"/><path d="M272.68,392l-.13,0-20.11-5.55a.86.86,0,0,1,.45-1.65L273,390.29a.86.86,0,0,1-.33,1.68Z" class="cls-22"/><path d="M268.36,399.23l-.12,0-20.12-5.55a.86.86,0,0,1-.6-1.06.87.87,0,0,1,1-.6l20.12,5.55a.86.86,0,0,1-.33,1.68Z" class="cls-22"/><path d="M263.83,406.48a.61.61,0,0,1-.13,0l-20.12-5.55a.86.86,0,0,1,.46-1.65l20.12,5.55a.86.86,0,0,1,.59,1.06A.85.85,0,0,1,263.83,406.48Z" class="cls-22"/><path d="M281.23,414.5s3.89-7.3,6.23-7.16a5.64,5.64,0,0,0,4-1.62s4.26-9.81,5.22-8.34,2.74,20.23-9,24.7S281.23,414.5,281.23,414.5Z" class="cls-23"/><path d="M84.53,353.45c-2.44.92-39.59,15.69-47.22,54.47-.62,3.13-6.59,36.44,16,60,25.34,26.39,74.11,25.74,93.48,3.68A39.74,39.74,0,0,0,155,455.93l-5.1-13.55c-6.23-7.52-14.7-9.3-19.23-10.41-11.16-2.75-19.58,2.22-26-3.16-3.54-3-4.24-7.27-4.87-11.09-2.14-13,5.22-21.07,5.76-29.11.4-6,2.5-19.18-5.34-27.77C95.3,355.41,88.42,353.93,84.53,353.45Z" class="cls-24"/><path d="M70.05,785.56c-.43-2.39-8.14-4.55-11.95-1.35-1.9,1.59-3.2,4.8-2.11,6.26.4.53-1.23,1.46.33,1.47C61.52,792,70.49,787.93,70.05,785.56Z" class="cls-25"/><path d="M62,786.43l-7.92-1.12c3.67-4.43,3-18.51,3-18.51l8.43,1.88s-1,3.87-2.59,9.57A37.82,37.82,0,0,0,62,786.43Z" class="cls-26"/><path d="M62.68,785.45s-9.55-2.2-10.58-.31-1.83,7,4.22,6.8S63.22,787.06,62.68,785.45Z" class="cls-27"/><path d="M178.83,794.51c-.76-2.3-8.7-3.36-12,.34-1.65,1.83-2.5,5.2-1.21,6.49.47.47-1,1.61.54,1.41C171.28,802.09,179.59,796.8,178.83,794.51Z" class="cls-28"/><path d="M171,796.5h-8c3-4.89.38-18.74.38-18.74l8.61.68s-.41,4-1.23,9.84A37.58,37.58,0,0,0,171,796.5Z" class="cls-29"/><path d="M191.7,493.73a370.48,370.48,0,0,1,12.42,56.82c9.72,70.74-11,73-7.09,151.39,1.23,25-21.68,82.72-23.7,84a24.42,24.42,0,0,1-3.16.13,31.52,31.52,0,0,1-8.07-1.35c-3.63-.63-16.72-36.07-13.68-57.14,2.14-14.91,1.52-30.92.27-62.93-.2-5.18-13.47-100.91-13.47-100.91-4,35.43-8.68,65.54-12.7,88.88-12.93,75-55,120.38-57.17,121.11-.43.18-4.38,1.61-7.6-.52A5.22,5.22,0,0,1,55.82,771c-1.12-.88.34-74.87,13.16-130.56,18.61-80.82,10.51-99.74,16.41-135.84C90.49,473.4,191.7,493.73,191.7,493.73Z" class="cls-30"/><path d="M116.52,347.14c12.36-.36,40.76-4.72,56.41,9.35.27.25-2.94,2-1.36,3.81a102.09,102.09,0,0,1,11.05,15.85,106.2,106.2,0,0,1,9.28,23,197.48,197.48,0,0,1,7.33,40.07c2.86,37.61,0,55-2.55,66.76-11.17,5.74-40,16-74.27,10.91a116,116,0,0,1-37-12.2C94.29,477.7,87.3,463.28,84,450c-4.7-19-4.78-17.52-8.64-32.57C69,392.56,67.94,367.18,72.32,362,84.15,348,105.45,347.47,116.52,347.14Z" class="cls-31"/><path d="M171.51,795.43s-9.76-.84-10.51,1.18-.85,7.15,5.13,6.14S172.27,797,171.51,795.43Z" class="cls-32"/><path d="M151.62,333.61c3.83-6.47,1.8-14.5,1.41-16.1-1.61-6.69-2.2-7.7-3.45-9.12l-1.75-1.85-.23-.17a25.42,25.42,0,0,0-6.76-2.25c-3.14-.16-9.54,11.11-13.2,28.48-.3.62-.59,1.25-.88,1.88-1.82,3.94-3.38,7.82-4.72,11.6-21.24,1.79-24.19,4.29-24.28,5.73-.2,3,11.9,6.53,21,7.86,19.86,2.91,40.26-2.33,40.17-6,0-1.61-4-3.71-20.82-5.92.4-2.78.79-5.57,1.18-8.35C140.66,339.07,148.8,338.38,151.62,333.61Z" class="cls-33"/><path d="M155.29,303.31c-1.43,5.3-5.44,10.31-7,10.88a9,9,0,0,0-2.48,1.58,3,3,0,0,0-.47.55c-2.06,3,2.21,8.39.79,9.61-1,.89-4.26-1.53-4.94-.7s1.87,3.4,1.13,4.33c-.56.71-2.21-.51-3.7.4-.75.45-.71,1-1.82,2.68a17.33,17.33,0,0,1-2,2.52c-2.66,2.63-8.16,2.38-8.83.87-.18-.42.13-.65.16-1.89a9.46,9.46,0,0,0-.39-2.6c-.6-2.08-2.86-4-5-6.63-3.92-4.78-4.44-8.1-4.57-9.21,0-.4-.06-.69-.07-.91-.22-4.24,1.31-10,4-13.05,4.52-5.14,10.42-.56,17.42-5,8.08-5.09,6.81-15.34,10.49-15.45C152.17,281.19,157.94,293.51,155.29,303.31Z" class="cls-34"/><path d="M144.59,324.18c-.82-2.14-3.56-1.07-4.18,1.24s1,5.31,3.26,5.43S145.7,327.05,144.59,324.18Z" class="cls-35"/><path d="M89.32,487.51h0a.25.25,0,0,1-.23-.29c1.46-13.17-1.27-22.73-3.67-31.16-.59-2.07-1.15-4-1.64-6-2.67-10.76-3.83-14.92-5.07-19.31-.81-2.87-1.64-5.83-2.93-10.77a.27.27,0,0,1,.52-.14c1.29,4.94,2.12,7.9,2.92,10.76,1.24,4.4,2.41,8.56,5.08,19.33.48,2,1,3.91,1.63,6,2.42,8.49,5.16,18.1,3.69,31.37A.28.28,0,0,1,89.32,487.51Z" class="cls-36"/><path d="M144.57,320l2,4.73s1.37,4.56,4.57,3.54a3.78,3.78,0,0,0,2.8-3.48,18.19,18.19,0,0,1,1,6.16c0,2.62,0,5.42-2.05,7.57a7.83,7.83,0,0,1-5.36,2.29s-1.19,0-5.68-2.13c0,0,6.15-2.37,6.46-3.23.86-2.36-2.14-4.56-3.31-10.17A20.43,20.43,0,0,1,144.57,320Z" class="cls-34"/><path d="M281.08,413a24.76,24.76,0,0,1,8.11,10.09c-3.29,7.71-10.74,22-26.16,32.58-25.29,17.3-62.37,17.89-88.2-1.85-30.86-23.57-36-68.78-23.06-88.14,1.5-2.23,6.4-9.56,14-10.4,4.81-.53,11.35,1.46,21.69,13.56,21.55,25.23,13.94,41,26.67,48.37C233.24,428.25,261.61,399.35,281.08,413Z" class="cls-37"/><path d="M194.21,464.38h-.05c-.31-.07-30.54-7-44.13-44.51a.27.27,0,0,1,.5-.18c7.05,19.44,18.56,30.41,27,36.19,9.13,6.27,16.68,8,16.76,8a.28.28,0,0,1,.2.32A.27.27,0,0,1,194.21,464.38Z" class="cls-36"/><path d="M634.35,773.89s.74,5.92.24,7.9-17.7,3.42-23.54,2.73,3.47-6.66,7.2-7.78S634.35,773.89,634.35,773.89Z" class="cls-38"/><path d="M625.69,764l1.81,11.87s4.62,2.08,6.85,0l.24-12.43Z" class="cls-39"/><path d="M722.68,763.49s-3.65,2.71-2.68,6,9.49,16.25,15.56,19.94,4.17-4,2.4-8.79-6.28-15.33-8-17.1S722.68,763.49,722.68,763.49Z" class="cls-40"/><path d="M716.11,750.45c1.76,4.91,3.46,9,4.79,11.94,2.94,6.6,4.54,9.08,6.36,11.22,1.59,1.87,5.34,5.86,6.35,5.2s-1.72-5.53-7-19.73c-.77-2.06-3.19-8.63-3.19-8.63Z" class="cls-41"/><path d="M589.65,544.91a308.79,308.79,0,0,0-.66,54.84c2.36,30.34,8.43,49.55,16,81.9,4.66,19.77,10.92,48.87,16.59,85.27a16,16,0,0,0,10.17,2,15.33,15.33,0,0,0,6.11-2.32c14.88-45.46,10.48-73.63,3.3-91.18-3.06-7.49-6.77-13.39-8.75-24.89-2.62-15.21.62-23.72,5.25-59,3.3-25.12,2.73-29,.53-32.77C629.45,543.72,602.62,544,589.65,544.91Z" class="cls-42"/><path d="M640.86,550.19C650,597.26,658.92,622,665.69,636a235.7,235.7,0,0,1,12.51,30.53,249.9,249.9,0,0,1,7.6,29.07c3.14,14.43,10.9,35.49,31.8,63.12.26.16,3.82,2.17,7.23.38a7.07,7.07,0,0,0,2.93-3c-2.74-26.42-5.87-48.61-8.59-65.75-.58-3.59-3.09-19.31-7-40.08-1.54-8.13-3.8-20-6.51-32.27-3.37-15.23-8.55-36-16.52-60.79Z" class="cls-43"/><path d="M496,435.12l6.17-7.23c1,.75,15.21,11.24,32.21,5.1,11.7-4.22,17.28-15.09,20.86-22,10.75-20.84.82-33.66,13.44-48.56,3.5-4.14,10.75-9.56,16.06-8.95,12.67,1.46,24.8,37.25,17,67.81-1.58,6.17-10.27,40.14-39.63,47.76C538.42,475.17,510.52,461.74,496,435.12Z" class="cls-44"/><path d="M633.1,364c-5.17-4.78-15.06-10.29-20-23.09-1.49-3.85-6.78-17.51,1-27.95,4.63-6.21,13.24-10.42,20.82-8.93,6.48,1.28,7.49,5.79,18.5,14.87,4.28,3.54,11.17,9.22,18.84,12.38,13.13,5.41,21,.32,34.21.9,16.2.71,35,9.75,44.08,22.9,16.09,23.33-7.22,47,10.41,74.34,5.77,8.95,8.62,6.94,22.3,24.28s20.55,26,19.33,36.67C800.9,505.15,785,519.25,770,520.21c-14.63.94-23.93-10.57-31.37-5.53-5.3,3.58-2.27,10.54-7.9,18.92-7.26,10.79-21.52,12.94-23.82,13.29-21.38,3.22-50.2-21.84-62.44-51.54C622.42,441.79,661.2,390,633.1,364Z" class="cls-45"/><path d="M641.19,675.41c-3.06-7.49-6.77-13.39-8.75-24.89-2.62-15.21.62-23.72,5.25-59,3.3-25.12,2.73-29,.53-32.77-4.77-8.18-14.87-11.82-25.18-13.3.14.53.28,1.06.39,1.57,5.41,24.7-15.24,39.78-5.92,66.93,4.59,13.39,11.91,16.46,13.62,32,1.6,14.55-4.2,17.58-3,30.8,1.85,19.77,15.89,24.55,19.55,39.69,2.37,9.84.37,24.22-17,45,.29,1.79.58,3.59.86,5.42a16,16,0,0,0,10.17,2,15.33,15.33,0,0,0,6.11-2.32C652.77,721.13,648.37,693,641.19,675.41Z" class="cls-46"/><path d="M586.91,389c-19.64,20.48-12.55,53.54-25.87,57.11-4.07,1.09-4.29-2.11-14.61-3.95-15.09-2.7-21.22,3-31.87.83-4.42-.9-10.33-3.29-16.75-10L496,435.12c14.5,26.62,42.4,40.05,66.09,33.9,29.36-7.62,38-41.59,39.63-47.76,3.67-14.34,3-29.83-.16-42.39A46.3,46.3,0,0,0,586.91,389Z" class="cls-47"/><path d="M570.63,360.46c1.36-2.12,5.7-8,24.1-12.32a111.93,111.93,0,0,1,30.76-3.4A106.27,106.27,0,0,1,643,346.91c16.8,3.64,50.3,16.44,51.47,33.87.83,12.44-15.76,13.24-25.15,35.28-6.84,16.05-6.8,36.1.66,51.7,6,12.52,16.59,21.92,24.63,29.06,12.07,10.71,18.32,12.35,22.37,21.94,4.41,10.45,0,15.54,5.44,22.69,5.87,7.68,12.76,4.11,22.72,11.88,10.2,7.95,6.57,14.5,15.86,23.29,13.49,12.78,31.38,8.63,32.21,14.37.72,5-12,11.66-22.79,14.38-21.39,5.38-40-3.66-45.6-6.45-15.36-7.71-12.7-12.71-24.42-18.59-19.6-9.85-33,1.11-77.67,2.24-24.18.61-36.41.75-43.11-7.43-6.12-7.48-2.9-15.68.77-51h0c1.18-11.79,3.65-36.5,3.66-50.58,0-8.32-2.87-21.92-8.64-49.11-.35-1.6-3.47-16.29-6-35.91C567.11,370.85,567.43,365.42,570.63,360.46Z" class="cls-48"/><g class="cls-6"><path d="M761,576.62c-9.29-8.79-5.66-15.34-15.86-23.29-10-7.77-16.85-4.2-22.72-11.88-5.47-7.15-1-12.24-5.44-22.69-4.05-9.59-10.3-11.23-22.37-21.94-8-7.14-18.64-16.54-24.63-29.06-10.39-21.72-3.12-44.92-.66-51.7A75.43,75.43,0,0,1,698.94,379c-.56-.6-27.59,23.46-28.29,22.74-38.12,5.24-34,2.52-36.72,9-6.36,15.07,3.7,20.61,4,64.09.12,20.79-2.12,29,4.63,37.67,7.71,9.92,16.6,6.85,27.75,19.82,8.57,10,7.2,16.29,15.2,20.48,8.6,4.52,14.08-.74,23.78,1.33,16.22,3.45,19.68,22.15,30.4,32.37,8.1,7.74,23.09,13.14,52.64,7.34a4.14,4.14,0,0,0,.88-2.88C792.34,585.25,774.45,589.39,761,576.62Z" class="cls-49"/></g><path d="M630.58,323.35s1.93,15.37,7.6,18.89S653,350.36,654,351.6s-35.14,5.14-53-3.9c5.9-1.23,7.51-1.69,7.51-1.69a32.82,32.82,0,0,0,7.58-3,25.86,25.86,0,0,0,8.35-7.71l-.07-8.51Z" class="cls-50"/><path d="M631.45,328.79s-3.7,5.08-9.5,3c-5.2-1.89-2.1-15.31,2-16.84a7.31,7.31,0,0,1,5.59.77c1.18.74,4.35,4.68,2.54,9.09,1.31-.38,2.46,0,2.75.61.37.83-.74,1.95-1,2.2A4.46,4.46,0,0,1,631.45,328.79Z" class="cls-51"/><path d="M760.62,524.94a29.35,29.35,0,0,1-8.94,23.21L430.27,424.33l9-23.21Z" class="cls-52"/><path d="M756.63,541.85a27.9,27.9,0,0,0,3.39-8.71L436.39,408.46,433,417.19Z" class="cls-53"/><path d="M439.22,401.12c1.52,9.37-1.41,17.13-9,23.21L361.7,385.45a.82.82,0,0,1,.58-1.51Z" class="cls-54"/><path d="M361.7,385.45l26.66,15.12a21.82,21.82,0,0,0,3.84-9.95l-29.92-6.68A.82.82,0,0,0,361.7,385.45Z" class="cls-55"/><path d="M507.59,452.32S496,446,491.32,441.62s-.31,6.43,2.22,9.46S510.4,459.83,507.59,452.32Z" class="cls-56"/><path d="M669.25,356c11.47,5.69,47.55,22.74,55.42,71.94s-34.11,74.77-34.11,74.77l-9.84-6.55s10.5-76.75-26.89-98.4S669.25,356,669.25,356Z" class="cls-57"/><path d="M683.05,497.68c-2.33.41-3.64,2.38-8.89-.24s-18.36.65-18.36.65,6.56,5.91,13.77,4.59,13.91,2.25,15.81,2.77,2.56-4.52,2.56-4.52Z" class="cls-58"/><path d="M322.39,180.43c0,27.35-21.38,48.86-48.72,48-28.44-.87-52.37-25.44-52.37-54.84s23.93-50.74,52.37-47.78C301,128.68,322.39,153.08,322.39,180.43Z" class="cls-59"/><path d="M329.78,178.07c0,27.35-21.39,48.86-48.72,48-28.45-.87-52.37-25.44-52.37-54.84s23.92-50.74,52.37-47.77C308.39,126.32,329.78,150.72,329.78,178.07Z" class="cls-60"/><path d="M327.63,177.92c0,26.15-20.46,46.68-46.57,45.84-27.12-.88-49.9-24.33-49.9-52.34s22.78-48.39,49.9-45.61C307.17,128.49,327.63,151.78,327.63,177.92Z" class="cls-61"/><path d="M326.1,177.82c0,25.28-19.8,45.11-45,44.27-26.18-.88-48.14-23.53-48.14-50.55s22-46.71,48.14-44.06C306.3,130,326.1,152.54,326.1,177.82Z" class="cls-62"/><path d="M280.8,136.08h0a2.76,2.76,0,0,1,2.43,2.7v4.66a68.83,68.83,0,0,1,8.07,1.4c2,.47,4,1,5.92,1.67a2.72,2.72,0,0,1,1.85,2.79l-.57,5.84a2.19,2.19,0,0,1-3.13,1.81,34.89,34.89,0,0,0-4-1.48,36.77,36.77,0,0,0-7.49-1.4l-.69,0v13.33c7,2,12.15,4.59,15.48,7.91a16.73,16.73,0,0,1,5,12.35,16.29,16.29,0,0,1-5.49,12.85q-5.52,4.86-15.51,5.46v5.13a2.34,2.34,0,0,1-2.43,2.38h0a2.59,2.59,0,0,1-2.44-2.58v-5.07l-1.09-.05a72.45,72.45,0,0,1-9-.95,59.65,59.65,0,0,1-6.21-1.43,2.68,2.68,0,0,1-2-2.77l.68-7.5a2.37,2.37,0,0,1,3.31-2,48.36,48.36,0,0,0,14.19,3.25l.05-14.83q-10.1-2.49-15.07-7.39a16.94,16.94,0,0,1-5-12.58q0-7.92,5.41-12.22c3.58-2.85,8.68-4.26,15.25-4.26v-4.76A2.21,2.21,0,0,1,280.8,136.08Zm-2.44,17.8a8.21,8.21,0,0,0-4.86,1.71,5,5,0,0,0-1.74,4,5.38,5.38,0,0,0,1.61,4,11.57,11.57,0,0,0,5,2.55Zm4.31,26.85v13.6a7.55,7.55,0,0,0,5.2-1.62,5.8,5.8,0,0,0,1.81-4.57,6.27,6.27,0,0,0-1.68-4.48A12.37,12.37,0,0,0,282.67,180.73Z" class="cls-63"/><path d="M272.91,184c1.52-15,15.33-21.39,13.53-35.21-1.11-8.52-7.57-15.7-14.77-21.31-21.85,2.29-38.75,20.38-38.75,44.05,0,27,22,49.67,48.14,50.55a45.69,45.69,0,0,0,7.44-.37C278.1,211.38,271.6,196.92,272.91,184Z" class="cls-64"/></g></g></svg>