<svg xmlns="http://www.w3.org/2000/svg" xmlns:xlink="http://www.w3.org/1999/xlink" viewBox="0 0 805 805"><defs><style>.cls-1{isolation:isolate}.cls-2{fill:#e2f9d2}.cls-3{fill:url(#linear-gradient)}.cls-4,.cls-8{fill:#d8dee8}.cls-11,.cls-15,.cls-5,.cls-60,.cls-65,.cls-77,.cls-83{opacity:.3}.cls-11,.cls-16,.cls-5,.cls-60,.cls-65,.cls-77,.cls-83{mix-blend-mode:multiply}.cls-5{fill:url(#linear-gradient-2)}.cls-15,.cls-6{fill:#fff}.cls-7{fill:#97a6b7}.cls-8{opacity:.5}.cls-9{fill:url(#linear-gradient-3)}.cls-10{fill:url(#linear-gradient-4)}.cls-12{fill:url(#linear-gradient-5)}.cls-13{fill:url(#linear-gradient-6)}.cls-14{fill:url(#linear-gradient-7)}.cls-15{mix-blend-mode:soft-light}.cls-17{fill:url(#linear-gradient-8)}.cls-18{fill:url(#linear-gradient-9)}.cls-19{fill:url(#linear-gradient-10)}.cls-20{fill:url(#linear-gradient-11)}.cls-21{fill:url(#linear-gradient-12)}.cls-22{fill:url(#linear-gradient-13)}.cls-23{fill:url(#linear-gradient-14)}.cls-24{fill:url(#linear-gradient-15)}.cls-25{fill:url(#linear-gradient-16)}.cls-26{fill:url(#linear-gradient-17)}.cls-27{fill:url(#linear-gradient-18)}.cls-28{fill:url(#linear-gradient-19)}.cls-29{fill:url(#linear-gradient-20)}.cls-30{fill:url(#linear-gradient-21)}.cls-31{fill:url(#linear-gradient-22)}.cls-32{fill:url(#linear-gradient-23)}.cls-33{fill:url(#linear-gradient-24)}.cls-34{fill:url(#linear-gradient-25)}.cls-35{fill:url(#linear-gradient-26)}.cls-36{fill:url(#linear-gradient-27)}.cls-37{fill:url(#linear-gradient-28)}.cls-38{fill:url(#linear-gradient-29)}.cls-39{fill:url(#linear-gradient-30)}.cls-40{fill:url(#linear-gradient-31)}.cls-41{fill:url(#linear-gradient-32)}.cls-42{fill:url(#linear-gradient-33)}.cls-43{fill:url(#linear-gradient-34)}.cls-44{fill:url(#linear-gradient-35)}.cls-45{fill:url(#linear-gradient-36)}.cls-46{fill:url(#linear-gradient-37)}.cls-47{fill:url(#linear-gradient-38)}.cls-48{fill:url(#linear-gradient-39)}.cls-49{fill:url(#linear-gradient-40)}.cls-50{fill:url(#linear-gradient-41)}.cls-51{fill:url(#linear-gradient-42)}.cls-52{fill:url(#linear-gradient-43)}.cls-53{fill:url(#linear-gradient-44)}.cls-54{fill:url(#linear-gradient-45)}.cls-55{fill:url(#linear-gradient-46)}.cls-56{fill:url(#linear-gradient-47)}.cls-57{fill:url(#linear-gradient-48)}.cls-58{fill:url(#linear-gradient-49)}.cls-59{fill:url(#linear-gradient-50)}.cls-60{fill:url(#linear-gradient-51)}.cls-61{fill:url(#linear-gradient-52)}.cls-62{fill:url(#linear-gradient-53)}.cls-63{fill:url(#linear-gradient-54)}.cls-64{fill:url(#linear-gradient-55)}.cls-65{fill:url(#linear-gradient-56)}.cls-66{fill:url(#linear-gradient-57)}.cls-67{fill:url(#linear-gradient-58)}.cls-68{fill:url(#linear-gradient-59)}.cls-69{fill:url(#linear-gradient-60)}.cls-70{fill:#26264f}.cls-71{fill:url(#linear-gradient-61)}.cls-72{fill:url(#linear-gradient-62)}.cls-73{fill:url(#linear-gradient-63)}.cls-74{fill:url(#linear-gradient-64)}.cls-75{fill:url(#linear-gradient-65)}.cls-76{fill:url(#linear-gradient-66)}.cls-77{fill:url(#linear-gradient-67)}.cls-78{fill:url(#linear-gradient-68)}.cls-79{fill:url(#linear-gradient-69)}.cls-80{fill:url(#linear-gradient-70)}.cls-81{fill:url(#linear-gradient-71)}.cls-82{fill:url(#linear-gradient-72)}.cls-83{fill:url(#linear-gradient-73)}</style><linearGradient id="linear-gradient" x1="107.37" x2="672.43" y1="406.13" y2="406.13" gradientUnits="userSpaceOnUse"><stop offset="0" stop-color="#444b8c"/><stop offset="1" stop-color="#26264f"/></linearGradient><linearGradient id="linear-gradient-2" x1="126.1" x2="673.2" y1="405.91" y2="405.91" gradientUnits="userSpaceOnUse"><stop offset="0" stop-color="#e38ddd"/><stop offset="1" stop-color="#9571f6"/></linearGradient><linearGradient id="linear-gradient-3" x1="162.96" x2="168.31" y1="1112.45" y2="714.56" xlink:href="#linear-gradient"/><linearGradient id="linear-gradient-4" x1="175.86" x2="181.19" y1="1110.09" y2="713.6" gradientUnits="userSpaceOnUse"><stop offset="0" stop-color="#aa80f9"/><stop offset="1" stop-color="#6165d7"/></linearGradient><linearGradient id="linear-gradient-5" x1="74.88" x2="290.87" y1="518.46" y2="518.46" xlink:href="#linear-gradient-4"/><linearGradient id="linear-gradient-6" x1="74.88" x2="290.74" y1="552.07" y2="552.07" xlink:href="#linear-gradient-4"/><linearGradient id="linear-gradient-7" x1="187.72" x2="172.93" y1="465.92" y2="803.2" xlink:href="#linear-gradient-2"/><linearGradient id="linear-gradient-8" x1="295.5" x2="-45.6" y1="496.64" y2="686.39" gradientUnits="userSpaceOnUse"><stop offset="0" stop-color="#444b8c"/><stop offset="1" stop-color="#3e4177"/></linearGradient><linearGradient id="linear-gradient-9" x1="302.8" x2="-27.6" y1="519.31" y2="703.11" xlink:href="#linear-gradient-8"/><linearGradient id="linear-gradient-10" x1="309.43" x2="-11.14" y1="540.58" y2="718.91" xlink:href="#linear-gradient-8"/><linearGradient id="linear-gradient-11" x1="318.46" x2="7.58" y1="560.54" y2="733.48" xlink:href="#linear-gradient-8"/><linearGradient id="linear-gradient-12" x1="312.77" x2="-29.99" y1="523.6" y2="714.28" xlink:href="#linear-gradient-8"/><linearGradient id="linear-gradient-13" x1="319.32" x2="-12.7" y1="546.05" y2="730.74" xlink:href="#linear-gradient-8"/><linearGradient id="linear-gradient-14" x1="325.24" x2="3.11" y1="567.1" y2="746.3" xlink:href="#linear-gradient-8"/><linearGradient id="linear-gradient-15" x1="333.6" x2="21.2" y1="586.83" y2="760.61" xlink:href="#linear-gradient-8"/><linearGradient id="linear-gradient-16" x1="330.18" x2="-14.21" y1="549.6" y2="741.18" xlink:href="#linear-gradient-8"/><linearGradient id="linear-gradient-17" x1="335.97" x2="2.38" y1="571.84" y2="757.41" xlink:href="#linear-gradient-8"/><linearGradient id="linear-gradient-18" x1="341.19" x2="17.54" y1="592.69" y2="772.74" xlink:href="#linear-gradient-8"/><linearGradient id="linear-gradient-19" x1="348.86" x2="34.99" y1="612.21" y2="786.81" xlink:href="#linear-gradient-8"/><linearGradient id="linear-gradient-20" x1="347.72" x2="1.75" y1="574.65" y2="767.11" xlink:href="#linear-gradient-8"/><linearGradient id="linear-gradient-21" x1="352.75" x2="17.63" y1="596.69" y2="783.11" xlink:href="#linear-gradient-8"/><linearGradient id="linear-gradient-22" x1="357.27" x2="32.13" y1="617.36" y2="798.23" xlink:href="#linear-gradient-8"/><linearGradient id="linear-gradient-23" x1="365.49" x2="17.82" y1="602.08" y2="795.48" xlink:href="#linear-gradient-8"/><linearGradient id="linear-gradient-24" x1="369.74" x2="32.98" y1="623.89" y2="811.23" xlink:href="#linear-gradient-8"/><linearGradient id="linear-gradient-25" x1="373.54" x2="46.81" y1="644.34" y2="826.1" xlink:href="#linear-gradient-8"/><linearGradient id="linear-gradient-26" x1="371.17" x2="57.02" y1="650.4" y2="825.16" xlink:href="#linear-gradient-8"/><linearGradient id="linear-gradient-27" x1="113.18" x2="107.55" y1="576.91" y2="705.23" xlink:href="#linear-gradient"/><linearGradient id="linear-gradient-28" x1="163.73" x2="158.21" y1="575.02" y2="700.91" xlink:href="#linear-gradient"/><linearGradient id="linear-gradient-29" x1="214.3" x2="208.88" y1="573.12" y2="696.61" xlink:href="#linear-gradient"/><linearGradient id="linear-gradient-30" x1="263.16" x2="257.85" y1="571.29" y2="692.45" xlink:href="#linear-gradient"/><linearGradient id="linear-gradient-31" x1="113.17" x2="107.45" y1="613.11" y2="743.5" xlink:href="#linear-gradient"/><linearGradient id="linear-gradient-32" x1="163.7" x2="158.09" y1="610.61" y2="738.52" xlink:href="#linear-gradient"/><linearGradient id="linear-gradient-33" x1="214.24" x2="208.74" y1="608.11" y2="733.54" xlink:href="#linear-gradient"/><linearGradient id="linear-gradient-34" x1="263.09" x2="257.69" y1="605.7" y2="728.74" xlink:href="#linear-gradient"/><linearGradient id="linear-gradient-35" x1="113.16" x2="107.36" y1="648.42" y2="780.86" xlink:href="#linear-gradient"/><linearGradient id="linear-gradient-36" x1="163.67" x2="157.97" y1="645.34" y2="775.22" xlink:href="#linear-gradient"/><linearGradient id="linear-gradient-37" x1="214.19" x2="208.6" y1="642.26" y2="769.58" xlink:href="#linear-gradient"/><linearGradient id="linear-gradient-38" x1="263.01" x2="257.53" y1="639.27" y2="764.15" xlink:href="#linear-gradient"/><linearGradient id="linear-gradient-39" x1="113.16" x2="107.26" y1="682.86" y2="817.29" xlink:href="#linear-gradient"/><linearGradient id="linear-gradient-40" x1="163.64" x2="157.86" y1="679.21" y2="811.01" xlink:href="#linear-gradient"/><linearGradient id="linear-gradient-41" x1="214.14" x2="208.47" y1="675.56" y2="804.74" xlink:href="#linear-gradient"/><linearGradient id="linear-gradient-42" x1="113.15" x2="107.16" y1="719.79" y2="856.36" xlink:href="#linear-gradient"/><linearGradient id="linear-gradient-43" x1="163.61" x2="157.73" y1="715.52" y2="849.4" xlink:href="#linear-gradient"/><linearGradient id="linear-gradient-44" x1="214.08" x2="208.32" y1="711.26" y2="842.44" xlink:href="#linear-gradient"/><linearGradient id="linear-gradient-45" x1="264.4" x2="250.25" y1="655.16" y2="977.77" xlink:href="#linear-gradient"/><linearGradient id="linear-gradient-46" x1="1154.18" x2="1160.36" y1="745.31" y2="823.93" gradientTransform="translate(-626.26)" gradientUnits="userSpaceOnUse"><stop offset="0" stop-color="#26264f"/><stop offset="1" stop-color="#444b8c"/></linearGradient><linearGradient id="linear-gradient-47" x1="1170.13" x2="1169" y1="789.08" y2="707.66" gradientTransform="translate(-626.26)" gradientUnits="userSpaceOnUse"><stop offset="0" stop-color="#ab316d"/><stop offset="1" stop-color="#792d3d"/></linearGradient><linearGradient id="linear-gradient-48" x1="1270.91" x2="1277.09" y1="736.14" y2="814.76" xlink:href="#linear-gradient-46"/><linearGradient id="linear-gradient-49" x1="1277.11" x2="1275.98" y1="787.61" y2="706.18" xlink:href="#linear-gradient-47"/><linearGradient id="linear-gradient-50" x1="524.43" x2="584.64" y1="657.18" y2="657.18" gradientUnits="userSpaceOnUse"><stop offset="0" stop-color="#311944"/><stop offset="1" stop-color="#6b3976"/></linearGradient><linearGradient id="linear-gradient-51" x1="528.6" x2="584.64" y1="657.18" y2="657.18" gradientTransform="matrix(1, 0, 0, 1, 0, 0)" xlink:href="#linear-gradient-46"/><linearGradient id="linear-gradient-52" x1="541.15" x2="662.34" y1="651.24" y2="651.24" xlink:href="#linear-gradient-50"/><linearGradient id="linear-gradient-53" x1="-1588.13" x2="-1621.37" y1="312.12" y2="411.83" gradientTransform="matrix(-1, 0.02, 0.02, 1, -1174.94, 15.26)" xlink:href="#linear-gradient-47"/><linearGradient id="linear-gradient-54" x1="433.46" x2="490.31" y1="397.31" y2="633.02" gradientTransform="translate(63.43 -11.79) rotate(-1.25)" xlink:href="#linear-gradient-4"/><linearGradient id="linear-gradient-55" x1="522.39" x2="569.2" y1="476.44" y2="476.44" gradientTransform="translate(63.43 -11.79) rotate(-1.25)" xlink:href="#linear-gradient-4"/><linearGradient id="linear-gradient-56" x1="519.32" x2="566.13" y1="476.44" y2="476.44" gradientTransform="translate(63.43 -11.79) rotate(-1.25)" xlink:href="#linear-gradient-4"/><linearGradient id="linear-gradient-57" x1="480.79" x2="537.64" y1="385.89" y2="621.6" gradientTransform="translate(63.43 -11.79) rotate(-1.25)" xlink:href="#linear-gradient-4"/><linearGradient id="linear-gradient-58" x1="-755.48" x2="-736.99" y1="392.65" y2="422.04" gradientTransform="translate(1312.69 -39.02) rotate(-1.25)" gradientUnits="userSpaceOnUse"><stop offset="0" stop-color="#ff9085"/><stop offset="1" stop-color="#fb6fbb"/></linearGradient><linearGradient id="linear-gradient-59" x1="27.28" x2="5.64" y1="813.81" y2="848.81" gradientTransform="matrix(0.95, -0.31, 0.31, 0.95, 305.88, -406.62)" xlink:href="#linear-gradient-47"/><linearGradient id="linear-gradient-60" x1="-660.43" x2="-680.1" y1="227.6" y2="259.41" gradientTransform="translate(1017.08 -181.99) rotate(-31.5)" xlink:href="#linear-gradient-47"/><linearGradient id="linear-gradient-61" x1="467.45" x2="524.3" y1="389.11" y2="624.82" gradientTransform="translate(63.43 -11.79) rotate(-1.25)" xlink:href="#linear-gradient-4"/><linearGradient id="linear-gradient-62" x1="101.81" x2="34.87" y1="283.15" y2="304.63" gradientUnits="userSpaceOnUse"><stop offset="0" stop-color="#fcb148"/><stop offset=".05" stop-color="#fdba46"/><stop offset=".14" stop-color="#ffc244"/><stop offset=".32" stop-color="#ffc444"/><stop offset=".48" stop-color="#fdb946"/><stop offset=".78" stop-color="#f99c4d"/><stop offset=".87" stop-color="#f8924f"/><stop offset="1" stop-color="#f8924f"/></linearGradient><linearGradient id="linear-gradient-63" x1="155.96" x2="96.2" y1="216.51" y2="348.36" gradientUnits="userSpaceOnUse"><stop offset="0" stop-color="#ffdb44"/><stop offset="1" stop-color="#feef06"/></linearGradient><linearGradient id="linear-gradient-64" x1="144.97" x2="133.44" y1="355.72" y2="292.73" xlink:href="#linear-gradient-62"/><linearGradient id="linear-gradient-65" x1="120.52" x2="168.04" y1="253.76" y2="354.64" xlink:href="#linear-gradient-62"/><linearGradient id="linear-gradient-66" x1="118.63" x2="142.52" y1="232.06" y2="321.61" xlink:href="#linear-gradient-63"/><linearGradient id="linear-gradient-67" x1="106.54" x2="153.97" y1="260.29" y2="360.96" xlink:href="#linear-gradient-62"/><linearGradient id="linear-gradient-68" x1="182.2" x2="124.61" y1="153.95" y2="172.43" xlink:href="#linear-gradient-62"/><linearGradient id="linear-gradient-69" x1="228.79" x2="177.37" y1="96.62" y2="210.05" xlink:href="#linear-gradient-63"/><linearGradient id="linear-gradient-70" x1="219.33" x2="209.41" y1="216.39" y2="162.2" xlink:href="#linear-gradient-62"/><linearGradient id="linear-gradient-71" x1="198.3" x2="239.18" y1="128.67" y2="215.46" xlink:href="#linear-gradient-62"/><linearGradient id="linear-gradient-72" x1="196.67" x2="217.22" y1="110" y2="187.04" xlink:href="#linear-gradient-63"/><linearGradient id="linear-gradient-73" x1="186.27" x2="227.07" y1="134.29" y2="220.9" xlink:href="#linear-gradient-62"/></defs><g class="cls-1"><g id="Capa_1" data-name="Capa 1"><path d="M254.53,14.12C314.76-4.15,434.91-3.06,481.05,33.2,647.09,163.68,735.1,168.45,769.83,226c80.81,134-12.74,332.86-20.78,347.29-19.17,34.43-9.49,80.91-28.84,115.22-33.65,59.67-172.82,91.64-273.56,79.08-84.49-10.53-200,62.51-272.77,14.17-31.86-21.17-58.06-51.44-80.1-84.43-34.13-51.1-5.87-136-19.9-197.49C56.65,424.38,2.5,372.11,2.5,294.27,2.5,75.48,217.13,25.46,254.53,14.12Z" class="cls-2"/><path d="M655.26,78,130.35,47.61c-12.09-.59-23,12.6-23,23.68V747.21c0,15.37,15.7,18.46,27.79,17.22l520.1-53.11c9.5-1,17.17-9.67,17.17-19.43V96.48C672.43,86.72,664.76,78.44,655.26,78Z" class="cls-3"/><path d="M663.9,72.6l-526-25.87c-12.09-.6-21.93,8-21.93,19.14v681.2c0,11.17,9.84,19.2,21.93,18l526-54.13c9.5-1,17.17-9.74,17.17-19.58V91.25C681.07,81.42,673.4,73.07,663.9,72.6Z" class="cls-4"/><path d="M137.94,755.79c-6.52.66-11.84-3.7-11.84-9.71V66.32c0-6,5.32-10.66,11.84-10.35l526,24.84a10.05,10.05,0,0,1,9.3,10.09V692.1a10.75,10.75,0,0,1-9.3,10.59Z" class="cls-5"/><polygon points="663.4 694.92 136.71 744.52 136.71 63.1 665.49 90.49 663.4 694.92" class="cls-6"/><polygon points="519.73 142.03 304.65 135.49 304.65 109.69 519.73 119.26 519.73 142.03" class="cls-7"/><polygon points="302.95 416.26 276.6 417.24 276.6 184.97 302.95 185.03 302.95 416.26" class="cls-4"/><polygon points="353.22 414.4 327.32 415.36 327.32 257.11 353.22 256.85 353.22 414.4" class="cls-4"/><polygon points="402.63 412.56 377.18 413.51 377.18 215.28 402.63 215.21 402.63 412.56" class="cls-4"/><polygon points="451.2 410.76 426.18 411.69 426.18 255.2 451.2 254.96 451.2 410.76" class="cls-4"/><polygon points="498.95 408.99 474.35 409.9 474.35 297.22 498.95 296.79 498.95 408.99" class="cls-4"/><polygon points="545.92 407.24 521.73 408.14 521.73 185.57 545.92 185.63 545.92 407.24" class="cls-4"/><polygon points="592.1 405.53 568.31 406.41 568.31 340.11 592.1 339.5 592.1 405.53" class="cls-4"/><polygon points="637.53 403.84 614.13 404.71 614.13 229.04 637.53 228.92 637.53 403.84" class="cls-4"/><polygon points="637.53 498.3 177.71 523.26 177.71 499.01 637.53 475.91 637.53 498.3" class="cls-4"/><polygon points="637.53 455.47 177.71 476.86 177.71 452.6 637.53 433.09 637.53 455.47" class="cls-4"/><polygon points="637.53 671.55 177.71 710.99 177.71 686.73 637.53 649.16 637.53 671.55" class="cls-4"/><polygon points="354.04 546.78 354.04 638.89 171.99 652.72 171.99 557.71 354.04 546.78" class="cls-8"/><path d="M172,613.17v39.55L354,638.89V567.52c-10.41-3.31-22.92-4.71-32.47,2.13-20,14.36-17.47,21.76-38.34,19.37-16.35-1.88-34.54-3.41-48.57,8.46-8.69,7.36-13.16,14.93-25.7,14.7C197.16,612,183.42,604.61,172,613.17Z" class="cls-4"/><polygon points="637.53 546.32 396.77 561.49 396.77 544.22 637.53 529.77 637.53 546.32" class="cls-4"/><polygon points="637.53 581.36 396.77 598.06 396.77 581.81 637.53 565.78 637.53 581.36" class="cls-4"/><polygon points="637.53 617.37 396.77 635.65 396.77 618.38 637.53 600.82 637.53 617.37" class="cls-4"/><polygon points="233.72 205.73 176.54 205.78 176.54 183.7 233.72 183.86 233.72 205.73" class="cls-4"/><polygon points="233.72 259.75 176.54 260.32 176.54 238.25 233.72 237.88 233.72 259.75" class="cls-4"/><polygon points="233.72 312.48 176.54 313.56 176.54 291.49 233.72 290.61 233.72 312.48" class="cls-4"/><polygon points="233.72 366.5 176.54 368.11 176.54 346.03 233.72 344.63 233.72 366.5" class="cls-4"/><polygon points="233.72 419.23 176.54 421.35 176.54 399.27 233.72 397.37 233.72 419.23" class="cls-4"/><path d="M278.7,496.24,278,731a23.9,23.9,0,0,1-21,23.18L85.34,771.79c-13.23,1.35-24-7.79-24-20.18V498.88c0-11.73,9.6-21.41,21.78-22.58.77-.08,1.56-.1,2.36-.11l172.3-.82A20.73,20.73,0,0,1,278.7,496.24Z" class="cls-9"/><path d="M290.87,496.06l-.72,234.08c0,11.48-8.81,21.86-20.4,23.05L99.27,770.64c-13.13,1.35-24.42-7.71-24.41-20.06l0-251.89c0-11.69,9.8-21.34,21.9-22.51.77-.07,1.83-.1,2.62-.1l171.12-.82C282.16,475.21,290.9,484.51,290.87,496.06Z" class="cls-10"/><g class="cls-11"><path d="M290.87,495.73l-.18,58.83L74.88,561.65V498.33c0-11.41,9.36-20.7,21-22.22a26.71,26.71,0,0,1,3.47,0l171.12-.82C282.16,475.21,290.9,484.17,290.87,495.73Z" class="cls-12"/><path d="M290.74,536.48l-.07,24.45c-20.94,6.62-59.47,12-103.69,13.68-19.52.75-38.4.72-55.46,0-22.72-.94-41.91-3.09-56.64-6.13V542.19c5.55-1.36,10.64-2.63,16.69-3.82,13.14-2.6,29-4.78,46.25-6.39,15.44-1.44,32.2-2.42,49.49-2.81,22.25-.52,42.91,0,60.66,1.29,1.38.09,2.76.2,4.1.31,4.25.35,8.33.74,12.21,1.19,1.37.15,2.72.31,4,.48,3,.38,5.65.8,8.42,1.24C282,534.51,286.75,535.45,290.74,536.48Z" class="cls-13"/></g><path d="M280.3,542.14a6.6,6.6,0,0,1-6.37,6.52L96.82,554.08a6.74,6.74,0,0,1-7.2-6.54l0-42.3a7.1,7.1,0,0,1,7.2-6.85l177.24-2.15a6.22,6.22,0,0,1,6.34,6.26Z" class="cls-6"/><path d="M278,543a4.21,4.21,0,0,1-4.05,4.18l-177,5.26a4.3,4.3,0,0,1-4.57-4.19l0-42.67a4.53,4.53,0,0,1,4.57-4.39l177.17-2.27a4,4,0,0,1,4,4Z" class="cls-14"/><path d="M200.19,745.13a48,48,0,0,1-3.58,11.62c-.62,1.33-1.32,2.72-2.08,4.14l-95.26,9.75c-13.13,1.35-24.42-7.71-24.41-20.06l0-252.25c0-11.41,9.36-20.89,21-22.42.28.08.7.17,1,.26,12.3,3.72,25.69,10.65,33.69,23.63,5,8.1,8,18.58,7.3,32.18a92.63,92.63,0,0,1-1.25,11.2q-.58,3.44-1.19,7c-.51,3-1,6-1.49,9.15-.76,5-1.47,10.08-2,15.24-.55,4.95-1,9.94-1.17,14.93,0,1-.07,1.92-.09,2.88q-.12,4.68,0,9.29.12,3.16.39,6.27c1,11.66,3.75,22.74,9.25,32.36,4.15,7.27,10.4,12.79,17,17.9,1.73,1.34,3.48,2.66,5.22,4a138.84,138.84,0,0,1,16.7,14.41l.37.39a81.37,81.37,0,0,1,6.85,8.17,60.94,60.94,0,0,1,5.95,10.18c.63,1.37,1.21,2.76,1.76,4.17.93,2.42,1.73,4.91,2.44,7.44.31,1.14.62,2.3.91,3.47a.65.65,0,0,1,0,.13A120.75,120.75,0,0,1,200.41,725,66.61,66.61,0,0,1,200.19,745.13Z" class="cls-15"/><g class="cls-16"><path d="M131.16,604.37a4.91,4.91,0,0,1-4.74,4.71l-32,1.58a4.45,4.45,0,0,1-4.85-4.31V594.88a5,5,0,0,1,4.85-4.76l32-1.36a4.39,4.39,0,0,1,4.74,4.29Z" class="cls-17"/><path d="M182.81,601.9a4.77,4.77,0,0,1-4.58,4.63l-30.86,1.52a4.32,4.32,0,0,1-4.68-4.24l0-11.27a4.83,4.83,0,0,1,4.69-4.67l30.86-1.31a4.26,4.26,0,0,1,4.57,4.22Z" class="cls-18"/><path d="M231.05,599.59a4.67,4.67,0,0,1-4.43,4.56l-29.85,1.47a4.2,4.2,0,0,1-4.52-4.17l0-11.09a4.71,4.71,0,0,1,4.54-4.59l29.85-1.26a4.14,4.14,0,0,1,4.41,4.15Z" class="cls-19"/><path d="M279.34,597.29a4.56,4.56,0,0,1-4.29,4.47l-28.85,1.42a4.09,4.09,0,0,1-4.37-4.1l0-10.9a4.6,4.6,0,0,1,4.39-4.51l28.85-1.22a4,4,0,0,1,4.27,4.08Z" class="cls-20"/><path d="M131.12,640.69a5,5,0,0,1-4.73,4.78l-31.95,2a4.38,4.38,0,0,1-4.85-4.25V631.72a5,5,0,0,1,4.86-4.81l32-1.75a4.31,4.31,0,0,1,4.73,4.23Z" class="cls-21"/><path d="M182.76,637.6a4.85,4.85,0,0,1-4.58,4.68l-30.85,1.9a4.24,4.24,0,0,1-4.67-4.18V628.74a4.89,4.89,0,0,1,4.69-4.72l30.85-1.69a4.19,4.19,0,0,1,4.56,4.16Z" class="cls-22"/><path d="M231,634.71a4.73,4.73,0,0,1-4.43,4.6l-29.83,1.83a4.13,4.13,0,0,1-4.52-4.11V626a4.79,4.79,0,0,1,4.54-4.64l29.84-1.63a4.09,4.09,0,0,1,4.42,4.09Z" class="cls-23"/><path d="M279.24,631.81a4.63,4.63,0,0,1-4.29,4.53l-28.84,1.77a4,4,0,0,1-4.36-4.05l0-10.88a4.66,4.66,0,0,1,4.39-4.56L275,617a4,4,0,0,1,4.27,4Z" class="cls-24"/><path d="M131.09,676.14a5,5,0,0,1-4.73,4.82l-31.94,2.35a4.31,4.31,0,0,1-4.84-4.19V667.67a5.11,5.11,0,0,1,4.85-4.86l31.94-2.13a4.26,4.26,0,0,1,4.73,4.17Z" class="cls-25"/><path d="M182.7,672.43a4.92,4.92,0,0,1-4.58,4.74l-30.83,2.26a4.19,4.19,0,0,1-4.67-4.12V664.06a5,5,0,0,1,4.69-4.77l30.83-2a4.14,4.14,0,0,1,4.57,4.1Z" class="cls-26"/><path d="M230.89,669a4.8,4.8,0,0,1-4.43,4.66l-29.82,2.18a4.07,4.07,0,0,1-4.51-4V660.69a4.85,4.85,0,0,1,4.54-4.68l29.83-2a4,4,0,0,1,4.41,4Z" class="cls-27"/><path d="M279.14,665.51a4.69,4.69,0,0,1-4.29,4.57L246,672.19a4,4,0,0,1-4.37-4l0-10.88a4.73,4.73,0,0,1,4.39-4.6l28.83-1.92a3.92,3.92,0,0,1,4.26,4Z" class="cls-28"/><path d="M131.06,710.71a5.13,5.13,0,0,1-4.73,4.88l-31.92,2.7a4.24,4.24,0,0,1-4.84-4.12V702.73a5.17,5.17,0,0,1,4.85-4.91l31.92-2.5a4.2,4.2,0,0,1,4.73,4.11Z" class="cls-29"/><path d="M182.65,706.41a5,5,0,0,1-4.58,4.78l-30.82,2.62a4.13,4.13,0,0,1-4.67-4.06V698.51a5.05,5.05,0,0,1,4.69-4.82l30.82-2.41a4.07,4.07,0,0,1,4.56,4Z" class="cls-30"/><path d="M230.82,702.39a4.87,4.87,0,0,1-4.43,4.7l-29.81,2.53a4,4,0,0,1-4.51-4l0-11a4.91,4.91,0,0,1,4.53-4.74l29.81-2.32a4,4,0,0,1,4.41,4Z" class="cls-31"/><path d="M131,747.78a5.2,5.2,0,0,1-4.73,4.92l-31.91,3.11a4.19,4.19,0,0,1-4.84-4.06V740.32a5.25,5.25,0,0,1,4.84-5l31.91-2.89a4.14,4.14,0,0,1,4.73,4Z" class="cls-32"/><path d="M182.59,742.84a5.06,5.06,0,0,1-4.58,4.83l-30.8,3a4.07,4.07,0,0,1-4.67-4V735.44a5.12,5.12,0,0,1,4.69-4.87l30.81-2.79a4,4,0,0,1,4.55,4Z" class="cls-33"/><path d="M230.74,738.22a4.94,4.94,0,0,1-4.43,4.75l-29.79,2.9a4,4,0,0,1-4.52-3.94l0-11a5,5,0,0,1,4.53-4.79l29.8-2.69a3.91,3.91,0,0,1,4.41,3.92Z" class="cls-34"/><path d="M274.67,683.74,245.85,686c-2.42.19-4.24,2.91-4.24,5.29l0,6.12v5.11l-.05,23.08,0,6.79v4.43a4,4,0,0,0,4.21,4.27l28.8-2.8a5.36,5.36,0,0,0,4.43-5v-4.38l0-6.7.07-22.77v-5l0-6C279.08,685.94,277,683.55,274.67,683.74Z" class="cls-35"/></g><path d="M132.94,604.28A4.91,4.91,0,0,1,128.2,609l-31.92,1.57a4.44,4.44,0,0,1-4.85-4.31V594.8A5,5,0,0,1,96.29,590l31.93-1.35A4.38,4.38,0,0,1,133,593Z" class="cls-36"/><path d="M182.81,601.9a4.77,4.77,0,0,1-4.58,4.63l-30.86,1.52a4.32,4.32,0,0,1-4.68-4.24l0-11.27a4.83,4.83,0,0,1,4.69-4.67l30.86-1.31a4.26,4.26,0,0,1,4.57,4.22Z" class="cls-37"/><path d="M232.71,599.51a4.64,4.64,0,0,1-4.43,4.55l-29.81,1.47a4.19,4.19,0,0,1-4.51-4.17l0-11.07a4.71,4.71,0,0,1,4.53-4.59l29.82-1.27a4.16,4.16,0,0,1,4.41,4.15Z" class="cls-38"/><path d="M281,597.21a4.56,4.56,0,0,1-4.29,4.47l-28.82,1.42a4.09,4.09,0,0,1-4.36-4.1l0-10.89a4.59,4.59,0,0,1,4.38-4.51l28.83-1.22a4,4,0,0,1,4.26,4.08Z" class="cls-39"/><path d="M132.9,640.59a5,5,0,0,1-4.73,4.77l-31.91,2a4.37,4.37,0,0,1-4.84-4.25V631.62a5,5,0,0,1,4.85-4.81l31.92-1.74a4.3,4.3,0,0,1,4.72,4.22Z" class="cls-40"/><path d="M182.76,637.6a4.85,4.85,0,0,1-4.58,4.68l-30.85,1.9a4.24,4.24,0,0,1-4.67-4.18V628.74a4.89,4.89,0,0,1,4.69-4.72l30.85-1.69a4.19,4.19,0,0,1,4.56,4.16Z" class="cls-41"/><path d="M232.63,634.61a4.72,4.72,0,0,1-4.42,4.6L198.41,641a4.14,4.14,0,0,1-4.52-4.11l0-11.07a4.78,4.78,0,0,1,4.53-4.63l29.81-1.63a4.09,4.09,0,0,1,4.41,4.09Z" class="cls-42"/><path d="M280.84,631.72a4.61,4.61,0,0,1-4.28,4.52L247.76,638a4,4,0,0,1-4.36-4l0-10.88a4.66,4.66,0,0,1,4.39-4.55L276.62,617a4,4,0,0,1,4.26,4Z" class="cls-43"/><path d="M132.87,676a5,5,0,0,1-4.73,4.82l-31.89,2.34A4.3,4.3,0,0,1,91.41,679V667.55a5.09,5.09,0,0,1,4.85-4.86l31.9-2.13a4.26,4.26,0,0,1,4.72,4.17Z" class="cls-44"/><path d="M182.7,672.43a4.92,4.92,0,0,1-4.58,4.74l-30.83,2.26a4.19,4.19,0,0,1-4.67-4.12V664.06a5,5,0,0,1,4.69-4.77l30.83-2a4.14,4.14,0,0,1,4.57,4.1Z" class="cls-45"/><path d="M232.56,668.85a4.8,4.8,0,0,1-4.43,4.65l-29.78,2.19a4.08,4.08,0,0,1-4.52-4.06l0-11a4.86,4.86,0,0,1,4.53-4.69l29.79-2a4,4,0,0,1,4.41,4Z" class="cls-46"/><path d="M280.74,665.39a4.67,4.67,0,0,1-4.28,4.57l-28.79,2.11a4,4,0,0,1-4.36-4l0-10.87a4.73,4.73,0,0,1,4.38-4.6l28.8-1.92a3.93,3.93,0,0,1,4.26,4Z" class="cls-47"/><path d="M132.84,710.56a5.11,5.11,0,0,1-4.73,4.87l-31.88,2.71A4.25,4.25,0,0,1,91.39,714V702.59a5.16,5.16,0,0,1,4.84-4.91l31.89-2.5a4.2,4.2,0,0,1,4.72,4.11Z" class="cls-48"/><path d="M182.65,706.41a5,5,0,0,1-4.58,4.78l-30.82,2.62a4.13,4.13,0,0,1-4.67-4.06V698.51a5.05,5.05,0,0,1,4.69-4.82l30.82-2.41a4.07,4.07,0,0,1,4.56,4Z" class="cls-49"/><path d="M232.48,702.25a4.87,4.87,0,0,1-4.42,4.7l-29.78,2.53a4,4,0,0,1-4.51-4l0-11a4.93,4.93,0,0,1,4.53-4.74l29.78-2.33a4,4,0,0,1,4.4,4Z" class="cls-50"/><path d="M132.8,747.6a5.18,5.18,0,0,1-4.72,4.93l-31.86,3.1a4.19,4.19,0,0,1-4.84-4.06V740.15a5.24,5.24,0,0,1,4.84-5l31.88-2.89a4.12,4.12,0,0,1,4.71,4Z" class="cls-51"/><path d="M182.59,742.84a5.06,5.06,0,0,1-4.58,4.83l-30.8,3a4.07,4.07,0,0,1-4.67-4V735.44a5.12,5.12,0,0,1,4.69-4.87l30.81-2.79a4,4,0,0,1,4.55,4Z" class="cls-52"/><path d="M232.4,738.06a4.94,4.94,0,0,1-4.42,4.75l-29.76,2.9a4,4,0,0,1-4.51-3.94l0-11a5,5,0,0,1,4.52-4.78l29.77-2.7a3.91,3.91,0,0,1,4.4,3.92Z" class="cls-53"/><path d="M276.34,683.61l-28.79,2.25c-2.41.18-4.29,2.91-4.29,5.29l0,6.12v5.11l-.06,23.06v11.21a4.08,4.08,0,0,0,4.26,4.27l28.77-2.8a5.29,5.29,0,0,0,4.37-5V728.7l0-6.7.07-22.76v-5l0-6C280.68,685.82,278.7,683.42,276.34,683.61Z" class="cls-54"/><path d="M540,784.52s-24.87,11.3-25.28,13.11,16-.61,22.69-.35,12.2-1.72,11.59-4.55-3-10-3-10Z" class="cls-55"/><path d="M539.06,775.35l1.51,11.2s3.93,1.4,6.58-.26L548.28,774Z" class="cls-56"/><path d="M656.16,775.62l2.89,4.64a5.52,5.52,0,0,1,.66,4.34c-1,3.86-3,11.39-3.91,13.35-1.2,2.67-17.29,4.26-17.29,4.26s-1.44-2,1.9-4.46,5.49-2.82,6.67-6.42,2-13.78,2-13.78Z" class="cls-57"/><path d="M644.12,763.82c1,.84,6.22,16.53,6.22,16.53s1.67,2.14,4.85-1,1.44-1.42,1.44-1.42l-.6-15.42Z" class="cls-58"/><path d="M525.37,550.43c-1.31,33.4-1.36,69.68.56,108.44,2.16,43.65,6.51,84,12,120.56,2,.06,4.18.07,6.41,0,1.51,0,3-.12,4.39-.21a279.43,279.43,0,0,0,9.21-29.47,282.35,282.35,0,0,0,6.44-34.5c4.79-37.82-.83-41.12,3.06-69.16,3.44-24.82,8.34-25.79,14.08-61,6.23-38.24,1.59-44-.66-46.06C571.24,530.18,548.67,536.19,525.37,550.43Z" class="cls-59"/><path d="M580.85,539c-9.17-8.42-30.12-3.33-52.25,9.52,25.46,27.51,28.23,45.35,25.18,56.93-3.45,13.09-13.94,16.86-13.9,31.17,0,17.58,15.92,22.24,15.59,40.85-.23,12.31-7.2,12.18-8.85,27.38-2,18,7.16,24.18,4.21,37.48-1.27,5.72-4.89,13.2-15.21,20.91.74,5.46,1.51,10.87,2.3,16.18,2,.06,4.18.07,6.41,0,1.51,0,3-.12,4.39-.21a279.43,279.43,0,0,0,9.21-29.47,282.35,282.35,0,0,0,6.44-34.5c4.78-37.82-.83-41.12,3.06-69.16,3.44-24.82,8.34-25.79,14.08-61C587.74,546.81,583.1,541.08,580.85,539Z" class="cls-60"/><path d="M541.15,549.87a750.32,750.32,0,0,1,66.71,119.79A748.85,748.85,0,0,1,644,769.9a13.22,13.22,0,0,0,15.65-3.36,216.44,216.44,0,0,0,1.91-53.25,184.3,184.3,0,0,0-7.49-40c-6-19.52-10.22-20.62-18.11-41.27-8.2-21.44-6.21-26.79-14.06-53.62a354.49,354.49,0,0,0-17.53-47Z" class="cls-61"/><path d="M437.45,321.52s-4.26-5.09-7-8.88-15.21-14.35-15.21-14.35-.9,1.74,1.8,4.43,8.36,7.27,7.13,9.29-4.79,3.86-2.12,7.56,7.14,1,9.51,4,4.81,6.2,4.81,6.2Z" class="cls-62"/><path d="M438.05,316.17l-8.52,10.69a159,159,0,0,0,29.36,62.35c19.06,24.36,59.73,60.85,85.05,48.89,15.43-7.3,36.26-32.31,28.78-44.38-7.2-11.59-38.34-6.11-59.73-10.94C492,378,464.81,362.78,438.05,316.17Z" class="cls-63"/><path d="M633.53,408.79s16.59,56.46,6.31,78.18-43.05-2.13-43.05-2.13Z" class="cls-64"/><path d="M630.46,408.85s16.59,56.47,6.31,78.19-43-2.13-43-2.13Z" class="cls-65"/><path d="M581.94,387.91c-21.31-.39-37.72.3-46.79,9.78-9.59,10,.55,20.84-1,46.49-2.4,39.28-27.17,49.4-28.18,89.22A101.22,101.22,0,0,0,510,564.28a106.83,106.83,0,0,0,28.23,23.92c19.53,11.3,30.66,9,58.51,16C642.3,615.59,646.65,630.26,669,626c22.6-4.3,42.09-23.82,39.46-34.26-1.58-6.24-10.68-4.27-21.42-13.61-13.84-12-8.87-23.95-19.47-37C652.35,522.42,632,534.52,619,518.28c-13.14-16.42-8.79-49.44,1.59-67.62,6.78-11.87,9.49-25.67,15.21-38.09a8.48,8.48,0,0,0,.72-4.8c-1.15-8-14.58-12-24.75-15A120.34,120.34,0,0,0,581.94,387.91Z" class="cls-66"/><path d="M561.2,387.48l4.17-1.39s1.22,5.67,14.74,6.08a20.13,20.13,0,0,0,12.24-4.47l2.92,2s-6.12,8-16.14,8A20.08,20.08,0,0,1,561.2,387.48Z" class="cls-67"/><path d="M564.62,369.2c-1.15-6.19,2.33-11.51,3.09-12.66,3.2-4.79,4-5.42,5.34-6.17l1.92-1,.22-.06a20.84,20.84,0,0,1,6,.18c2.52.78,4.3,11.49,2.16,26.2.11,1.16.21,2.31.31,3.47,5.73-.79,7.39-.25,7.68.52.64,1.66-3.35,11.37-8.81,13.28-6.84,2.4-16.38-3.85-17-6.11-.23-.92-.19-.13,4.47-2.83.43-1.35,1.76-5,2.19-6.37C571.22,377.06,565.46,373.76,564.62,369.2Z" class="cls-68"/><path d="M572.43,364.22c1.26-1.44,3.1.19,2.93,2.18s-2.29,3.9-4.13,3.33S570.73,366.15,572.43,364.22Z" class="cls-69"/><path d="M775.28,298.9c-27.79-15.73-73.76,5.83-94.57,32.34C671,343.56,667.87,355.46,653.54,361c-10.89,4.2-29.89,5.71-43.06-3.32-1.66-1.14-8.39-6-18-11.73-4.24-2.53-8.39-4.85-13.41-4.06-1.28.2-5.53.84-7.36,4.31-1.49,2.81-.83,6.66.66,9.1.89,1.47,1.44,1.47,1.7,2.53.74,3-4.16,6-3.39,7.33.55,1,3.19-.29,4.09.87s-1.65,3.5-1.79,7.54c-1.91,2.42-2.15,7-.93,12.61a52.19,52.19,0,0,0,7.78,18.91c14.89,21.23,25.55,36.41,41.22,41.76,20.74,7.09,32.11-9.27,74.09-24.8,57.49-21.25,78.38-6.17,95-26.43C810.85,370.31,804.14,315.22,775.28,298.9Z" class="cls-70"/><g class="cls-11"><path d="M653,592.29c-21.43-14.23-40.82,2.05-56-10.49-12.48-10.33-2.25-23.8-15.75-42C566.49,519.88,546,525,541.06,510.08c-5.06-15.4,15.24-25.85,15.74-47.23.26-10.92-4.64-25.13-24.21-42.17a97.36,97.36,0,0,1,1.54,23.5c-2.4,39.28-27.17,49.4-28.18,89.22A101.22,101.22,0,0,0,510,564.28a106.83,106.83,0,0,0,28.23,23.92c19.53,11.3,30.66,9,58.51,16C642.3,615.59,646.65,630.26,669,626a59.61,59.61,0,0,0,18.31-6.93,35.61,35.61,0,0,1-15.07-5.79C662.47,606.51,664.19,599.72,653,592.29Z" class="cls-71"/></g><path d="M178.87,280.72c0,31-24.28,55.48-55.32,54.53-32.29-1-59.46-28.89-59.46-62.27s27.17-57.62,59.46-54.25C154.59,222,178.87,249.66,178.87,280.72Z" class="cls-72"/><path d="M187.26,278c0,31-24.28,55.48-55.32,54.53-32.3-1-59.46-28.89-59.46-62.27s27.16-57.61,59.46-54.25C163,219.28,187.26,247,187.26,278Z" class="cls-73"/><path d="M184.82,277.87c0,29.69-23.23,53-52.88,52.05-30.8-1-56.66-27.62-56.66-59.43s25.86-54.94,56.66-51.79C161.59,221.74,184.82,248.19,184.82,277.87Z" class="cls-74"/><path d="M183.08,277.76c0,28.7-22.48,51.22-51.14,50.26-29.73-1-54.66-26.71-54.66-57.4s24.93-53,54.66-50C160.6,223.5,183.08,249.05,183.08,277.76Z" class="cls-75"/><path d="M131.65,230.37h0a3.12,3.12,0,0,1,2.76,3.06v5.29a77.37,77.37,0,0,1,9.16,1.59q3.38.8,6.72,1.89a3.08,3.08,0,0,1,2.1,3.17l-.65,6.63a2.48,2.48,0,0,1-3.55,2.06,39.15,39.15,0,0,0-4.5-1.68,41.39,41.39,0,0,0-8.5-1.59l-.78-.06v15.14c8,2.22,13.79,5.21,17.57,9a19,19,0,0,1,5.63,14q0,9.09-6.23,14.58t-17.61,6.2v5.83a2.65,2.65,0,0,1-2.76,2.7h0a2.93,2.93,0,0,1-2.77-2.93v-5.75l-1.23-.06a79.85,79.85,0,0,1-10.2-1.09,66.93,66.93,0,0,1-7.05-1.62,3,3,0,0,1-2.21-3.14l.76-8.52a2.7,2.7,0,0,1,3.77-2.22,56.09,56.09,0,0,0,6.2,2,54.71,54.71,0,0,0,9.91,1.66l.05-16.84c-7.63-1.89-13.35-4.69-17.11-8.39A19.24,19.24,0,0,1,105.42,257q0-9,6.14-13.87c4.07-3.24,9.85-4.84,17.32-4.84v-5.4A2.49,2.49,0,0,1,131.65,230.37Zm-2.77,20.2a9.3,9.3,0,0,0-5.52,2,5.66,5.66,0,0,0-2,4.54,6.11,6.11,0,0,0,1.83,4.52,13.06,13.06,0,0,0,5.67,2.89Zm4.89,30.49V296.5a8.56,8.56,0,0,0,5.91-1.83,6.62,6.62,0,0,0,2-5.2,7.06,7.06,0,0,0-1.91-5.08A14,14,0,0,0,133.77,281.06Z" class="cls-76"/><path d="M122.69,284.79c1.72-17.07,17.41-24.29,15.36-40-1.26-9.67-8.59-17.83-16.77-24.19-24.81,2.6-44,23.14-44,50,0,30.69,24.93,56.4,54.66,57.4a51.2,51.2,0,0,0,8.45-.41C128.58,315.86,121.2,299.45,122.69,284.79Z" class="cls-77"/><path d="M248.5,151.86c0,26.72-20.89,47.73-47.59,46.91-27.79-.85-51.16-24.85-51.16-53.57s23.37-49.56,51.16-46.67C227.61,101.31,248.5,125.14,248.5,151.86Z" class="cls-78"/><path d="M255.71,149.56c0,26.71-20.89,47.73-47.59,46.91C180.33,195.62,157,171.62,157,142.9s23.37-49.57,51.16-46.67C234.82,99,255.71,122.84,255.71,149.56Z" class="cls-79"/><path d="M253.62,149.41c0,25.54-20,45.6-45.5,44.78-26.5-.86-48.74-23.77-48.74-51.13s22.24-47.27,48.74-44.55C233.63,101.12,253.62,123.87,253.62,149.41Z" class="cls-80"/><path d="M252.11,149.31c0,24.7-19.34,44.07-44,43.25-25.58-.86-47-23-47-49.38s21.44-45.63,47-43C232.77,102.64,252.11,124.62,252.11,149.31Z" class="cls-81"/><path d="M207.87,108.54h0a2.69,2.69,0,0,1,2.37,2.64v4.55a68,68,0,0,1,7.88,1.36q2.91.69,5.78,1.63a2.66,2.66,0,0,1,1.81,2.73l-.55,5.7a2.15,2.15,0,0,1-3.06,1.78,31.62,31.62,0,0,0-3.87-1.45,35.12,35.12,0,0,0-7.32-1.36l-.67-.06v13c6.85,1.92,11.87,4.49,15.12,7.73a16.37,16.37,0,0,1,4.84,12.07,15.88,15.88,0,0,1-5.35,12.54q-5.4,4.76-15.15,5.34v5a2.29,2.29,0,0,1-2.38,2.32h0a2.53,2.53,0,0,1-2.39-2.52v-5l-1,0a69.23,69.23,0,0,1-8.78-.94,57.54,57.54,0,0,1-6.07-1.39,2.62,2.62,0,0,1-1.9-2.7l.66-7.33a2.31,2.31,0,0,1,3.24-1.91,49.52,49.52,0,0,0,5.33,1.75,46.75,46.75,0,0,0,8.53,1.42l0-14.48c-6.56-1.63-11.48-4-14.71-7.23a16.51,16.51,0,0,1-4.88-12.29q0-7.74,5.29-11.93t14.9-4.16v-4.65A2.15,2.15,0,0,1,207.87,108.54Zm-2.38,17.39a8,8,0,0,0-4.75,1.67,4.86,4.86,0,0,0-1.7,3.91,5.23,5.23,0,0,0,1.57,3.88,11.18,11.18,0,0,0,4.88,2.49Zm4.21,26.23v13.28a7.36,7.36,0,0,0,5.08-1.58,5.67,5.67,0,0,0,1.77-4.47A6.09,6.09,0,0,0,214.9,155,12,12,0,0,0,209.7,152.16Z" class="cls-82"/><path d="M200.16,155.36c1.49-14.68,15-20.89,13.22-34.4-1.09-8.32-7.4-15.34-14.43-20.81-21.35,2.24-37.86,19.91-37.86,43,0,26.4,21.45,48.52,47,49.38a44.73,44.73,0,0,0,7.27-.36C205.23,182.09,198.88,168,200.16,155.36Z" class="cls-83"/></g></g></svg>